<svg xmlns="http://www.w3.org/2000/svg" viewBox="0 0 2863.41 1979.21"><defs><style>.cls-1{isolation:isolate;}.cls-2{fill:#caf0ff;}.cls-3,.cls-6,.cls-8,.cls-9{fill:#4188e4;}.cls-3{opacity:0.9;}.cls-27,.cls-4,.cls-5{fill:#fff;}.cls-23,.cls-5,.cls-6{opacity:0.3;}.cls-7{opacity:0.2;}.cls-23,.cls-28,.cls-7,.cls-8{mix-blend-mode:multiply;}.cls-10,.cls-28{fill:#ff5b7e;}.cls-11{fill:#70c0fd;}.cls-12{fill:#07085b;}.cls-13{fill:#ffc0bb;}.cls-14{fill:#f99893;}.cls-15{fill:#283f56;}.cls-16{fill:#ffe5b6;}.cls-17{fill:#1a1a1a;}.cls-18{fill:#9e9da2;}.cls-19{fill:#333;}.cls-20{fill:#d12a56;}.cls-21{fill:#282828;}.cls-22{fill:#daeef7;}.cls-23{fill:#e87b50;}.cls-24{fill:#f9b7b4;}.cls-25{fill:#feb546;}.cls-26{fill:#f4a640;}.cls-27{opacity:0.8;}.cls-28{opacity:0.5;}</style></defs><g class="cls-1"><g id="Layer_1" data-name="Layer 1"><path class="cls-2" d="M2159.84,116.55c457.55,280.69,313.77,757.8,509.6,900.59,253.84,185.09,393.73,949.6-111.8,964.84C1552.25,2012.28,253,1982,253,1982s-365.22-328.69-150.27-875.46,770.91-404.15,977.31-650.19S1702.3-164.15,2159.84,116.55Z" transform="translate(-34.99 -16.62)"/><path class="cls-3" d="M2590.88,1966.7V1793.51h-75.94v34.64H2488.3v-69.28H2391v69.28h-21.32v-53.29h-21.31V1455.11h-26.65V1252.6H2192.53l1.34,244.1-86.22,1V1302.29H1974V1510l-40,1.33V1301.9h-46.63v-89.27h-28v-60H1750.22v60h-28v89.27h-46.63v113.47l-21.52,1.34-6.46-336.18H1503.74v178.84l-50.62,1.33V981.18H1435.8v-59H1283.92v59H1266.6v440h-32V1240.41H1208V1183h-38.64V1015.33h-55.95V1183h-38.64v57.43h-26.64v198.71h-18.66l-14.65-.19V1208.7l-394.36,3.77v518.42h-33.3V1663H467.23v130.56H432.59v-48H356.65v97.25H280.71v123.9Z" transform="translate(-34.99 -16.62)"/><path class="cls-4" d="M1892.38,169.15a99.24,99.24,0,0,0-93.29,65.34A68.09,68.09,0,0,0,1697.9,294c0,2.23.12,4.43.32,6.61h443.14a54.74,54.74,0,0,0-67.1-40.65,80.57,80.57,0,0,0-96.89-42.8,99.16,99.16,0,0,0-85-48Z" transform="translate(-34.99 -16.62)"/><path class="cls-4" d="M507,903.07a29,29,0,0,1,35.5-21.5,42.61,42.61,0,0,1,51.24-22.63A52.49,52.49,0,0,1,688,868.11a36,36,0,0,1,53.52,31.47c0,1.17-.07,2.34-.18,3.49Z" transform="translate(-34.99 -16.62)"/><path class="cls-4" d="M1311.71,555.44a35.07,35.07,0,0,1,43-26.05A51.65,51.65,0,0,1,1416.79,502,63.6,63.6,0,0,1,1531,513.08a43.62,43.62,0,0,1,64.84,38.12c0,1.43-.07,2.84-.21,4.24Z" transform="translate(-34.99 -16.62)"/><path class="cls-4" d="M2110.85,723a35.07,35.07,0,0,1,43-26,51.6,51.6,0,0,1,62.08-27.42,63.6,63.6,0,0,1,114.24,11.11A43.63,43.63,0,0,1,2395,718.79a42.19,42.19,0,0,1-.21,4.23Z" transform="translate(-34.99 -16.62)"/><path class="cls-4" d="M223.1,1095.58a35.07,35.07,0,0,1,43-26,51.65,51.65,0,0,1,62.08-27.43,63.6,63.6,0,0,1,114.24,11.11,43.63,43.63,0,0,1,64.84,38.13c0,1.43-.07,2.84-.2,4.23Z" transform="translate(-34.99 -16.62)"/><path class="cls-4" d="M746.07,950.81,736.38,943c.24-.31,6.14-7.59,17.5-20.11l9.23,8.37C752,943.47,746.13,950.74,746.07,950.81Z" transform="translate(-34.99 -16.62)"/><path class="cls-4" d="M2165.21,917c-12.91-12.39-26-24.6-39-36.29l8.35-9.25c13.06,11.77,26.27,24.07,39.27,36.55Zm-1365.29-24-8.76-8.87c12.54-12.39,25.71-24.81,39.16-36.91l8.34,9.26C825.36,868.4,812.33,880.68,799.92,892.94ZM2086.08,845.7c-13.67-11.51-27.58-22.8-41.32-33.54l7.67-9.83c13.87,10.84,27.89,22.23,41.68,33.84ZM879,821.69l-7.92-9.62c13.82-11.38,28-22.56,42.27-33.25l7.48,10C906.75,799.37,892.68,810.43,879,821.69ZM2002.21,780.2C1987.7,769.76,1973,759.6,1958.4,750l6.86-10.41c14.71,9.67,29.59,19.93,44.23,30.48ZM964.1,757.82l-7-10.3c14.85-10.12,30-20,45.15-29.24l6.52,10.63C993.81,738.08,978.79,747.81,964.1,757.82Zm949.24-36c-15.33-9.12-30.92-17.88-46.32-26l5.84-11c15.58,8.26,31.34,17.13,46.85,26.35Zm-858.6-19.58-6-10.93c15.81-8.65,31.91-16.93,47.86-24.61l5.4,11.24C1086.26,685.49,1070.35,693.66,1054.74,702.21Zm764.72-30.15c-16.15-7.51-32.55-14.6-48.75-21.06l4.62-11.58c16.41,6.55,33,13.73,49.38,21.34Zm-669-15.87-4.77-11.51c16.64-6.91,33.56-13.36,50.29-19.19l4.11,11.77C1183.62,643,1166.92,649.38,1150.5,656.19Zm570.35-23.42c-16.85-5.6-34-10.71-50.85-15.18l3.19-12.05c17.13,4.54,34.49,9.72,51.59,15.4Zm-470.09-11.45-3.38-12c17.32-4.87,34.91-9.23,52.28-13l2.61,12.19C1285.15,612.22,1267.82,616.52,1250.76,621.32Zm367.54-15.64c-17.35-3.41-35-6.27-52.35-8.49l1.58-12.37c17.67,2.26,35.56,5.16,53.18,8.63Zm-263.82-6.53-1.81-12.33c17.76-2.6,35.77-4.62,53.54-6l1,12.42C1389.69,594.61,1372,596.6,1354.48,599.15Zm158.67-6.9c-17.59-1-35.45-1.49-53-1.32l-.11-12.47c17.83-.16,36,.28,53.86,1.34Z" transform="translate(-34.99 -16.62)"/><path class="cls-4" d="M2221.43,973.36c-6-6.3-12.17-12.64-18.25-18.84l8.89-8.73c6.13,6.24,12.31,12.62,18.37,19Z" transform="translate(-34.99 -16.62)"/><path class="cls-5" d="M2471.3,489.22c-25,7.94-48.65,19.91-73.84,27.28a214.15,214.15,0,0,1-150.36-12c-52.23-24.81-94.08-70.78-149.89-85.88-40.68-11-83.91-4.17-125.84-8.43s-88-25.59-98.08-66.51c-1.91-7.69-2.33-16.14,1.12-23.28,7.25-15,27-17.73,43.69-18.5,42.46-1.94,85.19-3.88,127.33,1.65,53.65,7,107.85,26.05,160.58,13.92,16.11-3.71,31.45-10.24,47.47-14.37,37.93-9.77,77.6-5.65,116.43,1.43-50.95-67.7-118.44-131.79-210.07-188q-25-15.36-49.86-28.1c-34.05,21.49-65.86,47.32-102.84,63.25-53.39,23-113.54,23.68-171.57,20.39-34.69-2-72.88-4.25-100.49,16.84-20.22,15.45-30.64,40.71-49.45,57.84-22.74,20.72-54.62,27.09-84.45,34.65-37.85,9.6-76.13,23.1-104.63,49.81s-44.94,69.44-31.15,106c17.51,46.39,73.38,64.68,122.79,68.88,63.22,5.39,128.26-2.27,189.2,15.37,41.41,12,78.57,35,117.22,54.11,66.86,33,138.8,54.35,210.92,73.27,53.5,14,108.1,26.89,163.37,25.29,41-1.18,81.42-10.32,122.38-12.51,43.47-2.32,88.85,2.89,129.26-12.88C2507.64,596.9,2492.34,543.1,2471.3,489.22Z" transform="translate(-34.99 -16.62)"/><path class="cls-5" d="M1318.57,385.23c-6.93-3.6-15.27-2.23-23-1.29a173,173,0,0,1-83.83-10.77c-13.5-5.32-26.36-12.35-39.18-19.36-34.23,35.21-65.19,70-92.48,102.52q-7.23,8.63-15,16.62c5,2.19,10,4.51,14.93,7,14.07,7.16,29.09,18,30,33.77.86,15.35-12.25,27.73-25.32,35.82-35.82,22.17-80.94,31.45-108.07,63.67-23.95,28.44-30.66,71.57-62.33,91.07C900.06,713,883,715.41,866.47,716.63c-55.06,4-112.67-2.81-163.65,18.37-11.18,4.65-21.84,10.58-33.32,14.43-15,5-31,6.34-46.83,7.29a1163.09,1163.09,0,0,1-216.5-7.31C355,778.34,306,813.72,261.08,858.5l9.34,4.32c31.95,14.78,64.41,29.71,99.18,35.19,32,5,64.73,1.87,97-1.33,39.33-3.89,79-7.84,116.71-19.63,41.58-13,80.07-35.26,122.49-45.14,46.67-10.88,95.32-6.16,143.21-4.55,63.62,2.14,128.46-1.53,188.43-22.88s115-62.16,142.85-119.39c14.74-30.25,22.18-65.08,45.13-89.7,23.76-25.48,60.07-35.46,86-58.68,38.51-34.43,46.45-98.08,17.59-140.92C1326.25,391.64,1323,387.55,1318.57,385.23Z" transform="translate(-34.99 -16.62)"/><rect class="cls-6" x="1481.11" y="1104.41" width="116.3" height="15.55"/><g class="cls-7"><rect class="cls-8" x="618" y="1233.42" width="46.66" height="60.44"/><rect class="cls-8" x="618" y="1427.84" width="46.66" height="60.44"/><rect class="cls-8" x="689.7" y="1233.42" width="46.66" height="60.44"/><rect class="cls-8" x="761.4" y="1233.42" width="46.66" height="60.44"/><rect class="cls-8" x="761.4" y="1559.39" width="46.66" height="60.44"/><rect class="cls-8" x="689.7" y="1329.87" width="46.66" height="60.44"/><rect class="cls-8" x="689.7" y="1662.63" width="46.66" height="60.44"/><rect class="cls-8" x="689.7" y="1427.84" width="46.66" height="60.44"/><rect class="cls-8" x="823.03" y="1427.84" width="46.66" height="60.44"/><rect class="cls-8" x="823.03" y="1662.63" width="46.66" height="60.44"/><rect class="cls-8" x="881.7" y="1233.42" width="46.66" height="60.44"/><rect class="cls-8" x="1260.07" y="993.67" width="25.92" height="33.58"/><rect class="cls-8" x="1314" y="993.67" width="25.92" height="33.58"/><rect class="cls-8" x="1260.07" y="1052.93" width="25.92" height="33.58"/><rect class="cls-8" x="1367.92" y="1052.93" width="25.92" height="33.58"/><rect class="cls-8" x="1314" y="1112.19" width="25.92" height="33.58"/><rect class="cls-8" x="1367.92" y="1112.19" width="25.92" height="33.58"/><rect class="cls-8" x="1260.07" y="1171.45" width="25.92" height="33.58"/><rect class="cls-8" x="1367.92" y="1171.45" width="25.92" height="33.58"/><rect class="cls-8" x="1260.07" y="1230.71" width="25.92" height="33.58"/><rect class="cls-8" x="1314" y="1230.71" width="25.92" height="33.58"/><rect class="cls-8" x="1367.92" y="1289.97" width="25.92" height="33.58"/><rect class="cls-8" x="1260.07" y="1408.49" width="25.92" height="33.58"/><rect class="cls-8" x="1680.07" y="1309.42" width="25.92" height="33.58"/><rect class="cls-8" x="1824.07" y="1309.42" width="25.92" height="33.58"/><rect class="cls-8" x="1750.15" y="1218.22" width="25.92" height="33.58"/><rect class="cls-8" x="2166.8" y="1268.88" width="25.92" height="33.58"/><rect class="cls-8" x="2253.49" y="1268.88" width="25.92" height="33.58"/><rect class="cls-8" x="2253.49" y="1328.74" width="25.92" height="33.58"/><rect class="cls-8" x="2166.8" y="1388.59" width="25.92" height="33.58"/><rect class="cls-8" x="2253.49" y="1388.59" width="25.92" height="33.58"/><rect class="cls-8" x="2166.8" y="1448.44" width="25.92" height="33.58"/><rect class="cls-8" x="2210.15" y="1508.29" width="25.92" height="33.58"/><rect class="cls-8" x="2253.49" y="1508.29" width="25.92" height="33.58"/><rect class="cls-8" x="2253.49" y="1568.14" width="25.92" height="33.58"/><rect class="cls-8" x="2166.8" y="1627.99" width="25.92" height="33.58"/><rect class="cls-8" x="2210.15" y="1627.99" width="25.92" height="33.58"/><rect class="cls-8" x="1805.84" y="1218.22" width="25.92" height="33.58"/><rect class="cls-8" x="1680.07" y="1376.98" width="25.92" height="33.58"/><rect class="cls-8" x="1728.07" y="1376.98" width="25.92" height="33.58"/><rect class="cls-8" x="1680.07" y="1444.53" width="25.92" height="33.58"/><rect class="cls-8" x="1776.07" y="1444.53" width="25.92" height="33.58"/><rect class="cls-8" x="1824.07" y="1444.53" width="25.92" height="33.58"/><rect class="cls-8" x="1728.07" y="1512.09" width="25.92" height="33.58"/><rect class="cls-8" x="1680.07" y="1579.64" width="25.92" height="33.58"/><rect class="cls-8" x="1776.07" y="1579.64" width="25.92" height="33.58"/><rect class="cls-8" x="1824.07" y="1579.64" width="25.92" height="33.58"/><rect class="cls-8" x="1680.07" y="1714.75" width="25.92" height="33.58"/><rect class="cls-8" x="1776.07" y="1714.75" width="25.92" height="33.58"/><rect class="cls-8" x="881.7" y="1559.39" width="46.66" height="60.44"/><rect class="cls-9" x="1031.77" y="1249.2" width="143.11" height="15.56"/><rect class="cls-9" x="1481.11" y="1205.14" width="116.3" height="15.56"/><rect class="cls-9" x="1481.11" y="1238.71" width="116.3" height="15.56"/><rect class="cls-9" x="1481.11" y="1339.44" width="116.3" height="15.56"/><rect class="cls-9" x="1947.11" y="1309.42" width="116.3" height="15.56"/><rect class="cls-9" x="1947.11" y="1343" width="116.3" height="15.55"/><rect class="cls-9" x="1947.11" y="1410.15" width="116.3" height="15.56"/><rect class="cls-9" x="1947.11" y="1510.88" width="116.3" height="15.56"/><rect class="cls-9" x="1947.11" y="1578.03" width="116.3" height="15.56"/><rect class="cls-9" x="1947.11" y="1645.18" width="116.3" height="15.55"/><rect class="cls-9" x="1947.11" y="1712.33" width="116.3" height="15.56"/><rect class="cls-9" x="1481.11" y="1440.17" width="116.3" height="15.56"/><rect class="cls-9" x="1481.11" y="1507.32" width="116.3" height="15.56"/><rect class="cls-9" x="1031.77" y="1293.87" width="143.11" height="15.56"/><rect class="cls-9" x="1031.77" y="1338.53" width="143.11" height="15.56"/><rect class="cls-9" x="1031.77" y="1427.87" width="143.11" height="15.56"/><rect class="cls-9" x="1031.77" y="1517.2" width="143.11" height="15.56"/><rect class="cls-9" x="1031.77" y="1561.87" width="143.11" height="15.56"/><rect class="cls-9" x="1031.77" y="1651.2" width="143.11" height="15.56"/><rect class="cls-9" x="1031.77" y="1740.53" width="143.11" height="15.56"/></g><rect class="cls-6" x="1481.11" y="1137.99" width="116.3" height="15.56"/><path class="cls-10" d="M687.35,1042.49l33.59,66.67,35.25-65.8c10.44-24.14-6.31-51.67-32.59-52.77l-1.17,0h-1.17C695,991,677.52,1018.1,687.35,1042.49Zm17.18-13.83a17.42,17.42,0,1,1,17.2,17.63A17.43,17.43,0,0,1,704.53,1028.66Z" transform="translate(-34.99 -16.62)"/><path class="cls-11" d="M210.38,1680.78A35.26,35.26,0,0,0,238,1652.34c7.4-40.47,30.82-111.71,104-113,86.17-1.54,101.54,63.07,99.5,110.13a20.08,20.08,0,0,0,20.8,21c25.49-1.06,62.67,4.85,62.67,48.33,0,0,23.05,81.88-42.51,101.62s-97.24-6.22-125.34,20.1c-25.94,24.31-110.58,49.56-151.45-5.77a89.35,89.35,0,0,0-23.32-21.82c-15.35-9.94-35.55-34.06-18.67-89.38,6.56-21.49,24-37.9,45.64-42.55Z" transform="translate(-34.99 -16.62)"/><path class="cls-12" d="M370.2,1752a112.74,112.74,0,0,0-16.65,15.69q-1.94,2.23-3.77,4.62c.45-7.28,1.32-13,2.66-16.78,1.56-4.3,6.06-11.58,11.59-21.89a159.13,159.13,0,0,1,21.3-22c8.52-7.16,17.82-13.26,28.42-16.64-11.07,1.73-21.3,6.47-30.78,12.37-3,1.87-6,3.92-9,6.14,12.63-28.52,25-70.26,19.93-125.76,0,0-1.43,37.31-9.46,71.37a105,105,0,0,0-5.25-15.9c-5.33-12.22-8.86-17.58-16.25-28.07,6.17,11.32,9.06,17,13,29.6,7.81,26.81,2.74,35.84-1.48,45-12.53,27.13-27.7,46.66-34.15,62.56q-3.63-7.76-7.39-15.39-8-16.32-16.58-32.26-1.4-2.58-2.81-5.16a88.71,88.71,0,0,1-2.87-12.9c-.61-3.77-1.12-7.58-1.48-11.42a180.54,180.54,0,0,1-.78-23.2,182.53,182.53,0,0,0-1.34,23.34c0,3.92.18,7.84.45,11.77.05.64.11,1.29.16,1.94l-.09-.17c-3-5.21-6-10.39-9.19-15.47s-6.39-10.1-9.78-15a158.87,158.87,0,0,0-10.81-14,158.79,158.79,0,0,1,9.92,14.74c3.08,5.1,6,10.32,8.83,15.61s5.54,10.65,8.2,16,5.23,10.86,7.76,16.34l1,2.11c-1.69-.52-3.3-1-6.14-1.71a182.19,182.19,0,0,0-33.45-4.87,182.54,182.54,0,0,1,32.63,8.39c3.05,1.13,6.63,2.56,9.62,4q5.63,12.56,10.92,25.28,3.48,8.4,6.82,16.85c1.1,2.81,2.2,5.64,3.26,8.46l0,.07q0,1.08.06,2.13c.39,5,1.34,17.1,2.37,32.5a100,100,0,0,0-27.05-9.34c-10.86-2.11-18.94-1.77-35.71-2.37a31.39,31.39,0,0,1-5.65-5.12,44.13,44.13,0,0,1-10.33-23,46.81,46.81,0,0,0,8.57,24.81c.76,1.06,1.57,2.09,2.43,3.07-4.75-.24-9.49-.59-14.21-1.17a88.86,88.86,0,0,1-15.26-3.12,41.92,41.92,0,0,1-14.17-7.18,43.65,43.65,0,0,0,13.84,8.39,90,90,0,0,0,14.05,4.15l-2.88.48c-3.5.63-7,1.34-10.46,2.19s-6.9,1.83-10.29,3a69.4,69.4,0,0,0-9.91,4.31,68,68,0,0,1,10.11-3.43c3.43-.88,6.89-1.54,10.37-2.1s7-1,10.46-1.27,13.5-.67,17-.74h0c17.91,2.41,28.75,2.5,40.88,5.87a94.32,94.32,0,0,1,27.92,12.85c.35.23.69.48,1,.72,2.58,41.8,4.91,99-.56,113.51-8.16,21.58,41.36,13.82,41.36,13.82s-16.66-9.28-23.25-57.83c-3.83-28.23-8.11-64.72-8.36-92.27.22-.51.45-1,.69-1.54.77-1.67,1.62-3.32,2.51-4.94a103.63,103.63,0,0,1,5.85-9.43A111.43,111.43,0,0,1,372.84,1756c8.33-8.21,21.19-17.15,36.1-23.43C393.63,1737,379.71,1744.44,370.2,1752Z" transform="translate(-34.99 -16.62)"/><path class="cls-11" d="M712.42,1761.89a166.81,166.81,0,0,0,94.24-26.76c22.48-14.66,43.55-36.25,47.44-66.71,8.9-69.62-31.21-67.32-41-95.71s19.34-41.1,6.74-92.82c-6.77-27.78-28.17-39.81-61.55-84.45s-73.83-67.53-103.34-50.88-28.33,52.45-50.27,64.38-55.67,53.54-42.8,132.68-74.16,49.62-40.11,141.17C546.7,1749.92,655.91,1760.84,712.42,1761.89Z" transform="translate(-34.99 -16.62)"/><path class="cls-12" d="M672.69,1702c3.1,44,7.64,219.08,1,234.3-9.84,22.7,41.76-5.58,41.76-5.58s-13.71-104.55-21.66-155.61c-3.54-22.73-10-91.11-10.08-97.06.27-.54.55-1.08.83-1.62.93-1.76,2-3.49,3-5.2a109.06,109.06,0,0,1,7.06-9.92A123.71,123.71,0,0,1,712,1643.8c12-10.29,28.44-19.1,43.52-24.64-18.89,4.77-35.58,12.69-46.7,20.37A129.91,129.91,0,0,0,688.72,1656c-1.55,1.57-3.06,3.18-4.53,4.85.54-7.65,1.58-13.72,3.2-17.64,1.88-4.53,7.31-12.19,14-23A179.92,179.92,0,0,1,727,1597.07c10.49-7.7,21.68-14,34.26-17.51-13.19,1.8-25.45,6.69-37.1,13-3.68,2-7.28,4.14-10.9,6.46,15.23-30,30.2-73.91,24-132.28,0,0-1.73,39.24-11.4,75.07a101.3,101.3,0,0,0-6.33-16.73c-6.44-12.87-10.69-18.51-19.59-29.52,7.41,11.86,10.91,17.87,15.65,31.14,9.11,27.28,3.69,37-1.78,47.3-15.11,28.54-33.39,49.08-41.18,65.8q-4.38-8.14-8.9-16.19c-6.46-11.44-13.09-22.77-20-33.93q-1.68-2.71-3.39-5.42a61.12,61.12,0,0,1-2.21-7.66c-.45-2-.88-3.93-1.24-5.92-.74-4-1.36-8-1.8-12s-.77-8.09-.9-12.16c-.22-4.28-.1-9,0-12.24-.39,3.09-1,7.91-1.24,12.23-.3,4.09-.38,8.2-.37,12.32s.21,8.25.54,12.37c.05.69.12,1.37.19,2l-.12-.18c-3.6-5.48-7.26-10.93-11.07-16.27s-7.7-10.63-11.79-15.75a170.3,170.3,0,0,0-13-14.71,170.51,170.51,0,0,1,12,15.5c3.72,5.37,7.24,10.86,10.64,16.42s6.68,11.21,9.89,16.89,6.3,11.41,9.35,17.18c.39.74.78,1.48,1.16,2.22a195.43,195.43,0,0,0-20.79-4.27,265,265,0,0,0-26.94-2.65,260.3,260.3,0,0,1,26.44,5.16,167.32,167.32,0,0,1,24.49,7.92q6.8,13.2,13.17,26.59,4.2,8.82,8.22,17.72c1.07,2.39,2.65,4.62,3.19,7.18C670.09,1661.5,672.69,1702,672.69,1702Z" transform="translate(-34.99 -16.62)"/><path class="cls-12" d="M2217.87,1083.73l33.3,66.82,35.54-65.65c10.55-24.09-6.09-51.7-32.36-52.91l-1.17,0H2252C2225.71,1032.27,2208.15,1059.3,2217.87,1083.73Zm17.25-13.76a17.41,17.41,0,1,1,17.12,17.71A17.42,17.42,0,0,1,2235.12,1070Z" transform="translate(-34.99 -16.62)"/><path class="cls-11" d="M441.65,1904.7s2.89-48,44.67-43.55c0,0,56.88-90.67,116.44,37.33,0,0,53.78-29.06,73.55,34.14,0,0,33.12-61.69,80.23-41.25S819.72,1968,819.72,1968L472,1975.36Z" transform="translate(-34.99 -16.62)"/><path class="cls-13" d="M1479.72,997c-1.73,1.15-32.35,56.17-32.35,56.17L1406.16,1017l40-66.75L1479.72,969Z" transform="translate(-34.99 -16.62)"/><path class="cls-14" d="M1423,988.83c5.08,14.36,15.5,33.38,36.34,43,8.79-15.59,19.36-34.1,20.35-34.76V969l-33.52-18.81Z" transform="translate(-34.99 -16.62)"/><path class="cls-4" d="M1049,1552.83s-11.65-8.22-22.79,18.09,3.83,36.78,3.83,36.78,19.15-14.17,19-16.87-.87-36.68-.87-36.68Z" transform="translate(-34.99 -16.62)"/><path class="cls-10" d="M1068.13,1543.34s-9.43-5.81-20,10.81c-3.91,6.12-8,15.29-11.8,28.92-14.17,50.61,0,50.61,0,50.61l23.79-10.12s22.77-58,21.42-62.76S1068.13,1543.34,1068.13,1543.34Z" transform="translate(-34.99 -16.62)"/><rect class="cls-15" x="831.95" y="1396.41" width="406.89" height="15.52" rx="5.6"/><rect class="cls-15" x="1135.09" y="1404.17" width="27.33" height="72.37"/><path class="cls-15" d="M922,1390h32.89a0,0,0,0,1,0,0v54.93A11.88,11.88,0,0,1,943,1456.8h-9.14A11.88,11.88,0,0,1,922,1444.93V1390A0,0,0,0,1,922,1390Z"/><path class="cls-15" d="M985.36,1457c3.93,4.49,99.69,94.64,99.69,94.64l-8.09,11.14-101.22-99.83Z" transform="translate(-34.99 -16.62)"/><path class="cls-16" d="M1855.17,1623.21h5.36a20.25,20.25,0,0,1,20.25,20.25v26h-25s-11.13-19.23-15.18-15.18S1855.17,1623.21,1855.17,1623.21Z" transform="translate(-34.99 -16.62)"/><circle class="cls-17" cx="1202.49" cy="1819.91" r="146.7" transform="translate(-969.66 1366.71) rotate(-45)"/><path class="cls-18" d="M1268.62,1819.91a66.13,66.13,0,1,1-66.13-66.12A66.13,66.13,0,0,1,1268.62,1819.91Z" transform="translate(-34.99 -16.62)"/><circle class="cls-17" cx="1897.99" cy="1819.91" r="146.7" transform="translate(-3.75 3655.24) rotate(-88.57)"/><path class="cls-18" d="M1964.11,1819.91a66.13,66.13,0,1,1-66.12-66.12A66.12,66.12,0,0,1,1964.11,1819.91Z" transform="translate(-34.99 -16.62)"/><path class="cls-15" d="M996.09,1689.26h346.59a0,0,0,0,1,0,0v92.43a0,0,0,0,1,0,0H996.09a30.52,30.52,0,0,1-30.52-30.52v-31.39A30.52,30.52,0,0,1,996.09,1689.26Z"/><rect class="cls-10" x="1100.51" y="1461.19" width="328.42" height="55.1" rx="19.89"/><path class="cls-19" d="M1452.42,1527.74s-26.27,14.51-47.52,75.24-16.7,152.32,115.38,159.41h202.94l20.24-35.59s-17.2-242.25-56.68-349.54h66.8s20.17,206.21,91,234a17.84,17.84,0,0,1,11.22,16.66v40.81l-107.29,138.66H1395.28s-83,7.32-103.24-133.6l-239.49-3.67a19.74,19.74,0,0,1-18.58-25.49c7.47-24.32,22.69-58.63,50.3-66.17C1128.07,1566.54,1452.42,1527.74,1452.42,1527.74Z" transform="translate(-34.99 -16.62)"/><path class="cls-15" d="M1065.5,1586.37c.32.55.66,1.1,1,1.65H1410.6l3.51-8.1c18.94-41.48,38.31-52.18,38.31-52.18H1099.5C1069.41,1527.74,1050.12,1560.5,1065.5,1586.37Z" transform="translate(-34.99 -16.62)"/><path class="cls-10" d="M1044.65,1705.88h257.09a40.17,40.17,0,0,0,38-53.34c-13.7-39.4-45.53-81.78-123.9-89-101.22-9.37-162.43,71.51-186.65,116.41A17.61,17.61,0,0,0,1044.65,1705.88Z" transform="translate(-34.99 -16.62)"/><path class="cls-10" d="M1748.52,1807.43l79-127.53s40.49-31.38,120.45-15.18c49.66,10.06,79,43.2,94.14,66.86a16.46,16.46,0,0,1-13.83,25.36H1906.65a123.19,123.19,0,0,0-95.92,45.89l-3.12,3.87a88.94,88.94,0,0,1-69.24,33.12h0a71.43,71.43,0,0,1-48.93-19.4l-13.79-13Z" transform="translate(-34.99 -16.62)"/><path class="cls-10" d="M1759.05,1250.29a17,17,0,0,0-20.32-16.71c-44.77,8.81-91.77,44.68-91.77,87.61s47,78.79,91.77,87.6a17,17,0,0,0,20.32-16.71Z" transform="translate(-34.99 -16.62)"/><path class="cls-4" d="M1759.05,1250.67v141a74,74,0,0,0,0-141Z" transform="translate(-34.99 -16.62)"/><rect class="cls-10" x="860.96" y="1186.05" width="348.86" height="210.36"/><rect class="cls-20" x="853.54" y="1159.57" width="363.7" height="26.48"/><path class="cls-21" d="M980.68,1455.71a7.22,7.22,0,1,1-7.22-7.21A7.21,7.21,0,0,1,980.68,1455.71Z" transform="translate(-34.99 -16.62)"/><rect class="cls-19" x="1077.49" y="1601.2" width="173.08" height="9.62" rx="3.47"/><rect class="cls-19" x="1077.49" y="1625.53" width="173.08" height="9.62" rx="3.47"/><polygon class="cls-13" points="1548.07 1618.38 1535.39 1754.6 1524.49 1774.23 1504.9 1760.05 1505.3 1614.9 1548.07 1618.38"/><polygon class="cls-13" points="1621.62 1605.62 1615.37 1754.6 1604.48 1774.23 1584.89 1760.05 1585.29 1614.9 1621.62 1605.62"/><path class="cls-22" d="M1700.26,1800.1l-84.56.29a1.19,1.19,0,0,1-1.2-1.19l0-6.36a1.2,1.2,0,0,1,1.19-1.21l84.56-.28a1.19,1.19,0,0,1,1.2,1.19l0,6.36A1.19,1.19,0,0,1,1700.26,1800.1Z" transform="translate(-34.99 -16.62)"/><path class="cls-10" d="M1618.37,1765l-2.8,24.35c-.35,3,1.34,5.72,3.55,5.71l76.62-.25a5.6,5.6,0,0,0,5-3.6c1.07-2.4,1.27-6-2.18-10.84-6.89-9.68-29.44-12-40.49-20.21l-35.69.12C1620.37,1760.33,1618.68,1762.33,1618.37,1765Z" transform="translate(-34.99 -16.62)"/><path class="cls-22" d="M1652.69,1774.35h0a1.63,1.63,0,0,1-.44-2c1.49-3.34,6.16-11.47,15.74-9.84a1.38,1.38,0,0,1,.84,1.59v0c-.09.74-.58,1.22-1.12,1.13-8.58-1.44-12.55,5.73-13.76,8.53C1653.68,1774.4,1653.15,1774.63,1652.69,1774.35Z" transform="translate(-34.99 -16.62)"/><path class="cls-22" d="M1660.66,1777.46h0a1.63,1.63,0,0,1-.45-2c1.5-3.34,6.17-11.48,15.75-9.84.55.09.93.83.84,1.58v0c-.09.73-.58,1.21-1.12,1.13-8.58-1.44-12.55,5.73-13.76,8.53C1661.65,1777.51,1661.12,1777.74,1660.66,1777.46Z" transform="translate(-34.99 -16.62)"/><path class="cls-22" d="M1668.07,1780.36h0a1.65,1.65,0,0,1-.45-2c1.5-3.34,6.17-11.48,15.75-9.84.55.09.93.83.84,1.58v0c-.09.73-.58,1.21-1.12,1.12-8.58-1.43-12.55,5.74-13.76,8.54C1669.06,1780.4,1668.53,1780.64,1668.07,1780.36Z" transform="translate(-34.99 -16.62)"/><path class="cls-23" d="M1639.57,1795c-6.1-19.65-16.52-21.78-22.2-21.31l-1.8,15.66c-.35,3,1.34,5.72,3.55,5.71Z" transform="translate(-34.99 -16.62)"/><rect class="cls-19" x="1077.49" y="1649.85" width="173.08" height="9.62" rx="3.47"/><path class="cls-21" d="M1602.94,1434.52c10,.77,51.64,17.73,57,47.79s0,263.6,0,263.6h-46.24s-37-185-37-190.38S1602.94,1434.52,1602.94,1434.52Z" transform="translate(-34.99 -16.62)"/><path class="cls-19" d="M1285.39,1367.47c.77,2.31-10.16,105.59,95.11,114.07s166.17,22.35,166.17,22.35S1532,1737.43,1532.8,1749c0,0,36.22,6.16,51.64,3.85,0,0,82.47-259,58.57-312.15s-214.26-73.22-214.26-73.22Z" transform="translate(-34.99 -16.62)"/><path class="cls-24" d="M1460.65,1181.78s1.08,50.27,4.42,54.93S1628,1302.3,1628,1302.3l-26.19,29.61-117.55-33.58s-84.18-30.2-83.32-32.38,5.49-33.11,9.66-45.22,19.86-39.5,19.86-39.5Z" transform="translate(-34.99 -16.62)"/><path class="cls-25" d="M1401.8,1006.37s-106.59,38.73-118.73,249.14l-5.2,119.66s121.39,52,190.76,6.94c0,0,7-213.57,14.33-291.65a40,40,0,0,0-14.31-34.52C1445.39,1036.68,1405.72,1004.56,1401.8,1006.37Z" transform="translate(-34.99 -16.62)"/><path class="cls-13" d="M1364.8,1155.87s-26.07,107.72,10.37,137.32c22.72,18.46,234.57,54.66,234.57,54.66l13.66-33s-168.7-60.21-178.77-67.18,6.83-99.07,6.83-99.07Z" transform="translate(-34.99 -16.62)"/><path class="cls-26" d="M1447.2,1045.34a33.32,33.32,0,0,0-35-5.74c-16.28,6.87-39.59,26.4-52.19,81.37l-10.68,47.43s79.19,19.44,103.48,18.34l12.42-73.33S1472.3,1067.59,1447.2,1045.34Z" transform="translate(-34.99 -16.62)"/><path class="cls-19" d="M1187.93,1176.18h-64.85L1001.5,1413h64.85l121.58-236.85Z" transform="translate(-34.99 -16.62)"/><path class="cls-16" d="M1106.35,1325.87l-43.52-22.34a13.61,13.61,0,0,1-5.89-18.31l12.79-24.92a13.61,13.61,0,0,1,18.31-5.88l43.52,22.34a13.62,13.62,0,0,1,5.89,18.31L1124.66,1320A13.62,13.62,0,0,1,1106.35,1325.87Zm-21.95-64.36a5.63,5.63,0,0,0-7.58,2.44L1064,1288.86a5.64,5.64,0,0,0,2.44,7.58l43.52,22.34a5.64,5.64,0,0,0,7.58-2.44l12.79-24.91a5.64,5.64,0,0,0-2.44-7.58Z" transform="translate(-34.99 -16.62)"/><path class="cls-13" d="M1436.29,927.12c5.37,11.68,1,24.78-9.74,29.26s-23.82-1.34-29.18-13-1-24.78,9.74-29.26S1430.92,915.44,1436.29,927.12Z" transform="translate(-34.99 -16.62)"/><path class="cls-22" d="M1618.36,1800.1l-84.56.29a1.19,1.19,0,0,1-1.2-1.19l0-6.36a1.2,1.2,0,0,1,1.19-1.21l84.56-.28a1.19,1.19,0,0,1,1.2,1.19l0,6.36A1.19,1.19,0,0,1,1618.36,1800.1Z" transform="translate(-34.99 -16.62)"/><path class="cls-10" d="M1536.46,1765l-2.8,24.35c-.34,3,1.35,5.72,3.55,5.71l76.63-.25a5.6,5.6,0,0,0,5-3.6c1.06-2.4,1.26-6-2.18-10.84-6.89-9.68-29.44-12-40.49-20.21l-35.7.12C1538.47,1760.33,1536.78,1762.33,1536.46,1765Z" transform="translate(-34.99 -16.62)"/><path class="cls-22" d="M1570.78,1774.35h0a1.64,1.64,0,0,1-.44-2c1.5-3.34,6.17-11.47,15.74-9.84.56.1.93.83.84,1.59v0c-.09.74-.58,1.22-1.12,1.13-8.58-1.44-12.55,5.73-13.76,8.53C1571.78,1774.4,1571.25,1774.63,1570.78,1774.35Z" transform="translate(-34.99 -16.62)"/><path class="cls-22" d="M1578.75,1777.46h0a1.64,1.64,0,0,1-.44-2c1.49-3.34,6.17-11.48,15.74-9.84.56.09.93.83.84,1.58v0c-.09.73-.59,1.21-1.12,1.13-8.58-1.44-12.56,5.73-13.76,8.53C1579.75,1777.51,1579.21,1777.74,1578.75,1777.46Z" transform="translate(-34.99 -16.62)"/><path class="cls-22" d="M1586.16,1780.36h0a1.64,1.64,0,0,1-.44-2c1.49-3.34,6.17-11.48,15.74-9.84.56.09.93.83.84,1.58v0c-.09.73-.59,1.21-1.12,1.12-8.58-1.43-12.55,5.74-13.76,8.54C1587.16,1780.4,1586.63,1780.64,1586.16,1780.36Z" transform="translate(-34.99 -16.62)"/><path class="cls-23" d="M1557.66,1795c-6.1-19.65-16.51-21.78-22.19-21.31l-1.81,15.66c-.34,3,1.35,5.72,3.55,5.71Z" transform="translate(-34.99 -16.62)"/><rect class="cls-15" x="1286.74" y="1776" width="464.24" height="50.64" rx="18.28"/><path class="cls-27" d="M1124.12,1968H840.71s-129.55-40.08,0-38.74c0,0-76.25-56.65,39.14-43.17s126.18,47.9,126.18,47.9S1029,1893.33,1124.12,1968Z" transform="translate(-34.99 -16.62)"/><path class="cls-27" d="M1496,1967.14l184.32-1.34s-100.69-58-114.86-32.68C1565.46,1933.12,1387.07,1896.22,1496,1967.14Z" transform="translate(-34.99 -16.62)"/><path class="cls-27" d="M2074.53,1967.29H1751.28s-28.92-34.68,34.69-22.1c0,0-41.25-53.08,54.08-31.82l57.94,19.41s-94.56-119.62,11.64-78.12S2074.53,1967.29,2074.53,1967.29Z" transform="translate(-34.99 -16.62)"/><path class="cls-27" d="M1313,1967.14h-85.43s-11.1-24.29,20-12.14C1247.49,1955,1205.67,1873.35,1313,1967.14Z" transform="translate(-34.99 -16.62)"/><path class="cls-4" d="M1517.44,978.4l-4.19,16.33s-36.56-29.63-36.27-30.21,6.65-11.13,9.39-10.26,25.58,9.68,25.58,10.26S1517.44,978.4,1517.44,978.4Z" transform="translate(-34.99 -16.62)"/><path class="cls-13" d="M1491.86,967.17c11.13,10.84,22,13.08,27,13.52,1.56-5.63,2.64-9.7,2.64-9.7s12.3-3.81,16.25-8.19c0,0-12.44-17-12.62-25s12.21-55.81-22.22-82.91S1448,876.4,1448,876.4l-14.6,50.31-20,30.43s4.79,27.51,32.13,46.86,57.5,12,62.62,9.59c1.25-.58,4.93-12.47,8.11-23.54C1498.36,983.91,1491.86,967.17,1491.86,967.17Z" transform="translate(-34.99 -16.62)"/><path class="cls-19" d="M1498.27,936.3a5.58,5.58,0,0,0,7.41,2,5.08,5.08,0,0,0,2.14-7.07,5.59,5.59,0,0,0-7.41-2A5.08,5.08,0,0,0,1498.27,936.3Z" transform="translate(-34.99 -16.62)"/><path class="cls-19" d="M1490.45,926.69a45.78,45.78,0,0,1,5.73-4.23,24.84,24.84,0,0,1,6.06-2.72,22.77,22.77,0,0,1,6.51-.94l.85,0c.29,0,.57,0,.86.05l1.74.09c1.17.08,2.33.31,3.61.34a20.49,20.49,0,0,0-3.12-1.91,16.57,16.57,0,0,0-3.58-1.12,15.76,15.76,0,0,0-7.76.37,17,17,0,0,0-6.79,3.86A15.17,15.17,0,0,0,1490.45,926.69Z" transform="translate(-34.99 -16.62)"/><path class="cls-20" d="M1453.56,900s-12.08,10.25-15.1,57.32c-2.34,36.51-32.9,42.44-32.29,42.24s8.59-80.2,10.13-82.9,11.82-33.14,13.43-33.91,22.41,12.82,23.57,13.15S1453.56,900,1453.56,900Z" transform="translate(-34.99 -16.62)"/><path class="cls-10" d="M1550.41,866.51s-12.33-80.82-116-76.44-100.26,124.61-100.26,124.61-4.17,87.12,57.87,87.1c0,0,42,2.7,42-49.71,0-50.7,15.41-50.7,15.41-50.7Z" transform="translate(-34.99 -16.62)"/><path class="cls-28" d="M1356.79,831.86c-24,36.22-22.64,82.73-22.64,82.73s-4.17,87.12,57.87,87.1c0,0,40.9,2.62,42-47.67C1377.08,933.87,1358.7,883.81,1356.79,831.86Z" transform="translate(-34.99 -16.62)"/><path class="cls-20" d="M1402.24,969a11.76,11.76,0,1,1-11.76-11.75A11.77,11.77,0,0,1,1402.24,969Z" transform="translate(-34.99 -16.62)"/><path class="cls-17" d="M1449.44,901.37c3.15-1.08,82.2-7.18,119.34-10a6.77,6.77,0,0,0,3.35-12.3l-21.72-15.14Z" transform="translate(-34.99 -16.62)"/><path class="cls-15" d="M1449.44,901.37c3.53-1.21,80.74-26.78,103-34.13a5.75,5.75,0,0,0,3.49-7.72l-3-7a5.77,5.77,0,0,0-8.05-2.81Z" transform="translate(-34.99 -16.62)"/><path class="cls-13" d="M1604.05,1311.41s26.19-15.94,37.57-15.94,35.3,6.83,35.3,18.22a27.28,27.28,0,0,1-6.83,18.22L1647,1351.86s-11,8.51-15.59,4-18.21,1.14-40.76-11.33c-22.13-12.24-1.37-19.41,2.05-22.83S1604.05,1311.41,1604.05,1311.41Z" transform="translate(-34.99 -16.62)"/><path class="cls-17" d="M1676.59,1328.24a24.23,24.23,0,1,1-24.23-24.23A24.23,24.23,0,0,1,1676.59,1328.24Z" transform="translate(-34.99 -16.62)"/><rect class="cls-12" x="187.56" y="1950.13" width="2555.31" height="29.08" rx="10.5"/><path class="cls-11" d="M2278.46,1810a137.67,137.67,0,0,1-77.78-22.09c-18.55-12.1-35.94-29.92-39.15-55.05-7.34-57.46,25.76-55.56,33.87-79s-16-33.93-5.56-76.61c5.58-22.93,23.25-32.86,50.8-69.7s60.93-55.73,85.28-42,23.38,43.29,41.49,53.13,46,44.19,35.33,109.5,61.2,41,33.1,116.52C2415.23,1800.13,2325.1,1809.15,2278.46,1810Z" transform="translate(-34.99 -16.62)"/><path class="cls-12" d="M2311.26,1760.62c-2.57,36.29-6.32,180.81-.87,193.37,8.12,18.73-34.47-4.61-34.47-4.61s11.32-86.28,17.88-128.43c2.91-18.75,8.26-75.19,8.32-80.1l-.69-1.34c-9.5-17.94-29.35-36.57-58.52-47.3,22.41,5.66,43.44,17,58.85,34.44-.44-6.31-1.3-11.32-2.64-14.56-4.29-10.35-11.78-22.66-32.73-38.11a107.41,107.41,0,0,0-13.43-8.49c-2.34-1.24-4.76-2.36-7.23-3.38a70.92,70.92,0,0,0-7.61-2.58,72.36,72.36,0,0,1,8,1.53c2.62.69,5.23,1.49,7.78,2.42a111.47,111.47,0,0,1,14.89,6.79q4.58,2.49,9,5.33c-12.57-24.76-24.92-61-19.83-109.18,0,0,1.43,32.39,9.41,62a83.8,83.8,0,0,1,5.22-13.8,107.61,107.61,0,0,1,11.6-18.71c1.51-1.91,3.06-3.78,4.58-5.66-1.29,2.06-2.59,4.09-3.85,6.15a105.34,105.34,0,0,0-9.07,19.55,78.84,78.84,0,0,0-3.37,13.71,66.42,66.42,0,0,0-.46,13.4,104.45,104.45,0,0,0,5.3,11.93c12.47,23.55,27.56,40.5,34,54.3q3.62-6.72,7.35-13.36c5.33-9.44,10.8-18.79,16.5-28,.92-1.5,1.86-3,2.79-4.47a103.63,103.63,0,0,0,4.33-21.12,137.5,137.5,0,0,0,.78-20.14,140.08,140.08,0,0,1,1.33,20.26c0,3.4-.18,6.81-.45,10.21,0,.57-.1,1.13-.16,1.69a.71.71,0,0,1,.1-.14c3-4.53,6-9,9.13-13.44s6.36-8.77,9.74-13a140.84,140.84,0,0,1,10.75-12.14,142,142,0,0,0-9.87,12.8c-3.07,4.43-6,9-8.79,13.55s-5.51,9.25-8.15,13.94-5.21,9.42-7.72,14.18l-1,1.83c1.07-.28,2.68-.72,6.11-1.48a204.93,204.93,0,0,1,33.29-4.23,203.54,203.54,0,0,0-32.47,7.28c-3.15,1-6.54,2.2-9.57,3.51q-5.61,10.89-10.87,22-3.46,7.27-6.79,14.62c-.88,2-2.18,3.82-2.62,5.93C2313.39,1727.16,2311.26,1760.62,2311.26,1760.62Z" transform="translate(-34.99 -16.62)"/><path class="cls-12" d="M254.32,1967.14s24.88-37.62,70.22-29.55c0,0,25-53,94.23-53.62,70.21-.63,83.55,48.28,83.55,48.28s20-16.88,65.33.45S629,1981.29,629,1981.29Z" transform="translate(-34.99 -16.62)"/><path class="cls-11" d="M2573.83,1904.7s-2.89-48-44.67-43.55c0,0-56.89-90.67-116.44,37.33,0,0-53.78-29.06-73.56,34.14,0,0-33.11-61.69-80.22-41.25s-63.19,76.58-63.19,76.58l347.72,7.41Z" transform="translate(-34.99 -16.62)"/><path class="cls-12" d="M2761.16,1967.14s-24.89-37.62-70.22-29.55c0,0-25-53-94.23-53.62-70.22-.63-83.55,48.28-83.55,48.28s-20-16.88-65.33.45-61.34,48.59-61.34,48.59Z" transform="translate(-34.99 -16.62)"/><path class="cls-11" d="M2491.32,1687c-26.1-13.35-48-35.59-55.89-62.74-7.56-26.17-1.7-54,4.66-80.44,2.78-11.58,5.6-24,1.08-35.07-2.81-6.9-8.19-12.5-13.07-18.26-42.18-49.69-51.8-117.93-46.46-181.54,1.48-17.66,4.13-35.68,12.91-51.31s24.82-28.58,43.43-29.81c28.74-1.89,56.12,23.53,83.49,15,19.62-6.13,29.51-27.2,47.29-37.17,14.94-8.37,33.39-7.88,50.73-7.13,5.46.23,11,.49,16.09,2.47,11.45,4.49,17.3,16.49,20.94,27.73,5.88,18.18,8.79,37.14,14.69,55.31s15.34,36.11,31.26,47.65c12.79,9.27,28.65,13.66,43.06,20.45,35.63,16.79,61.56,47.92,80.8,81,5.76,9.89,11.06,20.13,14,31.08,9.25,34.45-8.61,73.78-41.33,91-12.17,6.43-25.86,10-38,16.47-27.79,14.91-44,43.16-59.88,69.43s-35.07,53.64-65,64.09C2595.18,1719.5,2528.53,1706,2491.32,1687Z" transform="translate(-34.99 -16.62)"/><path class="cls-12" d="M2780.07,1512.72c-6.48-.94-13-1.42-19.54-1.71s-13.07-.23-19.61,0c-1.79.06-3.58.14-5.36.23a170.14,170.14,0,0,0,24.3-13.86c8.41-5.89,16.43-13,22.69-22-6.76,8.5-15,14.75-23.63,19.82a165.54,165.54,0,0,1-26.81,12.33c-8.39,3.07-16.89,5.68-25.44,8.07,1.27-2.26,2.45-4.6,3.54-7a97.84,97.84,0,0,0,5.78-16.68,103.67,103.67,0,0,0,2.82-17.62,112.06,112.06,0,0,0-.19-17.77,110.87,110.87,0,0,1-1.26,17.52,97.32,97.32,0,0,1-4.12,16.62,88.73,88.73,0,0,1-6.76,15c-1.33,2.34-2.75,4.59-4.26,6.72-1.19,1.67-3.43,4.76-4.95,5.72-7,1.85-14.08,3.62-21.14,5.42-22.46,5.82-54.15,13.23-88.93,43-1.46-17.39-3-37.31-4.14-51.25a129.67,129.67,0,0,1,2.07-35.42l0-.18q3.62-17.91,7.54-35.76,6-27.08,12.55-53.95c8.85-37.63,6.78-42.54,7.56-51.1a38.75,38.75,0,0,0,0-7c0-.13,0-.24,0-.35-.63-7.8-1.45-15.54-2.56-23.22a381.16,381.16,0,0,0-9.13-45.15,389.2,389.2,0,0,1,5.26,45.74c.44,7.65.61,15.32.58,23,0,3.82-.11,7.63-.25,11.43-.09,1.89-.17,3.79-.3,5.67,0,.94-.11,1.88-.19,2.81,0,.56-3.17,14-4.36,17.76-7.35,23.12-14.23,46.45-20.82,69.93q-4.62,16.5-9,33.14a136.9,136.9,0,0,0-3,14.91c-.69-2.15-6.43-18-9.21-24.55-14-33-28.16-61.17-51.51-95-9-13-10.14-14.24-22-29.65,14.73,21.66,10.41,15,20.44,31.21,21.32,35.09,34,64.31,46.08,97.51,4.38,13.16,6.69,19.81,11.13,37.15.53,2.09,1.05,4.18,1.51,6.29.27,1.18.54,2.36.8,3.54a276.71,276.71,0,0,0,1.57,48.93c.79,6.61,8.5,125.26,9.39,168.76,2,97.75-15.25,208.35-15.25,208.35s103.39,32.2,82.38-6.73c-14.08-26.1-47.92-262-55.27-344.86.55-.61,1.1-1.23,1.66-1.84,31.43-34,64.11-45.11,87.3-53.26,10.7-3.72,21.47-7.38,32.17-11.43h0c6.3-1.27,24.58-4.64,31-5.46s12.89-1.44,19.35-1.78a193.32,193.32,0,0,1,19.41-.1,112.39,112.39,0,0,1,19.32,2.6A115.15,115.15,0,0,0,2780.07,1512.72Z" transform="translate(-34.99 -16.62)"/></g></g></svg>