<svg id="Layer_1" data-name="Layer 1" xmlns="http://www.w3.org/2000/svg" viewBox="0 0 1786.51 1309.09"><defs><style>.cls-1{fill:#9ed16f;}.cls-2{fill:#7772d6;}.cls-3{fill:#45258f;}.cls-4{fill:#62bdf3;}.cls-5{fill:#d1eaf2;}.cls-6{fill:#3b77be;}.cls-7{fill:#3797db;}.cls-8{fill:#96a65f;}.cls-9{fill:#efac7f;}.cls-10{fill:#2d185d;}.cls-11{fill:#5e2e0d;}.cls-12{fill:#d19369;}.cls-13{fill:#fff;}</style></defs><polygon class="cls-1" points="678.87 248.49 664.86 252.79 655.44 231 634.17 234.76 624.46 219.61 616.79 224.53 629.77 244.79 649.93 241.23 659.73 263.9 680.82 257.42 678.87 248.49"/><polygon class="cls-1" points="1577.78 1032.2 1563.77 1036.5 1554.35 1014.71 1533.08 1018.48 1523.37 1003.32 1515.7 1008.24 1528.69 1028.5 1548.84 1024.94 1558.64 1047.61 1579.73 1041.13 1577.78 1032.2"/><path class="cls-2" d="M615.74,1470.75s-74.8-253.52-80.8-309.45,35.82-38.59,35.82-38.59S535.58,1016.15,561,990.86s48.4,21.85,48.4,21.85,7.7-129.36,34.82-129.41c50.53-.09,49.53,141.08,49.53,141.08s12.9-55.27,40-40.11c40.8,22.84-17.71,133.6-17.71,133.6s52,0,70.25,26.25C819,1191.16,615.74,1470.75,615.74,1470.75Z" transform="translate(-23.23 -180.58)"/><path class="cls-2" d="M640.19,1437.19s-215.63-36-262.53-74.26-.48-55.44-.48-55.44S268.86,1252,270.11,1214.21s55.07-18.57,55.07-18.57-91.27-104.07-69.67-123.84c40.25-36.82,145.77,71.38,145.77,71.38s-31.33-51.46,1.66-59.6c49.76-12.28,86.49,114.59,86.49,114.59s-9.33-50.1,25-43.43C576,1166.72,640.19,1437.19,640.19,1437.19Z" transform="translate(-23.23 -180.58)"/><path class="cls-3" d="M514.41,1154.74c-34.4-6.22-25,43.43-25,43.43s-36.73-126.87-86.49-114.59c-33,8.14-1.66,59.6-1.66,59.6S295.76,1035,255.51,1071.8l384,365.46C632.63,1402.35,572.08,1165.17,514.41,1154.74Z" transform="translate(-23.23 -180.58)"/><path class="cls-2" d="M701.54,1466.94S588,1351.45,530.79,1339.43s-46.9,28.66-46.9,28.66-113.46-99.22-139.75-75.18,2.15,47.25,2.15,47.25-94.51-16.75-108,14.27C217.46,1402.08,372.89,1428,372.89,1428s-65.13,4.51-50,34.39C345.65,1507.48,701.54,1466.94,701.54,1466.94Z" transform="translate(-23.23 -180.58)"/><path class="cls-3" d="M238.25,1354.43c13.53-31,108-14.27,108-14.27s-28.44-23.21-2.15-47.25,136.23,61.69,136.23,61.69-25.92-49.55,31.26-37.52,189.91,149.86,189.91,149.86Z" transform="translate(-23.23 -180.58)"/><path class="cls-4" d="M882.33,275.9c-38.23,6.29-49.58,56.46-17.8,78.9a29.19,29.19,0,0,1,11.34,16.87L881.65,395a12.7,12.7,0,0,0,14.4,9.48l14.48-2.38a12.71,12.71,0,0,0,10.6-13.6c-2-24.09-4.49-32.83,3.34-43.57C947.38,313.5,920.56,269.61,882.33,275.9Z" transform="translate(-23.23 -180.58)"/><path class="cls-5" d="M886.23,377.89c-2.49-20.64-6-42.43-7.17-48.61-21.91,1.21-13.59-21.89-3.48-12.5,2.89,2.68,4.25,6.31,5.15,10.29A56.72,56.72,0,0,0,901.6,321c-.35-5.09-.85-8.94.57-12.2,2.15-4.92,8.38-6.26,10.92-1.47a7.67,7.67,0,0,1,.43,6c-1.47,4.07-5.89,6.76-9.75,8.87,1.15,16.41,2.75,32.94,4.76,49.23l-2.07.26c-2-16-3.55-32.29-4.7-48.44a58.64,58.64,0,0,1-20.61,5.88c1.5,7.9,4.81,29.15,7.15,48.52Zm-17.58-53.48c2,2.1,5.21,3,10,2.8-.82-3.5-2-6.66-4.46-8.9C868.73,313.26,865.39,320.89,868.65,324.41Zm35.43-14.8c-1.19,2.74-.74,6.25-.47,10.28,3.13-1.78,6.77-4,7.95-7.27.82-2.29-.11-5.53-2.44-6.12C908.87,306.43,904.92,307.69,904.08,309.61Z" transform="translate(-23.23 -180.58)"/><path class="cls-2" d="M875.7,371.1c0,.19.12.38.17.57L881.65,395a12.7,12.7,0,0,0,14.4,9.48l14.48-2.38a12.71,12.71,0,0,0,10.6-13.6c-.89-10.71-1.88-18.39-2-24.56Z" transform="translate(-23.23 -180.58)"/><path class="cls-4" d="M854,258.48l-11.43-20.87a4.17,4.17,0,0,1,7.32-4l11.43,20.86a4.17,4.17,0,0,1-7.32,4Z" transform="translate(-23.23 -180.58)"/><path class="cls-4" d="M829,308.94l-24.92-2.17a4.17,4.17,0,1,1,.73-8.31l24.91,2.18a4.17,4.17,0,0,1-.72,8.3Z" transform="translate(-23.23 -180.58)"/><path class="cls-4" d="M804.3,385.33a4.18,4.18,0,0,1,0-5.9,136.49,136.49,0,0,1,20-16.33A4.17,4.17,0,0,1,829,370a127.9,127.9,0,0,0-18.79,15.32A4.17,4.17,0,0,1,804.3,385.33Z" transform="translate(-23.23 -180.58)"/><path class="cls-4" d="M915.55,257.35a4.17,4.17,0,0,1-2.95-5.11,159,159,0,0,0,5.14-32.37,4.17,4.17,0,1,1,8.32.45,165.92,165.92,0,0,1-5.41,34.08A4.17,4.17,0,0,1,915.55,257.35Z" transform="translate(-23.23 -180.58)"/><path class="cls-4" d="M941.21,289.38a4.17,4.17,0,0,1,2.79-5.2l25.9-7.81a4.17,4.17,0,0,1,2.41,8l-25.91,7.8A4.15,4.15,0,0,1,941.21,289.38Z" transform="translate(-23.23 -180.58)"/><path class="cls-4" d="M983.76,358.3a4.06,4.06,0,0,1-1.13-.16,130.43,130.43,0,0,1-25.94-10.4,4.17,4.17,0,0,1,3.91-7.36,122.68,122.68,0,0,0,24.29,9.74,4.17,4.17,0,0,1-1.13,8.18Z" transform="translate(-23.23 -180.58)"/><path class="cls-2" d="M1363.15,542.59l-13.07-30.9-32.86-6.75a4.61,4.61,0,0,1-2.1-8l25.36-22-3.74-33.34a4.61,4.61,0,0,1,7-4.46l28.74,17.31L1403,440.62a4.61,4.61,0,0,1,6.39,5.24l-7.59,32.68,22.62,24.78a4.62,4.62,0,0,1-3,7.71L1388,513.91l-16.58,29.16A4.6,4.6,0,0,1,1363.15,542.59Z" transform="translate(-23.23 -180.58)"/><polygon class="cls-1" points="1547.94 255.99 1542.57 277.62 1506.81 272.82 1495.05 303.48 1467.7 304.27 1468.1 318.11 1504.68 317.06 1515.82 288 1553.02 293 1561.11 260.44 1547.94 255.99"/><path class="cls-6" d="M1252.55,1473.59H623.9c-24,0-43.48-20.19-43.48-45.1v-26.81c0-24.9,19.47-45.09,43.48-45.09h628.65c-28.76,32.6-29.25,82.42-1.15,115.63Z" transform="translate(-23.23 -180.58)"/><path class="cls-5" d="M1242.84,1370H894.16c-24,0-43.47,20.19-43.47,45.1h0c0,24.9,19.46,45.09,43.47,45.09h348.71A89.47,89.47,0,0,1,1242.84,1370Z" transform="translate(-23.23 -180.58)"/><path class="cls-7" d="M1031.7,1275.33a2.61,2.61,0,0,0-2.59-3.7H696.46c-26.07,0-47.2,19-47.2,42.49h0c0,23.46,21.13,42.48,47.2,42.48H1029.2a2.62,2.62,0,0,0,2.59-3.72h0A81.37,81.37,0,0,1,1031.7,1275.33Z" transform="translate(-23.23 -180.58)"/><path class="cls-5" d="M1029.6,1279.54H864.74c-30.6,0-55.41,15.94-55.41,35.6s24.81,35.6,55.41,35.6h165.94A81.25,81.25,0,0,1,1029.6,1279.54Z" transform="translate(-23.23 -180.58)"/><path class="cls-8" d="M987,1296.41H965.55c-4.62,0-8.36,1.55-8.36,3.47v.31H987Z" transform="translate(-23.23 -180.58)"/><path class="cls-1" d="M1005.34,1305.1c0-4.8-5.61-8.69-12.53-8.69H965.26c5.24,0,9.5,2.95,9.5,6.59l-.13,93.09,15.22-12,15.52,12Z" transform="translate(-23.23 -180.58)"/><path class="cls-5" d="M970.54,1268.56H777c-17.16,0-31.08-16.51-31.08-36.88h0c0-20.37,13.92-36.89,31.08-36.89H970.54c-14.8,20.45-15.37,50.45-1.38,71.68Z" transform="translate(-23.23 -180.58)"/><path class="cls-3" d="M745.93,1231.68h0c0-20.37,14.25-36.89,31.81-36.89H974.23a1.79,1.79,0,0,0,1.65-1.92h0a1.8,1.8,0,0,0-1.65-1.9H662.53c-19.39,0-35.1,18.23-35.1,40.71h0c0,22.48,15.71,40.71,35.1,40.71h311.7a1.8,1.8,0,0,0,1.65-1.9h0a1.81,1.81,0,0,0-1.65-1.93H777.74C760.18,1268.56,745.93,1252.05,745.93,1231.68Z" transform="translate(-23.23 -180.58)"/><path class="cls-7" d="M936.74,1212.92H915.27c-4.62,0-8.36,1.52-8.36,3.4v.3h29.83Z" transform="translate(-23.23 -180.58)"/><path class="cls-4" d="M955.06,1221.44c0-4.71-5.61-8.52-12.53-8.52H915c5.25,0,9.5,2.89,9.5,6.46l-.13,91.29,15.22-11.74,15.52,11.74Z" transform="translate(-23.23 -180.58)"/><path class="cls-6" d="M1278.92,649l28.57-7.52-19.36,258.3L1253.85,901l17.29-242.54A10.47,10.47,0,0,1,1278.92,649Z" transform="translate(-23.23 -180.58)"/><path class="cls-7" d="M1290.69,907.19a9.2,9.2,0,0,1-2,0c-5.67-.67-9.88-6.31-9.38-12.61l19-242.87c.49-6.3,5.48-10.86,11.16-10.18s9.88,6.31,9.39,12.6L1299.9,897C1299.46,902.54,1295.51,906.74,1290.69,907.19Z" transform="translate(-23.23 -180.58)"/><path class="cls-7" d="M1027.72,920.12l0,.54h0c.9,9.88,8.56,17.27,17.1,16.51l241.31-21.6c8.55-.76,14.75-9.4,13.86-19.28,0-.42-.1-.83-.16-1.23Z" transform="translate(-23.23 -180.58)"/><path class="cls-9" d="M1195.75,1181c-15.8,8.76-64.1-6.61-64.1-8-.69,13.2-54.08,142.39-54.08,142.39l0,39.75s110,5.25,108.43-4.47-7.5-3.4-29.45-21.76c-1.94-1.63-32.76-8.78-24.42-27C1149,1265.18,1184.63,1203.94,1195.75,1181Z" transform="translate(-23.23 -180.58)"/><path class="cls-3" d="M1074,1356.58l120.42,0c4.35-.45,5.37-4,3.83-6.13-3.16-4.43-26.24-14.86-41.75-21.79-27,3.16-74.52-7.23-78.87-13.39C1066.18,1330.63,1071.57,1356.08,1074,1356.58Z" transform="translate(-23.23 -180.58)"/><path class="cls-10" d="M1047.58,1088.25c-1.63-4.89,103.68-49.58,108.39-44.47,8.34,9-57,178.57-57,178.57l75,22.93s78-195.87,74.76-231.7-42.34-76.54-127-50.48S1047.58,1088.25,1047.58,1088.25Z" transform="translate(-23.23 -180.58)"/><path class="cls-9" d="M1265.62,1203.29c-17.78-3.24-40.82-4.16-59.27-4.48,2.18,16.43,12.73,100.64,10.8,105.81A63.19,63.19,0,0,1,1192,1335.4s81.78,73.78,86.71,65.26-3.64-7.38-9-35.5c-.48-2.49-12.3-41.73-13-62.89C1255.29,1261.9,1265,1225.7,1265.62,1203.29Z" transform="translate(-23.23 -180.58)"/><path class="cls-3" d="M1239.38,927.79c-11.41-6.09-41-6.3-73.59-4.19a747.17,747.17,0,0,0-186.54,36.61L938.83,973.6l.14-41.43s-128.56-21.52-133,10.35c-6.73,48,1.62,145.39,44.46,167.14,133.05,67.53,319.5-107.59,320.17-84.68.91,30.77,26.85,145.27,33.48,195.41,18.45.32,50.14.31,63.88-2.85C1270.6,1119.33,1271.85,945.11,1239.38,927.79Z" transform="translate(-23.23 -180.58)"/><path class="cls-3" d="M1189.5,1337.12l91.92,73.43c3.65,2.41,6.67.32,6.85-2.31.36-5.43-10.88-28.13-18.49-43.32-22.91-14.68-53.11-53-52.57-60.5C1207.52,1312.6,1187.94,1335.2,1189.5,1337.12Z" transform="translate(-23.23 -180.58)"/><path class="cls-11" d="M981.44,527.29c-3.09-28.22-6.34-56.55-29.74-77.24-18.93-16.74-43-19.58-66.81-10.62-67.45,25.38-32.7,85.28-118.7,145.68C739.46,603.87,710,616.72,689.89,642c-28.17,35.37-17.53,77.92,8.13,106.33C820.84,884.24,958,700.67,967.79,656.61,975.12,623.83,983.43,545.46,981.44,527.29Z" transform="translate(-23.23 -180.58)"/><path class="cls-1" d="M956.5,686a374,374,0,0,0-20.36-33.17C925.73,634.35,898.85,625,898.85,625s-9,.18-19.32.69a8.09,8.09,0,0,1-1.95,3.43c-3.88,2.91-26.12-.85-40.48,8.91-48.15,41.27-34.83,241.31-31.05,304.5l146.63,1.39S934.2,808,964,773C984.74,748.7,971.39,713.45,956.5,686Z" transform="translate(-23.23 -180.58)"/><path class="cls-9" d="M890.41,557.32s-8.06,57.56-13.69,71.55,30.95,43.9,61.39,53-9.3-30.9-8-45.85,6.79-85.75,6.79-85.75Z" transform="translate(-23.23 -180.58)"/><path class="cls-12" d="M935.33,570.55c.89-11.71,1.53-20.3,1.53-20.3l-46.45,7.07s-1.17,6.76-2.47,16.32C906.77,584.57,923.71,581.12,935.33,570.55Z" transform="translate(-23.23 -180.58)"/><path class="cls-9" d="M905,452.17a52.77,52.77,0,0,0-29.62,21.38c-11.31,17.26-19.07,68.05,18.17,91.76s66.2-9.83,66.68-42.54S953.68,446.41,905,452.17Z" transform="translate(-23.23 -180.58)"/><path class="cls-9" d="M968.73,512.54c-3.17,7.89-9.48,12.79-14.07,10.94s-5.75-9.75-2.58-17.65,9.48-12.79,14.08-10.94S971.91,504.64,968.73,512.54Z" transform="translate(-23.23 -180.58)"/><path class="cls-11" d="M910.47,451.1s-23.34,52.36-43.85,57-20.22,31-20.22,31,.46-60.84,19.68-74.8S910.47,451.1,910.47,451.1Z" transform="translate(-23.23 -180.58)"/><path class="cls-9" d="M874.77,519c2.69,8.51.22,16.88-5.52,18.7s-12.6-3.58-15.3-12.09-.23-16.87,5.52-18.7S872.07,510.52,874.77,519Z" transform="translate(-23.23 -180.58)"/><path class="cls-9" d="M1137,897.05c-8.8-3.18-21.89-3.58-21.67-4.74.88-4.7,39.75,10.37,34.49,3.52-2.92-3.82-32-17.35-39.08-15.12-6.86,2.17-51.9,14.81-51.9,14.81L935.77,866.67s-31.07-70.62-34.11-131.28c-25.68,3.47-43.17,9.82-65.5,22.21,10.77,58,36.94,152.06,65.86,169.7,12.17,7.43,157.47-8.88,157.47-8.88s32-2.26,37.25-4.27c4-1.53,14.18-7.29,19.74-8.86,12.63-3.58,35.14,5.4,35.21,2.93C1151.74,906.42,1146,900.3,1137,897.05Z" transform="translate(-23.23 -180.58)"/><path class="cls-8" d="M902.42,670.57c-1.19-18.67-8.26-36.69-28.12-42.49-12.31-3.6-26.12-.16-36,7.87-11.7,9.56-15,24.9-14.91,39.41.12,32.95,2.36,67.12,8.39,99.56,22.32-12.39,48.38-19.83,74.07-23.31C905.87,751.42,904,695.24,902.42,670.57Z" transform="translate(-23.23 -180.58)"/><path class="cls-7" d="M521,705.79,330.13,670.25a7.06,7.06,0,0,1-5.65-8.23l23.91-128.39a7,7,0,0,1,8.23-5.65l190.86,35.54a7.06,7.06,0,0,1,5.65,8.23l-23.91,128.4A7,7,0,0,1,521,705.79Z" transform="translate(-23.23 -180.58)"/><path class="cls-7" d="M430.14,559,372,548.19a7.06,7.06,0,0,1-5.65-8.23L370,520.42a7.05,7.05,0,0,1,8.23-5.64l58.1,10.81a7.07,7.07,0,0,1,5.65,8.24l-3.64,19.53A7,7,0,0,1,430.14,559Z" transform="translate(-23.23 -180.58)"/><path class="cls-4" d="M529.68,700.88a7.07,7.07,0,0,1-8.09,5l-192.1-35.78a7.05,7.05,0,0,1-5.74-7.55L333.8,547.49a7.06,7.06,0,0,1,8.33-6.33L555.54,580.9a7.07,7.07,0,0,1,5.5,8.86Z" transform="translate(-23.23 -180.58)"/><polygon class="cls-1" points="1381.84 99.77 1349.16 108.69 1342.12 69.09 1352.82 67.19 1357.77 95.08 1378.98 89.29 1381.84 99.77"/><path class="cls-2" d="M363.85,824.27c8.18-.66,20.75,2.94,26.39,6.76.84.79,7.32,3.37,14.06,14.53l-1.52,1.05c-7.11-7.44-11.88-9.1-17.58-10.81-9.38-2.41-18.84-.61-19.62-.19Z" transform="translate(-23.23 -180.58)"/><path class="cls-1" d="M403.54,846.09s-49.87,8.32-45.22,47.28,57.26,69.26,104.21,45.17c63.17-32.42,38.22-114.82-6.74-121.19S403.54,846.09,403.54,846.09Z" transform="translate(-23.23 -180.58)"/><path class="cls-1" d="M424.69,828.93s13-13.35,41.52-1.2,30.57,68.82,5.15,65.52S404.37,837.11,424.69,828.93Z" transform="translate(-23.23 -180.58)"/><path class="cls-2" d="M767.75,311.39l-205.1,73.16a12.71,12.71,0,0,1-16.24-7.7L508.55,270.72a12.72,12.72,0,0,1,7.7-16.24l205.11-73.16A12.71,12.71,0,0,1,737.6,189l37.85,106.13A12.71,12.71,0,0,1,767.75,311.39Z" transform="translate(-23.23 -180.58)"/><path class="cls-13" d="M631.81,284.11a40.65,40.65,0,1,1-51.94-24.63A40.66,40.66,0,0,1,631.81,284.11Z" transform="translate(-23.23 -180.58)"/><path class="cls-2" d="M599.35,278.42A12,12,0,1,1,584,271.16,12,12,0,0,1,599.35,278.42Z" transform="translate(-23.23 -180.58)"/><path class="cls-2" d="M592.78,300.31h9.9a14.2,14.2,0,0,1,14.2,14.2v4.3a0,0,0,0,1,0,0h-38.3a0,0,0,0,1,0,0v-4.3A14.2,14.2,0,0,1,592.78,300.31Z" transform="translate(-92.49 38.24) rotate(-19.63)"/><path class="cls-13" d="M636.86,261.92a5.18,5.18,0,0,1-1.74-10.06l89.66-32a5.19,5.19,0,0,1,3.48,9.77l-89.66,32A5.14,5.14,0,0,1,636.86,261.92Z" transform="translate(-23.23 -180.58)"/><path class="cls-13" d="M661.07,284.27a5.18,5.18,0,0,1-1.75-10.06l70-25a5.15,5.15,0,0,1,6.62,3.14,5.18,5.18,0,0,1-3.14,6.62l-70,25A5.22,5.22,0,0,1,661.07,284.27Z" transform="translate(-23.23 -180.58)"/><path class="cls-1" d="M1086.43,1111.87H591.19a27.84,27.84,0,0,0-27.84,27.85v23.42A27.83,27.83,0,0,0,591.19,1191h495.24l-.26-.27A56.7,56.7,0,0,1,1086.43,1111.87Z" transform="translate(-23.23 -180.58)"/><path class="cls-5" d="M1077.66,1123.58H812.92a27.85,27.85,0,0,0-27.85,27.85h0a27.84,27.84,0,0,0,27.85,27.84h264.74A56.8,56.8,0,0,1,1077.66,1123.58Z" transform="translate(-23.23 -180.58)"/><path class="cls-5" d="M1491.76,1114.15,1454.22,1020a9.24,9.24,0,0,1,5.15-12l135.09-53.85a9.25,9.25,0,0,1,12,5.16l37.54,94.19a9.23,9.23,0,0,1-5.16,12l-135.09,53.84A9.22,9.22,0,0,1,1491.76,1114.15Z" transform="translate(-23.23 -180.58)"/><path class="cls-7" d="M1619.19,1059.69l-33.74-84.63a2.66,2.66,0,0,1,1.48-3.45h0a2.65,2.65,0,0,1,3.44,1.48l33.74,84.64a2.65,2.65,0,0,1-1.48,3.44h0A2.65,2.65,0,0,1,1619.19,1059.69Z" transform="translate(-23.23 -180.58)"/><path class="cls-7" d="M1603.11,1048.54l-27.69-69.48a2.66,2.66,0,0,1,1.48-3.45h0a2.65,2.65,0,0,1,3.44,1.48l27.7,69.49a2.66,2.66,0,0,1-1.48,3.44h0A2.66,2.66,0,0,1,1603.11,1048.54Z" transform="translate(-23.23 -180.58)"/><path class="cls-7" d="M1599.12,1067.69l-33.74-84.63a2.66,2.66,0,0,1,1.48-3.45h0a2.66,2.66,0,0,1,3.45,1.48l33.73,84.64a2.65,2.65,0,0,1-1.48,3.44h0A2.65,2.65,0,0,1,1599.12,1067.69Z" transform="translate(-23.23 -180.58)"/><path class="cls-7" d="M1581.38,1052.38l-26-65.32a2.65,2.65,0,0,1,1.48-3.45h0a2.65,2.65,0,0,1,3.44,1.48l26,65.32a2.66,2.66,0,0,1-1.48,3.45h0A2.66,2.66,0,0,1,1581.38,1052.38Z" transform="translate(-23.23 -180.58)"/><path class="cls-7" d="M1618.28,966l-.68-1.7a1.18,1.18,0,0,0-1.52-.71l-12.82,5.11a1.19,1.19,0,0,0-.62,1.56l.68,1.7a1.18,1.18,0,0,0,1.52.71l12.82-5.11A1.19,1.19,0,0,0,1618.28,966Z" transform="translate(-23.23 -180.58)"/><path class="cls-7" d="M1621.18,973.32l-.68-1.7a1.18,1.18,0,0,0-1.52-.71L1606.16,976a1.18,1.18,0,0,0-.61,1.56l.68,1.7a1.18,1.18,0,0,0,1.52.71l12.82-5.11A1.18,1.18,0,0,0,1621.18,973.32Z" transform="translate(-23.23 -180.58)"/><path class="cls-7" d="M1624.09,980.61l-.68-1.7a1.18,1.18,0,0,0-1.52-.71l-12.82,5.11a1.19,1.19,0,0,0-.62,1.56l.68,1.7a1.18,1.18,0,0,0,1.52.71l12.82-5.11A1.19,1.19,0,0,0,1624.09,980.61Z" transform="translate(-23.23 -180.58)"/><path class="cls-7" d="M1627,987.9l-.67-1.7a1.21,1.21,0,0,0-1.53-.72L1612,990.6a1.18,1.18,0,0,0-.61,1.56l.68,1.7a1.18,1.18,0,0,0,1.52.71l12.82-5.11A1.18,1.18,0,0,0,1627,987.9Z" transform="translate(-23.23 -180.58)"/><path class="cls-7" d="M1629.9,995.19l-.68-1.71a1.18,1.18,0,0,0-1.52-.7l-12.82,5.1a1.2,1.2,0,0,0-.62,1.57l.68,1.7a1.18,1.18,0,0,0,1.52.71l12.82-5.11A1.19,1.19,0,0,0,1629.9,995.19Z" transform="translate(-23.23 -180.58)"/><path class="cls-7" d="M1632.81,1002.48l-.68-1.7a1.2,1.2,0,0,0-1.52-.72l-12.83,5.11a1.2,1.2,0,0,0-.61,1.57l.68,1.7a1.18,1.18,0,0,0,1.52.71l12.82-5.11A1.19,1.19,0,0,0,1632.81,1002.48Z" transform="translate(-23.23 -180.58)"/><path class="cls-7" d="M1635.71,1009.77l-.68-1.71a1.2,1.2,0,0,0-1.52-.71l-12.82,5.11a1.2,1.2,0,0,0-.62,1.57l.68,1.7a1.18,1.18,0,0,0,1.52.71l12.83-5.11A1.18,1.18,0,0,0,1635.71,1009.77Z" transform="translate(-23.23 -180.58)"/><path class="cls-7" d="M1638.62,1017.06l-.68-1.71a1.2,1.2,0,0,0-1.52-.71l-12.82,5.11a1.19,1.19,0,0,0-.62,1.57l.68,1.7a1.19,1.19,0,0,0,1.52.71l12.82-5.11A1.19,1.19,0,0,0,1638.62,1017.06Z" transform="translate(-23.23 -180.58)"/><path class="cls-7" d="M1641.52,1024.35l-.68-1.71a1.2,1.2,0,0,0-1.52-.71L1626.5,1027a1.2,1.2,0,0,0-.61,1.57l.67,1.7a1.2,1.2,0,0,0,1.53.71l12.82-5.11A1.19,1.19,0,0,0,1641.52,1024.35Z" transform="translate(-23.23 -180.58)"/><path class="cls-7" d="M1644.43,1031.64l-.68-1.71a1.2,1.2,0,0,0-1.52-.71l-12.82,5.11a1.19,1.19,0,0,0-.62,1.56l.68,1.71a1.19,1.19,0,0,0,1.52.71l12.82-5.11A1.19,1.19,0,0,0,1644.43,1031.64Z" transform="translate(-23.23 -180.58)"/><path class="cls-7" d="M1647.33,1038.93l-.68-1.71a1.19,1.19,0,0,0-1.52-.71l-12.82,5.11a1.19,1.19,0,0,0-.61,1.56l.67,1.71a1.2,1.2,0,0,0,1.53.71l12.82-5.11A1.19,1.19,0,0,0,1647.33,1038.93Z" transform="translate(-23.23 -180.58)"/><path class="cls-7" d="M1650.24,1046.22l-.68-1.71a1.19,1.19,0,0,0-1.52-.71l-12.82,5.11a1.19,1.19,0,0,0-.62,1.56l.68,1.71a1.19,1.19,0,0,0,1.52.71l12.82-5.11A1.19,1.19,0,0,0,1650.24,1046.22Z" transform="translate(-23.23 -180.58)"/><path class="cls-7" d="M1685.66,1038.71,1632,1115.06a1.88,1.88,0,0,0-.27.55l-5.47,16.78a2.1,2.1,0,0,0,3.26,2.32l14.35-10.81a2.05,2.05,0,0,0,.46-.47l53.75-76.54a2.1,2.1,0,0,0-.59-3l-9-5.76A2.1,2.1,0,0,0,1685.66,1038.71Z" transform="translate(-23.23 -180.58)"/><path class="cls-5" d="M1644.31,1123.51l-.13.19-13.85,10.44-3.77-2.53,5.17-15.9C1635.79,1117.93,1640.65,1120.21,1644.31,1123.51Z" transform="translate(-23.23 -180.58)"/><path class="cls-6" d="M1142.51,212.24c7.72,6.16,21.14,26,38.27,39.9,10,8.14,17.74,6.07,30.53,7.61,60.68,7.34,44.24,19.74,51.51,21-2.06,4.76-21,44.94-24.5,53.07-3.26,7.49-8.89,10.84-17,9.71-12.55-1.73-25.22-3-37.57-5.7-31.67-6.87-49.29-22.71-72-42-6-5.1-7.51-11.47-4.38-18.68C1121.86,243.59,1140.93,215.33,1142.51,212.24Z" transform="translate(-23.23 -180.58)"/><path class="cls-7" d="M1269.4,329.05c-.27,13.23.74,15.88-4.94,13.88a81.32,81.32,0,0,1-10-4.45c-2.28-1.18-2.36-2.73-.51-4.59,2.69-2.7,5.46-5.34,8.15-8a11.71,11.71,0,0,1,5.14-14.06c1-.58.27.65,8.72-18.8-28-3.45-47.67-5.77-81.76-10A45.81,45.81,0,0,1,1170,272.55q-36.54-30.57-73-61.15c-3.3-2.77-3.72-6.82-1.1-9.94,2-2.39,4.66-2.5,7.52-2.14,7.78,1,84.07,10.45,91.81,11.36a50.16,50.16,0,0,1,27,11.61q35.89,30,71.87,60c3.28,2.75,4.17,5.26,3,8.32-1.27,3.35-4,4.95-8.22,4-3-.65-4.36.26-5.4,3.06-4.7,12.65-8,15.45-6.85,20.07C1277.47,321.33,1273.23,327.5,1269.4,329.05Z" transform="translate(-23.23 -180.58)"/><path class="cls-7" d="M1396,1227.39l13.9,13.26A369.54,369.54,0,0,1,1489,1350.27l2.13,4.51s36.41,3.22,41.49-29.7h0a550.39,550.39,0,0,1-79.94-117.4l-6.58-15.39Z" transform="translate(-23.23 -180.58)"/><path class="cls-6" d="M1446.05,1192.24c1.79,2.57-8,12.46-21.81,22.11s-26.56,15.51-28.34,13,8-12.58,21.87-22.23S1444.27,1189.68,1446.05,1192.24Z" transform="translate(-23.23 -180.58)"/><path class="cls-6" d="M1446.11,1192.34l0,0s-27.72,23.45-39.14,25.85l3.52,4.8a146.91,146.91,0,0,0,13.79-8.59C1437.91,1204.82,1447.61,1195,1446.11,1192.34Z" transform="translate(-23.23 -180.58)"/><path class="cls-1" d="M1483.14,1260.45c0,4-1.5,21.49-30.54,28.78q2.87,3.9,5.63,7.88c18.38-5.44,26.65-14.88,30.36-22.06.59-1.14,1.3-2.66,1.77-3.84Q1486.69,1265.87,1483.14,1260.45Z" transform="translate(-23.23 -180.58)"/><polygon class="cls-1" points="1431.97 1103.49 1389.23 1101.96 1399.36 1110.56 1393.31 1121.54 1433.76 1111.23 1431.97 1103.49"/><polygon class="cls-1" points="1435.87 1113.43 1420.68 1139.88 1431.36 1135.81 1435.47 1144.21 1442.61 1116.39 1435.87 1113.43"/><path class="cls-1" d="M1464.9,1301.18a14,14,0,1,1,12.6-15A13.84,13.84,0,0,1,1464.9,1301.18Z" transform="translate(-23.23 -180.58)"/><path class="cls-4" d="M1555.61,701l-90-80.31c-5.84-5.22-3.41-16,4.66-20.53l71.83-40.67c4.6-2.6,9.78-2.36,13.11.61l90,80.31c5.85,5.22,3.41,16-4.65,20.53l-71.83,40.67C1564.13,704.23,1559,704,1555.61,701Z" transform="translate(-23.23 -180.58)"/><path class="cls-13" d="M1551.35,637.12l-7.5-61.7a5.52,5.52,0,0,1,3.84-5.64,3.58,3.58,0,0,1,4.89,2.92l6.9,56.78,68.25,16.5c2.22.54,3.25,2.94,2.29,5.36s-3.55,3.95-5.78,3.41Z" transform="translate(-23.23 -180.58)"/><path class="cls-4" d="M32,1472.85c-4.82,0-8.73,4.52-8.73,10.09s3.91,10.1,9.77,3.32H1805.61c2.27,0,4.12-3,4.13-6.66h0c0-3.72-1.84-6.75-4.13-6.75Z" transform="translate(-23.23 -180.58)"/><polygon class="cls-4" points="352.85 173.91 362.15 192.31 383.17 191.63 392.14 213 414.3 205.37 425.51 229.09 446.78 224.58 461.3 245.64 453.33 251.13 442.48 235.39 420.03 240.15 409.25 217.35 386.72 225.1 376.82 201.52 356.3 202.19 347.68 185.13 334.29 188.39 332 178.98 352.85 173.91"/><polygon class="cls-1" points="1478.4 644.69 1497.51 652.45 1512.91 638.13 1533.7 648.35 1545.4 628.04 1569.43 638.56 1582.51 621.19 1607.29 627.53 1604.89 636.9 1586.36 632.16 1572.56 650.5 1549.46 640.39 1537.57 661.04 1514.62 649.76 1499.58 663.74 1481.87 656.55 1473.92 667.8 1466.01 662.21 1478.4 644.69"/></svg>