<svg id="Capa_1" data-name="Capa 1" xmlns="http://www.w3.org/2000/svg" viewBox="0 0 973.4 808.87"><defs><style>.cls-1{fill:#aee4ed;}.cls-2{fill:#30c5cc;}.cls-3{fill:#3d9cff;}.cls-4{fill:#0b9b9b;}.cls-5{fill:#c6f4ff;}.cls-6{fill:#db5a28;}.cls-7{fill:#2f2f8e;}.cls-8{fill:#4c49a2;}.cls-9{fill:#fff;}.cls-10{fill:#e67750;}.cls-11{fill:#efefef;}.cls-12{fill:#fd9e71;}.cls-13{fill:#201251;}.cls-14{fill:#31d0a8;}.cls-15{fill:#feba40;}.cls-16{fill:#fedb9b;}.cls-17{fill:#4cb0dd;}.cls-18{fill:#75d5ef;}.cls-19{fill:#fdbe44;}.cls-20{fill:#98dbe5;}.cls-21{fill:#86d2e8;}.cls-22{fill:#f6fffa;}.cls-23{fill:#ffe780;}.cls-24{fill:#1fb288;}.cls-25{fill:#9e472d;}.cls-26{fill:#262845;}.cls-27{fill:#6aa5cc;}.cls-28{fill:#96c4ea;}.cls-29{fill:#1a133a;}.cls-30{fill:#e79673;}</style></defs><path class="cls-1" d="M445.14,927.5c0,9.35-57.51,16.94-128.45,16.94s-128.46-7.59-128.46-16.94,57.51-16.94,128.46-16.94S445.14,918.14,445.14,927.5Z" transform="translate(-53.3 -135.56)"/><ellipse class="cls-1" cx="843.54" cy="770.76" rx="129.86" ry="12.7"/><polygon class="cls-2" points="40.13 627.12 24.83 627.12 24.83 611.83 15.29 611.83 15.29 627.12 0 627.12 0 636.66 15.29 636.66 15.29 651.96 24.83 651.96 24.83 636.66 40.13 636.66 40.13 627.12"/><path class="cls-3" d="M107.35,734.54a9.46,9.46,0,1,1-9.46-9.45A9.46,9.46,0,0,1,107.35,734.54Z" transform="translate(-53.3 -135.56)"/><rect class="cls-2" x="71.58" y="60.75" width="824.12" height="660.61" rx="52.3"/><rect class="cls-4" x="230.15" y="139.46" width="613.56" height="774.3" rx="33.99" transform="translate(1010.25 -145.88) rotate(90)"/><rect class="cls-5" x="116.78" y="102.01" width="733.72" height="578.08" rx="21.96"/><path class="cls-4" d="M75.4,814.37a94.29,94.29,0,0,0,80.54,45.57h762a94.3,94.3,0,0,0,80.54-45.57Z" transform="translate(-53.3 -135.56)"/><path class="cls-2" d="M85.25,827.75H988.62a94.48,94.48,0,0,0,9.85-13.38H75.4A94.48,94.48,0,0,0,85.25,827.75Z" transform="translate(-53.3 -135.56)"/><rect class="cls-6" x="174.46" y="445.63" width="205.15" height="114.81"/><rect class="cls-2" x="375.12" y="151.75" width="77.17" height="10.63"/><rect class="cls-2" x="275.34" y="151.75" width="47.11" height="10.63"/><rect class="cls-2" x="167.76" y="151.75" width="93.34" height="10.63"/><rect class="cls-2" x="337.2" y="151.75" width="20.24" height="10.63"/><rect class="cls-2" x="471.93" y="151.75" width="46.95" height="10.63"/><rect class="cls-2" x="375.12" y="182.8" width="28.95" height="10.63"/><rect class="cls-2" x="415.59" y="182.8" width="28.95" height="10.63"/><rect class="cls-2" x="227.34" y="182.8" width="47.11" height="10.63"/><rect class="cls-2" x="167.76" y="182.8" width="46.22" height="10.63"/><rect class="cls-2" x="287.38" y="182.8" width="77.58" height="10.63"/><path class="cls-7" d="M357.15,908c-4.88-15.66-14.35-81.9-16.47-107.85-.44-5.49-60.81-29.07-60.81-29.07-35.34-.9-53.52,13-53.52,13l84.85,28.66c0,38.27,32.62,96,32.62,96Z" transform="translate(-53.3 -135.56)"/><path class="cls-8" d="M284.36,820.29l-25.2,87.76,14.4,3.14c6.27-20.71,42.54-91.65,43.52-100.08.42-3.6.16-6.37-1.18-7.5s-42-25.44-53.84-28.09c-15.82-3.56-39.32-9.25-39.32-9.25s-13.25,13.85-10.67,36.38S284.36,820.29,284.36,820.29Z" transform="translate(-53.3 -135.56)"/><path class="cls-9" d="M250.36,666s-27.62,2.45-28.88,10,13.18,55.17,13.18,55.17l-14,37.45s39.83,9.8,59.24,2.49c1.84.84,5-39.31,5-39.31L291.76,712l8.77,29.76L320.61,770l13.17-10.66-14.63-25.72S296.51,682,290.49,676C279.2,664.67,250.36,666,250.36,666Z" transform="translate(-53.3 -135.56)"/><path class="cls-10" d="M272.24,668l-2.14-28.4H249.4V666.1c-2.62.29,2.83,21.47,19.51,21.47C268.91,687.57,276.69,684.74,272.24,668Z" transform="translate(-53.3 -135.56)"/><path class="cls-11" d="M230.28,716.08c2.41,8.56,4.38,15,4.38,15l-14,37.45s30.31,7.45,50.93,4.5c-1.84-1.35-26.29-17.82-27.49-25C241.56,733,230.28,716.08,230.28,716.08Z" transform="translate(-53.3 -135.56)"/><path class="cls-12" d="M290.68,610.9c-1.75-7.27-13.09-9.37-31-7.26-12.19,1.43-14.93,12.65-15.28,21l-.54.12a9.92,9.92,0,0,0-7,9.84,9.69,9.69,0,0,0,2.42,6,10.12,10.12,0,0,0,7.37,4.71,9.44,9.44,0,0,0,2.55-.06c5.08,10.57,14.39,23.74,27.46,22.17C295.82,654.05,290.68,610.9,290.68,610.9Z" transform="translate(-53.3 -135.56)"/><path class="cls-13" d="M249.63,630a13.89,13.89,0,0,1,5-16.2c8.94-6.71,9.54,3.19,19,4.4s18.71.45,17.69,6.67c5.71-14.06-2.54-22.1-11.75-26.51s-23.64-6.31-33.66,2.06-8.67,28.45-8.67,28.45C243.78,625.71,245.55,628.3,249.63,630Z" transform="translate(-53.3 -135.56)"/><path class="cls-13" d="M245.84,600.46s-8.33-22.35-24.09-16.82-8.65,37.3-10.39,51.12-11.64,14.43-15.2,8.28c-6.59,12.53,19.23,25.26,27.64,13.22s3.57-42.55,8.94-45.66,10.79.93,10.79.93Z" transform="translate(-53.3 -135.56)"/><path class="cls-9" d="M222.11,673.45c-6.63,3.83-18.82,49.53-18.82,57.06s58.77,45,58.77,45,2.71-9.25,9-11.14c-1.26-.62-43.92-41.4-43.92-41.4l11.29-32S238.42,664,222.11,673.45Z" transform="translate(-53.3 -135.56)"/><polygon class="cls-2" points="204.27 645.72 264.17 643.88 303.07 658.31 237.22 661.8 204.27 645.72"/><polygon class="cls-4" points="237.22 661.8 204.27 649.03 204.27 645.72 239.83 658.54 237.22 661.8"/><polygon class="cls-4" points="237.22 661.8 257.02 607.74 322.52 611.26 303.07 659.56 237.22 661.8"/><path class="cls-2" d="M330.75,767.22c-1.95,3.89-1.36,8.13,1.31,9.47s6.42-.73,8.37-4.63,1.36-8.13-1.32-9.47S332.69,763.33,330.75,767.22Z" transform="translate(-53.3 -135.56)"/><path class="cls-12" d="M271.05,764.38s23.84,18.83,21.33,20.08-13.18,1.26-18.82-1.88-11.5-7.06-11.5-7.06S264.14,765,271.05,764.38Z" transform="translate(-53.3 -135.56)"/><path class="cls-13" d="M274.18,906.8c4.23,4.28,18.63,10.79,25.72,12.54,7.61,1.89,6.28,8.27.72,8.27-10.91,0-35.18-1.37-47.14-1.37-1.88-5.64,1.36-13.19,5.17-18.28C259.81,906.41,273.58,906.18,274.18,906.8Z" transform="translate(-53.3 -135.56)"/><path class="cls-13" d="M360.13,906.8c4.23,4.28,18.63,10.79,25.72,12.54,7.61,1.89,6.28,8.27.72,8.27-10.91,0-35.18-1.37-47.14-1.37-1.88-5.64,1.36-13.19,5.17-18.28C345.75,906.41,359.52,906.18,360.13,906.8Z" transform="translate(-53.3 -135.56)"/><rect class="cls-14" x="175.57" y="401.01" width="57.53" height="15.85"/><rect class="cls-14" x="322.08" y="401.01" width="57.53" height="15.85"/><rect class="cls-14" x="248.82" y="401.01" width="57.53" height="15.85"/><rect class="cls-15" x="427.78" y="252.18" width="187.69" height="69.92" transform="translate(-106.67 -3.08) rotate(-13.78)"/><rect class="cls-16" x="433.2" y="265.78" width="138.25" height="9.67" transform="translate(-103.29 -8.15) rotate(-13.78)"/><rect class="cls-16" x="437.62" y="285.17" width="115.52" height="9.67" transform="translate(-108.11 -9.25) rotate(-13.78)"/><rect class="cls-16" x="442.98" y="310.68" width="54.81" height="9.67" transform="translate(-114.9 -14.47) rotate(-13.78)"/><rect class="cls-9" x="556.65" y="266.81" width="29.36" height="9.66" transform="translate(-101.55 8.31) rotate(-13.78)"/><rect class="cls-9" x="173.4" y="216.47" width="204.73" height="167.07"/><rect class="cls-17" x="393.46" y="312.82" width="402.64" height="75.34"/><rect class="cls-9" x="675.09" y="323.73" width="108.96" height="53.54"/><rect class="cls-18" x="408.19" y="326.98" width="251.85" height="10.33"/><rect class="cls-18" x="408.19" y="345.33" width="251.85" height="10.33"/><rect class="cls-18" x="408.19" y="363.69" width="169.55" height="10.33"/><rect class="cls-9" x="393.56" y="441.98" width="386.93" height="181.55"/><rect class="cls-19" x="393.56" y="441.98" width="386.93" height="30.1"/><rect class="cls-20" x="402.94" y="514.89" width="223.43" height="15.32"/><rect class="cls-20" x="402.94" y="542.13" width="200.37" height="15.32"/><rect class="cls-20" x="402.94" y="569.37" width="135.14" height="15.32"/><rect class="cls-20" x="402.94" y="489.79" width="80.54" height="15.32"/><rect class="cls-21" x="648.13" y="489.04" width="116.86" height="116.86"/><path class="cls-22" d="M771.81,682.27a14.73,14.73,0,0,0,2.93-8.84V664.5a14.88,14.88,0,1,0-29.76,0v8.93a14.82,14.82,0,0,0,3.22,9.23,35.11,35.11,0,0,0-23.44,33.11h73.6S795.51,689.14,771.81,682.27Z" transform="translate(-53.3 -135.56)"/><circle class="cls-6" cx="413.55" cy="457.79" r="7.59"/><circle class="cls-23" cx="437.89" cy="457.79" r="7.59"/><circle class="cls-24" cx="466.12" cy="457.79" r="7.59"/><rect class="cls-6" x="648.74" y="144.5" width="135.51" height="135.51"/><path class="cls-25" d="M891.78,882s1.17,3.56-9.77,8.55-22.47,3.23-25.3,7.42a22.92,22.92,0,0,0-3.49,8.16h62.19s-.47-17.18-7.51-24.8C908.8,883,891.78,882,891.78,882Z" transform="translate(-53.3 -135.56)"/><path class="cls-25" d="M959.52,882s1.12,3.43-9.39,8.23-21.61,3.1-24.33,7.13a22.13,22.13,0,0,0-3.36,7.84h59.8s-.45-16.51-7.22-23.84C975.88,883,959.52,882,959.52,882Z" transform="translate(-53.3 -135.56)"/><polygon class="cls-9" points="826.22 419.42 781.06 427.36 749.3 359.38 797.93 355.41 826.22 419.42"/><path class="cls-26" d="M823.14,548.11h0C823,548.18,823,548.18,823.14,548.11Z" transform="translate(-53.3 -135.56)"/><path class="cls-12" d="M910.78,427.45s-5.95,11.91-5.95,22.83c0,7.63,1,18.65,1.55,24.6a3.44,3.44,0,0,0,4.43,2.95l8.91-2.74-.5,12.9,24.85-.43,5.42-52.17S928.65,412.56,910.78,427.45Z" transform="translate(-53.3 -135.56)"/><path class="cls-13" d="M912.66,454.84s1.39-10.33,9.19-8.19-1.14,12.56-1.14,12.56l7.44,13.4a22.89,22.89,0,0,0,17.37-.5S953.79,447,953.79,439s-7.24-13.3-7.24-13.3-19.39-9.69-29.81-9.2-11.42,10.92-11.42,10.92-4,7.94,0,11.41S912.66,454.84,912.66,454.84Z" transform="translate(-53.3 -135.56)"/><path class="cls-27" d="M945.19,480.38l-1.12,7.18-25.68.1S923.35,479.72,945.19,480.38Z" transform="translate(-53.3 -135.56)"/><path class="cls-12" d="M835.35,544.56s1.8-5.62-5.46-8.93c.19-1.32-1.45-7.9-3-9.43s-2.49,6.95-2.49,6.95-7.1-12.65-8.93-9.43,16,28.12,16.54,29.12S835.35,544.56,835.35,544.56Z" transform="translate(-53.3 -135.56)"/><path class="cls-13" d="M902.18,626.28,885,771.85l3.49,112.84,21.65-1.55s6.12-59.35,6.62-74.24-4-37.71-4-37.71l21.83-90,3.63.66,1,88.67,19.89,112.61,18.21.88s.45-58.08-1-72.47S967,768.38,967,768.38L975,676.57s7.94-24.15-6.28-51.28C966.86,625.45,902.18,626.28,902.18,626.28Z" transform="translate(-53.3 -135.56)"/><path class="cls-28" d="M918.39,487.66s-30.77,9.93-36.39,15.55-21.75,63.59-21.75,63.59l-24.31-24.35-7.54,17.66s28.46,42.35,37.39,43.67,29.11-53.59,29.11-53.59,1.84,30,5.3,45a93.76,93.76,0,0,1,2,31.1c27.53,5,51,4,66.5-1l7.7-57.8s10.49,1.23,13.8-2.41S978.27,501.56,975,496.92s-30.89-9.36-30.89-9.36Z" transform="translate(-53.3 -135.56)"/><path class="cls-27" d="M948.35,527.4c-.16-1.18-2.1-.89-2.06.28.92,24.87.08,49.12-3.82,73.74-.27,1.66,2.19,2.41,2.56.71C950.31,577.78,951.82,552.11,948.35,527.4Z" transform="translate(-53.3 -135.56)"/><path class="cls-27" d="M976.59,545.82c-.17-.83-1.43-.61-1.45.2a246.32,246.32,0,0,1-4.81,42.7c-2.45,12.68-4.7,25.37-3.87,38.34.11,1.81,2.92,1.84,2.84,0-.63-15,2.42-29.44,5.14-44.07C976.71,570.83,979,558.12,976.59,545.82Z" transform="translate(-53.3 -135.56)"/><path class="cls-27" d="M897.72,545.38c-8.26,5.25-11.36,15.53-14.53,24.27-4.28,11.83-8.55,23.45-17.87,32.33-1.39,1.32.69,3.36,2.1,2.09,17.2-15.48,16.38-40.79,31.05-57.72C898.9,545.85,898.34,545,897.72,545.38Z" transform="translate(-53.3 -135.56)"/><path class="cls-25" d="M969,621s-41.69,5.29-66.83-2.65c.66,0,0,7.94,0,7.94s32.05,12,68.81,2.65C970.7,628.81,969,621,969,621Z" transform="translate(-53.3 -135.56)"/><path class="cls-29" d="M537.67,790.42s-3.45,7.53-9.41,8.78-21.64,4.71-24.15,6.9S501.6,814,501.6,814h49.78s-.08-15.08-3-22.91C549.59,791.05,537.67,790.42,537.67,790.42Z" transform="translate(-53.3 -135.56)"/><path class="cls-29" d="M633.66,790.42s-3.45,7.53-9.41,8.78-21.64,4.71-24.15,6.9-2.51,7.85-2.51,7.85h49.78s-.09-15.08-3-22.91C645.58,791.05,633.66,790.42,633.66,790.42Z" transform="translate(-53.3 -135.56)"/><path class="cls-30" d="M627.56,301.14s-13.87-3.54-14.71-1.33,21.44,8.8,21.44,8.8l20.05,55.61L646.83,382l13.81,15.06s15.05-20.39,16.31-26.35-35.76-65.88-35.76-65.88-7.35-23.34-8.47-24.46-14.38-.42-17.39-.37S624.07,292,624.07,292Z" transform="translate(-53.3 -135.56)"/><path class="cls-30" d="M573.61,342.31s-6.61,9.27-8,19.15a64.61,64.61,0,0,0,.47,19.29l12.13-.4V391.7h24.1a126.37,126.37,0,0,1,1.41-13.3c.94-4.7,7.53-13.64,7.53-13.64l-10.82-30.59-15.53-1.41Z" transform="translate(-53.3 -135.56)"/><path class="cls-13" d="M579.71,356.76s4.23-9.88,9.41-6.12-1.41,11.76-1.41,11.76,3.29,13.65,8.94,15.53l5.64,1.88s14.59-13.64,16.94-17.41-3.76-25.4-8-30.11-22.58-4.23-24-6.59-6.12-6.58-10.83-4.7-3.76,17.41-3.76,17.41,5.82,5,6.2,8.62-2.31,8.4-2.31,8.4Z" transform="translate(-53.3 -135.56)"/><path class="cls-13" d="M556.91,392.42s24.05-3.51,37.85-3.82,35.76,6.9,35.76,6.9l16-17.11,20.36,19.13S649.53,423.09,644,429.06s-9.66,33.88-10.92,42.35-4.39,58-4.39,58S613.9,547,553.36,527.87c-.63-.63,2.51-36.39,2.19-45.17s-8.15-38.58-9.72-45.8-26.58-21.65-26.58-21.65-3.09-17.57,8.45-26C529.2,390.16,556.91,392.42,556.91,392.42Z" transform="translate(-53.3 -135.56)"/><path class="cls-30" d="M501,320.53s-9.09,8.47-9.72,11.92,12.52,42.75,12.52,42.75l23.93,14-8.45,26s-26.12-18.18-29.88-23.52S479,333.07,479,333.07s-8.47-10.66-9.1-13.48-2.6-12.06-1.14-13.87,11.16-11.86,12.58-8.88S488,321.55,488,321.55,498.78,316.76,501,320.53Z" transform="translate(-53.3 -135.56)"/><path class="cls-8" d="M553.36,527.87,539.71,656.48l-7.05,136.45,23.52.94S570.77,703.34,571,689.55s-.23-30.25-.23-30.25l15.05-68.69h8.47L611.7,680l17.88,111,18.82.94s2.83-69.17,0-83.28-7-27.76-7-27.76l-8.47-92.7s7.52-32.93-4.24-58.81C626.29,524.73,553.36,527.87,553.36,527.87Z" transform="translate(-53.3 -135.56)"/><polygon class="cls-19" points="356.31 246 341.02 246 341.02 230.71 331.48 230.71 331.48 246 316.19 246 316.19 255.54 331.48 255.54 331.48 270.83 341.02 270.83 341.02 255.54 356.31 255.54 356.31 246"/><path class="cls-2" d="M267.28,499.57a23.91,23.91,0,1,1,23.91-23.91A23.94,23.94,0,0,1,267.28,499.57Zm0-35.34a11.43,11.43,0,1,0,11.43,11.43A11.44,11.44,0,0,0,267.28,464.23Z" transform="translate(-53.3 -135.56)"/><polygon class="cls-2" points="949.17 144.37 933.88 144.37 933.88 129.08 924.34 129.08 924.34 144.37 909.04 144.37 909.04 153.91 924.34 153.91 924.34 169.2 933.88 169.2 933.88 153.91 949.17 153.91 949.17 144.37"/><path class="cls-3" d="M926.05,175.57a9.45,9.45,0,1,1-9.45-9.46A9.46,9.46,0,0,1,926.05,175.57Z" transform="translate(-53.3 -135.56)"/><path class="cls-15" d="M741.57,341.47a23.91,23.91,0,1,1,23.9-23.9A23.94,23.94,0,0,1,741.57,341.47Zm0-35.34A11.44,11.44,0,1,0,753,317.57,11.45,11.45,0,0,0,741.57,306.13Z" transform="translate(-53.3 -135.56)"/><path class="cls-15" d="M868.61,183.38a23.91,23.91,0,1,1,23.9-23.91A23.94,23.94,0,0,1,868.61,183.38Zm0-35.34A11.43,11.43,0,1,0,880,159.47,11.45,11.45,0,0,0,868.61,148Z" transform="translate(-53.3 -135.56)"/></svg>