<svg id="Web_Design" data-name="Web Design" xmlns="http://www.w3.org/2000/svg" viewBox="0 0 952.82 812.74"><defs><style>.cls-1,.cls-17{fill:#ffdb79;}.cls-2{fill:#34465c;}.cls-10,.cls-11,.cls-13,.cls-14,.cls-15,.cls-16,.cls-17,.cls-2,.cls-3,.cls-4,.cls-6,.cls-7,.cls-9{fill-rule:evenodd;}.cls-3{fill:#34404f;}.cls-4{fill:#6e7f8f;}.cls-5{fill:#ffe8ae;}.cls-6,.cls-8{fill:#fefefe;}.cls-7{fill:#363f48;}.cls-9{fill:#f16858;}.cls-10{fill:#c02729;}.cls-11{fill:#d0d2d4;}.cls-12{fill:#7c7c7c;}.cls-13,.cls-18{fill:#fff;}.cls-14{fill:#353f49;}.cls-15,.cls-20{fill:#f77b55;}.cls-16{fill:#76d0de;}.cls-19{fill:#ccc;}.cls-21{fill:#08c6a2;}</style></defs><g id="Web_Design-2" data-name="Web Design"><polygon class="cls-1" points="277.99 53.57 427.68 53.57 431.26 53.57 431.26 57.16 431.26 158 551.32 158 554.9 158 554.9 161.59 554.9 212.52 547.74 212.52 547.74 165.17 427.68 165.17 424.09 165.17 424.09 161.59 424.09 60.74 277.99 60.74 277.99 53.57"/><polygon class="cls-1" points="159.69 105.04 80.83 105.04 80.83 240.93 73.66 240.93 73.66 101.46 73.66 97.87 77.24 97.87 159.69 97.87 159.69 105.04"/><path class="cls-2" d="M330.46,411.1H927.58a22.16,22.16,0,0,1,22,22.12V841.08H308.35V433.22a22.16,22.16,0,0,1,22.11-22.12Z" transform="translate(-130.46 -133.72)"/><path class="cls-3" d="M209,915.68h840c2.3,0,1.82-1.76-1-3.92l-90.16-69.33c-2.84-2.16-7-3.92-9.33-3.92H309.56c-2.3,0-6.49,1.76-9.33,3.92L210,911.76c-2.84,2.16-3.32,3.92-1,3.92Z" transform="translate(-130.46 -133.72)"/><path class="cls-2" d="M212.37,910.68h833.3c6.29,0,6.9,5.14,1.35,11.5L1035.73,935c-5.61,6.36-15.35,11.5-21.65,11.5H244c-6.35,0-16.09-5.14-21.64-11.5L211,922.18c-5.61-6.36-5-11.5,1.36-11.5Z" transform="translate(-130.46 -133.72)"/><polygon class="cls-4" points="433.09 743.41 468.46 743.41 528.66 743.41 563.97 743.41 583.65 764.99 508.98 764.99 488.15 764.99 413.41 764.99 433.09 743.41"/><rect class="cls-5" x="198.05" y="304.98" width="601.03" height="380.47"/><path class="cls-6" d="M989.94,339.54a67.08,67.08,0,0,0,9.13-25l26.65-4.6-7.17-41.33-26.65,4.67a70,70,0,0,0-7.51-11.09,72.92,72.92,0,0,0-9.53-9.33l9.26-25.37-39.3-14.47-9.33,25.43A65.72,65.72,0,0,0,909.31,243L892,222.25l-32.2,26.93,17.32,20.69a67.28,67.28,0,0,0-9.13,25l-26.65,4.67,7.17,41.26,26.65-4.6a66.37,66.37,0,0,0,7.5,11,65.62,65.62,0,0,0,9.54,9.34L882.87,382l39.36,14.41,9.34-25.44a65.64,65.64,0,0,0,26.17-4.53l17.32,20.77,32.19-26.85Z" transform="translate(-130.46 -133.72)"/><path class="cls-7" d="M947,320.8a21,21,0,1,0-29.56-2.64A20.93,20.93,0,0,0,947,320.8Zm13,15.56a41.25,41.25,0,1,0-58.11-5.21A41.27,41.27,0,0,0,960,336.36Z" transform="translate(-130.46 -133.72)"/><path class="cls-6" d="M819.76,252.76a45.81,45.81,0,0,0-10.62-15.08L817,220.63l-26.52-12.17-7.84,17a47,47,0,0,0-9.27-.07,50,50,0,0,0-9.06,1.83l-10.89-15.35L729.6,228.75l10.89,15.35a46.28,46.28,0,0,0-7.71,16.78L714,262.57l2.71,29,18.73-1.75a46.9,46.9,0,0,0,10.69,15.08L738.32,322l26.45,12.11,7.85-17.05a46.93,46.93,0,0,0,9.26.07,44.32,44.32,0,0,0,9.13-1.76l10.89,15.29,23.74-16.84-10.88-15.36a45.44,45.44,0,0,0,7.7-16.7L841.2,280l-2.7-29Z" transform="translate(-130.46 -133.72)"/><path class="cls-7" d="M792.16,269.94A14.57,14.57,0,1,0,779,285.84a14.57,14.57,0,0,0,13.19-15.9Zm14-1.29a28.67,28.67,0,1,0-25.84,31.19,28.73,28.73,0,0,0,25.84-31.19Z" transform="translate(-130.46 -133.72)"/><path class="cls-6" d="M351.63,133.72c-29.08,0-53.5,18.66-60.4,44C263,180.72,241,203.25,241,230.57c0,29.49,25.5,53.37,56.88,53.37H443.69c27.12,0,49.11-20.63,49.11-46.06,0-18.94-12.25-35.24-29.63-42.28v-.94c0-18-15.56-32.53-34.7-32.53a36.32,36.32,0,0,0-20,6c-9.81-20.23-31.59-34.36-56.82-34.36Z" transform="translate(-130.46 -133.72)"/><path class="cls-6" d="M550.36,256.07c-15.22,0-27.94,9.74-31.52,22.93-14.75,1.63-26.25,13.4-26.25,27.67,0,15.35,13.26,27.8,29.7,27.8h76.09c14.13,0,25.63-10.76,25.63-24,0-9.88-6.35-18.4-15.48-22v-.55c0-9.33-8-17-18.06-17A19,19,0,0,0,580,274c-5.07-10.55-16.43-17.93-29.62-17.93Z" transform="translate(-130.46 -133.72)"/><rect class="cls-8" x="743.14" y="462.11" width="201.09" height="258.65"/><path class="cls-9" d="M1076,595.82H872.38a7.31,7.31,0,0,1-7.3-7.3V577.69a7.31,7.31,0,0,1,7.3-7.3h73.46a22.19,22.19,0,0,1-.21-3,28.52,28.52,0,1,1,57,0c0,1-.07,2-.14,3H1076a7.36,7.36,0,0,1,7.3,7.3v10.83a7.36,7.36,0,0,1-7.3,7.3Zm-101.8-39.5a11,11,0,1,0,11,11,11,11,0,0,0-11-11Z" transform="translate(-130.46 -133.72)"/><path class="cls-10" d="M1076,595.82H872.38a7.31,7.31,0,0,1-7.3-7.3v-.07h218.2v.07a7.36,7.36,0,0,1-7.3,7.3Z" transform="translate(-130.46 -133.72)"/><polygon class="cls-11" points="911.36 720.76 944.23 687.88 911.36 688.36 911.36 720.76"/><rect class="cls-12" x="772.77" y="498.77" width="141.84" height="12.04"/><rect class="cls-12" x="772.77" y="545.23" width="141.84" height="12.04"/><rect class="cls-12" x="772.77" y="591.77" width="141.84" height="12.04"/><rect class="cls-12" x="772.77" y="638.24" width="141.84" height="12.04"/><path class="cls-13" d="M147.57,345.83H824.9a17.11,17.11,0,0,1,17,17.11V748.35a17.11,17.11,0,0,1-17,17.11H147.57a17.17,17.17,0,0,1-17.11-17.11V362.94a17.17,17.17,0,0,1,17.11-17.11Z" transform="translate(-130.46 -133.72)"/><path class="cls-14" d="M145.47,345.83H826.93a15.06,15.06,0,0,1,15,15V407a1.2,1.2,0,0,1-1.21,1.21H130.46V360.85a15.06,15.06,0,0,1,15-15Z" transform="translate(-130.46 -133.72)"/><path class="cls-15" d="M165.63,390c7.24,0,13.05-6.16,13.05-13.66s-5.81-13.67-13.05-13.67-13.06,6.09-13.06,13.67S158.46,390,165.63,390Z" transform="translate(-130.46 -133.72)"/><path class="cls-16" d="M202.15,390c7.17,0,13.06-6.16,13.06-13.66s-5.89-13.67-13.06-13.67-13.05,6.09-13.05,13.67S194.92,390,202.15,390Z" transform="translate(-130.46 -133.72)"/><path class="cls-17" d="M238.68,390c7.17,0,13-6.16,13-13.66s-5.88-13.67-13-13.67a13.39,13.39,0,0,0-13.12,13.67c0,7.5,5.88,13.66,13.12,13.66Z" transform="translate(-130.46 -133.72)"/><rect class="cls-18" x="141.09" y="231.12" width="550.17" height="25.91"/><rect class="cls-19" x="57.15" y="298.83" width="152.66" height="20.16"/><rect class="cls-19" x="273.12" y="298.83" width="152.66" height="20.16"/><rect class="cls-19" x="489.77" y="298.83" width="152.66" height="20.16"/><rect class="cls-1" x="53.03" y="352.13" width="367.28" height="167.2"/><rect class="cls-20" x="450.54" y="352.13" width="112.55" height="107"/><rect class="cls-19" x="50.26" y="538.81" width="280.63" height="11.5"/><rect class="cls-19" x="103.89" y="560.39" width="280.63" height="11.56"/><rect class="cls-19" x="58.51" y="583.45" width="280.63" height="11.57"/><polygon class="cls-13" points="529.61 405.63 506.81 419.43 484.02 433.23 484.02 405.63 484.02 378.03 506.81 391.83 529.61 405.63"/><rect class="cls-21" x="450.54" y="485.24" width="225.1" height="107"/><rect class="cls-1" x="563.09" y="352.13" width="112.55" height="107"/><path class="cls-14" d="M267.76,583.85l-21.3-9.47L271,564.91l1-5.54-32.19,12.31-1,5.41,27.94,12.31Zm48-6.09-5.28,30.51h7.58l11.7-67.78h-7.58L316.93,571H300.3l5.27-30.51H298l-11.71,67.78h7.58l5.28-30.51ZM343,608.27l10.56-60.94H366l1.22-6.84H334.79l-1.15,6.84h12.52L335.6,608.27Zm62.77-54.52-9.4,54.52h7.17l11.7-67.78H404.73L384.64,594.6l-1.76-54.11H372.33l-11.77,67.78h6.56l9.41-54,1.89,54h7.24Zm32.4,54.52,1.22-6.9H420.08l10.49-60.88h-7.51l-11.77,67.78Zm24-18.87,32.13-12.31.95-5.41-27.87-12.31-.95,5.54,21.31,9.47-24.62,9.47Z" transform="translate(-130.46 -133.72)"/><path class="cls-6" d="M640.31,680.71l-17-7.51,19.28-7.51.6-4.32L618,671l-.6,4.33,22.25,9.74Zm23.07-34.29-8,53.56h12.51c8.39,0,13-5,14.21-13.25l4-27c1.28-8.25-1.83-13.32-10.15-13.32Zm-1.22,48.16,6.43-42.75H675c4.33,0,6,2.7,5.28,7.57L676.16,687c-.74,4.87-3.18,7.58-7.51,7.58Zm31.52-48.16-8,53.56h5.95l8.05-53.56Zm10.62,0,2,53.56h8.86l18-53.56h-5.47L712.08,693l-1.76-46.6Zm39.57,38.68L769,675.36l.68-4.33-22.25-9.66-.68,4.32,17,7.51-19.28,7.51Z" transform="translate(-130.46 -133.72)"/></g></svg>