<svg xmlns="http://www.w3.org/2000/svg" viewBox="0 0 456 319.87"><defs><style>.cls-1{isolation:isolate;}.cls-2{fill:#000404;}.cls-3{fill:#d1cce5;}.cls-11,.cls-13,.cls-20,.cls-3,.cls-4,.cls-41,.cls-42,.cls-47,.cls-48,.cls-49,.cls-7,.cls-8{fill-rule:evenodd;}.cls-4{fill:#e2e4e8;}.cls-5{fill:#eeeeef;mix-blend-mode:multiply;}.cls-6{fill:#00a195;}.cls-7{fill:#535671;}.cls-8{fill:#66646d;}.cls-9{fill:#3e3a39;}.cls-10,.cls-11{fill:#fff;}.cls-12{fill:#17acb3;}.cls-13,.cls-21{fill:#e7e5e4;}.cls-14{fill:#55bece;}.cls-15,.cls-20{fill:#fff57f;}.cls-16{fill:#f29e7d;}.cls-17{fill:#f7be7e;}.cls-18{fill:#82ceed;}.cls-19{fill:#c6c7c8;}.cls-22{fill:#c42f41;}.cls-23{fill:#b51d23;}.cls-24{fill:#80191e;}.cls-25{fill:#2d0304;}.cls-26{fill:#f3aca9;}.cls-27{fill:#ed807b;}.cls-28{fill:#e9574e;}.cls-29{fill:#e62c10;}.cls-30{fill:#f9d19e;}.cls-31{fill:#f7b96b;}.cls-32{fill:#f4a236;}.cls-33{fill:#f08d00;}.cls-34{fill:#90d0d0;}.cls-35{fill:#5cbfb9;}.cls-36{fill:#00afaa;}.cls-37{fill:#9cc3e1;}.cls-38{fill:#6ca4d2;}.cls-39{fill:#2985c2;}.cls-40{fill:#0069b4;}.cls-41{fill:#505054;}.cls-42{fill:#b9babc;}.cls-43{fill:#f9c140;}.cls-44{fill:#fbd06d;}.cls-45{fill:#d7a230;}.cls-46{fill:#c6880b;}.cls-47{fill:#ffeec9;}.cls-48{fill:#464442;}.cls-49{fill:#796bae;}.cls-50{fill:#eddfc9;}</style></defs><g class="cls-1"><g id="OBJECTS"><rect class="cls-2" x="78.08" y="105.49" width="295.85" height="206.8" rx="15.74"/><path class="cls-3" d="M67,374.46v3.83c0,8.34,8.76,15.11,19.57,15.11H415.43c10.81,0,19.58-6.77,19.58-15.11v-3.83Z" transform="translate(-25 -79.13)"/><polygon class="cls-4" points="89.64 118.67 89.64 279.19 360.97 279.19 360.97 132.05 89.64 132.05 89.64 118.67"/><rect class="cls-5" x="281.64" y="146.67" width="73.37" height="97.91"/><rect class="cls-6" x="89.64" y="118.67" width="271.34" height="13.38"/><rect class="cls-5" x="106.08" y="118.67" width="166.79" height="152.17"/><path class="cls-7" d="M415.44,399h0ZM86.5,399Zm329,0Zm.12,0Zm.08,0Zm9-2.36h0a19.53,19.53,0,0,1-9,2.36,19.53,19.53,0,0,0,9-2.36Zm.05,0h0l0,0,0,0Zm.09-.05h0l-.08.05.08-.05Zm.06,0h0l0,0,0,0Zm.06,0h0l0,0,0,0Zm.08,0Zm.06,0Z" transform="translate(-25 -79.13)"/><path class="cls-8" d="M433.13,384.75H68.89c3.13,5.09,9.83,8.62,17.61,8.65H415.76a24.39,24.39,0,0,0,9-1.82h0l0,0h0l.08,0h0l0,0h0l0,0,.06,0h0l.06,0h0A17.5,17.5,0,0,0,433.13,384.75Z" transform="translate(-25 -79.13)"/><rect class="cls-9" x="277.47" y="143.86" width="73.75" height="96.76"/><rect class="cls-10" x="284.79" y="153.94" width="18.47" height="1.16"/><rect class="cls-10" x="284.79" y="156.8" width="9.76" height="1.16"/><rect class="cls-10" x="284.79" y="159.65" width="15.74" height="1.16"/><rect class="cls-10" x="292.11" y="165.36" width="9.18" height="1.16"/><rect class="cls-10" x="298.48" y="168.22" width="8.93" height="1.16"/><rect class="cls-10" x="297.83" y="156.8" width="16.64" height="1.16"/><rect class="cls-10" x="316.84" y="156.8" width="7.95" height="1.16"/><rect class="cls-10" x="327.81" y="156.8" width="10.73" height="1.16"/><rect class="cls-10" x="303.16" y="159.65" width="9.36" height="1.16"/><polygon class="cls-11" points="301.29 162.51 299.57 162.51 292.11 162.51 292.11 163.67 299.57 163.67 301.29 163.67 309.46 163.67 309.46 162.51 301.29 162.51"/><rect class="cls-10" x="304.1" y="165.36" width="9.18" height="1.16"/><rect class="cls-10" x="312.01" y="162.51" width="10.21" height="1.16"/><rect class="cls-10" x="324.25" y="162.51" width="5.35" height="1.16"/><rect class="cls-10" x="331.91" y="162.51" width="6.63" height="1.16"/><rect class="cls-10" x="315.32" y="165.36" width="11.6" height="1.16"/><rect class="cls-10" x="328.65" y="165.36" width="3.47" height="1.16"/><rect class="cls-10" x="309.97" y="168.22" width="6.64" height="1.16"/><rect class="cls-10" x="292.11" y="173.94" width="9.18" height="1.16"/><rect class="cls-10" x="292.11" y="176.79" width="9.18" height="1.16"/><rect class="cls-10" x="304.1" y="176.79" width="8.27" height="1.16"/><polygon class="cls-11" points="313.3 173.94 312.01 173.94 304.1 173.94 304.1 175.09 312.01 175.09 313.3 175.09 319.86 175.09 319.86 173.94 313.3 173.94"/><rect class="cls-10" x="321.42" y="173.94" width="4.12" height="1.16"/><rect class="cls-10" x="327.32" y="173.94" width="5.1" height="1.16"/><rect class="cls-10" x="320.42" y="176.79" width="9.19" height="1.16"/><rect class="cls-10" x="292.11" y="179.65" width="9.18" height="1.16"/><rect class="cls-10" x="292.11" y="182.51" width="9.18" height="1.16"/><rect class="cls-10" x="304.1" y="179.65" width="5.36" height="1.16"/><rect class="cls-10" x="304.1" y="182.51" width="16.84" height="1.16"/><polygon class="cls-11" points="322.21 179.65 318.05 179.65 312.01 179.65 312.01 180.81 318.05 180.81 322.21 180.81 329.61 180.81 329.61 179.65 322.21 179.65"/><rect class="cls-10" x="331.91" y="179.65" width="6.63" height="1.16"/><rect class="cls-10" x="322.98" y="182.51" width="9.44" height="1.16"/><rect class="cls-10" x="314.21" y="176.79" width="3.91" height="1.16"/><rect class="cls-10" x="284.79" y="188.22" width="9.76" height="1.16"/><rect class="cls-10" x="284.79" y="191.07" width="15.74" height="1.16"/><rect class="cls-10" x="292.11" y="193.93" width="9.18" height="1.16"/><rect class="cls-10" x="292.11" y="196.79" width="9.18" height="1.16"/><polygon class="cls-11" points="311.19 188.22 309.43 188.22 297.83 188.22 297.83 189.38 309.43 189.38 311.19 189.38 314.09 189.38 314.09 188.22 311.19 188.22"/><rect class="cls-10" x="317.11" y="188.22" width="14.83" height="1.16"/><rect class="cls-10" x="303.16" y="191.07" width="9.36" height="1.16"/><rect class="cls-10" x="304.1" y="196.79" width="7.14" height="1.16"/><polygon class="cls-11" points="318.26 193.93 317.11 193.93 304.1 193.93 304.1 195.09 317.11 195.09 318.26 195.09 324.89 195.09 324.89 193.93 318.26 193.93"/><rect class="cls-10" x="313.28" y="196.79" width="13.64" height="1.16"/><rect class="cls-10" x="328.65" y="196.79" width="3.47" height="1.16"/><rect class="cls-10" x="309.97" y="199.65" width="6.64" height="1.16"/><polygon class="cls-11" points="307.42 199.65 305.02 199.65 298.48 199.65 298.48 200.8 305.02 200.8 307.42 200.8 330.44 200.8 330.44 199.65 307.42 199.65"/><rect class="cls-10" x="332.28" y="199.65" width="3.69" height="1.16"/><rect class="cls-10" x="292.11" y="205.36" width="9.18" height="1.16"/><rect class="cls-10" x="292.11" y="208.22" width="9.18" height="1.16"/><rect class="cls-10" x="304.1" y="205.36" width="15.12" height="1.16"/><rect class="cls-10" x="304.1" y="208.22" width="8.27" height="1.16"/><rect class="cls-10" x="321.42" y="205.36" width="4.12" height="1.16"/><rect class="cls-10" x="327.32" y="205.36" width="5.1" height="1.16"/><rect class="cls-10" x="320.42" y="208.22" width="9.19" height="1.16"/><rect class="cls-10" x="314.21" y="208.22" width="3.91" height="1.16"/><rect class="cls-10" x="284.79" y="212.91" width="9.76" height="1.16"/><rect class="cls-10" x="284.79" y="215.76" width="15.74" height="1.16"/><rect class="cls-10" x="292.11" y="218.62" width="9.18" height="1.16"/><rect class="cls-10" x="292.11" y="221.47" width="9.18" height="1.16"/><rect class="cls-10" x="298.48" y="224.33" width="8.93" height="1.16"/><rect class="cls-10" x="297.83" y="212.91" width="9.23" height="1.16"/><polygon class="cls-11" points="319.11 212.91 317.11 212.91 309.43 212.91 309.43 214.06 317.11 214.06 319.11 214.06 338.54 214.06 338.54 212.91 319.11 212.91"/><rect class="cls-10" x="303.16" y="215.76" width="9.36" height="1.16"/><rect class="cls-10" x="304.1" y="221.47" width="7.14" height="1.16"/><polygon class="cls-11" points="318.05 218.62 317.11 218.62 304.1 218.62 304.1 219.78 317.11 219.78 318.05 219.78 324.89 219.78 324.89 218.62 318.05 218.62"/><rect class="cls-10" x="326.93" y="218.62" width="4.73" height="1.16"/><rect class="cls-10" x="333.96" y="218.62" width="4.58" height="1.16"/><rect class="cls-10" x="313.28" y="221.47" width="13.64" height="1.16"/><rect class="cls-10" x="328.65" y="221.47" width="3.47" height="1.16"/><rect class="cls-10" x="309.97" y="224.33" width="6.64" height="1.16"/><rect class="cls-10" x="292.11" y="232.91" width="9.18" height="1.16"/><polygon class="cls-11" points="301.29 230.05 297.98 230.05 292.11 230.05 292.11 231.2 297.98 231.2 301.29 231.2 319.22 231.2 319.22 230.05 301.29 230.05"/><rect class="cls-10" x="304.1" y="232.91" width="8.27" height="1.16"/><rect class="cls-10" x="321.42" y="230.05" width="4.12" height="1.16"/><rect class="cls-10" x="327.32" y="230.05" width="5.1" height="1.16"/><rect class="cls-10" x="320.42" y="232.91" width="9.19" height="1.16"/><rect class="cls-10" x="314.21" y="232.91" width="3.91" height="1.16"/><rect class="cls-12" x="277.47" y="143.86" width="73.75" height="5.75"/><path class="cls-13" d="M372.67,225.5a1.51,1.51,0,0,1-3,0,1.51,1.51,0,1,1,3,0Z" transform="translate(-25 -79.13)"/><path class="cls-13" d="M367.66,225.5a1.51,1.51,0,1,1-1.51-1.51A1.51,1.51,0,0,1,367.66,225.5Z" transform="translate(-25 -79.13)"/><rect class="cls-10" x="100.01" y="72.88" width="168.43" height="194.19"/><rect class="cls-12" x="100.01" y="72.88" width="168.43" height="9.38"/><path class="cls-13" d="M288.73,156.47a2.25,2.25,0,1,1-2.24-2.25A2.24,2.24,0,0,1,288.73,156.47Z" transform="translate(-25 -79.13)"/><path class="cls-13" d="M281.25,156.47a2.25,2.25,0,1,1-2.25-2.25A2.24,2.24,0,0,1,281.25,156.47Z" transform="translate(-25 -79.13)"/><rect class="cls-14" x="100.01" y="99.14" width="168.43" height="10.93"/><rect class="cls-10" x="207.36" y="102.21" width="51.62" height="4.79"/><rect class="cls-15" x="111.47" y="102.99" width="15.1" height="3.23"/><rect class="cls-15" x="127.81" y="102.99" width="15.1" height="3.23"/><rect class="cls-15" x="144.14" y="102.99" width="15.1" height="3.23"/><rect class="cls-15" x="160.48" y="102.99" width="15.1" height="3.23"/><rect class="cls-16" x="133.37" y="126.36" width="30.67" height="24.85"/><path class="cls-11" d="M287.36,181.91a1.2,1.2,0,0,0,0,2.4,1.2,1.2,0,0,0,0-2.4Zm-1.13.09h0a1.64,1.64,0,0,1,2.27,0,1.56,1.56,0,0,1,0,2.22,1.64,1.64,0,0,1-2.27,0A1.54,1.54,0,0,1,286.23,182Z" transform="translate(-25 -79.13)"/><path class="cls-11" d="M288.77,184.83l-.35-.35a1.25,1.25,0,0,0,.19-.15,2.11,2.11,0,0,0,.19-.23l.36.35Z" transform="translate(-25 -79.13)"/><path class="cls-11" d="M290.67,185.86a.33.33,0,0,1,0,.45.33.33,0,0,1-.47,0l-1.4-1.38.46-.45Z" transform="translate(-25 -79.13)"/><path class="cls-11" d="M287.27,184.1a1.15,1.15,0,0,0,.35-.07h0a.12.12,0,0,0,.06-.14.11.11,0,0,0-.14-.06.86.86,0,0,1-.27,0,.54.54,0,0,1-.52-.31.1.1,0,0,0-.14-.06.1.1,0,0,0-.05.14.75.75,0,0,0,.71.45Z" transform="translate(-25 -79.13)"/><rect class="cls-17" x="167.49" y="126.16" width="30.67" height="24.85"/><rect class="cls-18" x="201.6" y="126.03" width="30.67" height="24.85"/><rect class="cls-19" x="113.43" y="235.78" width="43.91" height="2.17"/><rect class="cls-19" x="113.43" y="239.7" width="43.91" height="2.16"/><rect class="cls-19" x="113.43" y="243.62" width="43.91" height="2.17"/><rect class="cls-19" x="113.43" y="247.54" width="43.91" height="2.16"/><rect class="cls-19" x="113.43" y="251.46" width="43.91" height="2.17"/><rect class="cls-19" x="113.43" y="255.39" width="43.91" height="2.17"/><rect class="cls-19" x="113.43" y="259.31" width="43.91" height="2.17"/><rect class="cls-19" x="162.79" y="235.78" width="43.91" height="2.17"/><rect class="cls-19" x="162.79" y="239.7" width="43.91" height="2.16"/><rect class="cls-19" x="162.79" y="243.62" width="43.91" height="2.17"/><rect class="cls-19" x="162.79" y="247.54" width="43.91" height="2.16"/><rect class="cls-19" x="162.79" y="251.46" width="43.91" height="2.17"/><rect class="cls-19" x="162.79" y="255.39" width="43.91" height="2.17"/><rect class="cls-19" x="162.79" y="259.31" width="43.91" height="2.17"/><rect class="cls-19" x="212.45" y="235.78" width="43.91" height="2.17"/><rect class="cls-19" x="212.45" y="239.7" width="43.91" height="2.16"/><rect class="cls-19" x="212.45" y="243.62" width="43.91" height="2.17"/><rect class="cls-19" x="212.45" y="247.54" width="43.91" height="2.16"/><rect class="cls-19" x="212.45" y="251.46" width="43.91" height="2.17"/><rect class="cls-19" x="212.45" y="255.39" width="43.91" height="2.17"/><rect class="cls-19" x="212.45" y="259.31" width="43.91" height="2.17"/><rect class="cls-14" x="100.01" y="167.35" width="168.43" height="52.58"/><rect class="cls-15" x="115.8" y="176.03" width="43.43" height="35.19"/><rect class="cls-10" x="170.43" y="188.39" width="69.49" height="1.16"/><rect class="cls-10" x="170.43" y="191.25" width="69.49" height="1.16"/><rect class="cls-10" x="170.43" y="194.1" width="69.49" height="1.16"/><rect class="cls-10" x="170.43" y="196.96" width="45.78" height="1.16"/><polygon class="cls-20" points="101.94 193.63 104.01 192.44 106.08 191.25 106.08 193.63 106.08 196.02 104.01 194.83 101.94 193.63"/><polygon class="cls-20" points="266.5 193.63 264.43 192.44 262.37 191.25 262.37 193.63 262.37 196.02 264.43 194.83 266.5 193.63"/><rect class="cls-16" x="113.43" y="222.4" width="43.91" height="11.37"/><rect class="cls-18" x="162.79" y="222.87" width="43.91" height="11.37"/><rect class="cls-17" x="212.45" y="222.99" width="43.91" height="11.37"/><rect class="cls-21" x="404.67" y="278.16" width="16.94" height="72.65" transform="translate(-130.25 206.18) rotate(-34.06)"/><rect class="cls-22" x="417.01" y="323.8" width="15.01" height="15.01" transform="translate(-137.71 215.25) rotate(-34.04)"/><rect class="cls-23" x="408.04" y="310.53" width="15.01" height="15.01" transform="translate(-131.83 208.07) rotate(-34.05)"/><rect class="cls-24" x="399.07" y="297.26" width="15.01" height="15.01" transform="translate(-125.94 200.89) rotate(-34.06)"/><rect class="cls-25" x="390.1" y="283.98" width="15.01" height="15.01" transform="translate(-120.04 193.49) rotate(-34.05)"/><rect class="cls-21" x="414.35" y="273.96" width="16.94" height="72.65" transform="translate(-92.22 44.29) rotate(-15.4)"/><rect class="cls-26" x="420.71" y="322.36" width="15.01" height="15.01" transform="translate(-97.23 46.44) rotate(-15.4)"/><rect class="cls-27" x="416.45" y="306.91" width="15.01" height="15.01" transform="translate(-93.3 44.8) rotate(-15.41)"/><rect class="cls-28" x="412.2" y="291.47" width="15.01" height="15.01" transform="translate(-89.33 43.07) rotate(-15.4)"/><rect class="cls-29" x="407.94" y="276.02" width="15.01" height="15.01" transform="matrix(0.96, -0.27, 0.27, 0.96, -85.39, 41.4)"/><rect class="cls-21" x="396.09" y="300.75" width="72.65" height="16.95" transform="translate(82.7 651.01) rotate(-87.92)"/><rect class="cls-30" x="424.18" y="322.01" width="15.01" height="15.01" transform="translate(61.86 669.94) rotate(-87.94)"/><rect class="cls-31" x="424.75" y="306" width="15.01" height="15.01" transform="translate(78.41 655.09) rotate(-87.94)"/><rect class="cls-32" x="425.33" y="289.99" width="15.01" height="15.01" transform="translate(94.91 640.18) rotate(-87.93)"/><rect class="cls-33" x="425.91" y="273.98" width="15.01" height="15.01" transform="translate(111.51 625.36) rotate(-87.94)"/><rect class="cls-21" x="405.05" y="302.41" width="72.66" height="16.94" transform="translate(-15.26 556.02) rotate(-72.07)"/><rect class="cls-34" x="427.62" y="322.7" width="15.01" height="15.01" transform="translate(-38.03 563.36) rotate(-72.06)"/><rect class="cls-35" x="432.56" y="307.45" width="15.01" height="15.01" transform="translate(-20.12 557.5) rotate(-72.06)"/><rect class="cls-36" x="437.49" y="292.21" width="15.01" height="15.01" transform="translate(-2.12 551.75) rotate(-72.08)"/><rect class="cls-6" x="442.42" y="276.97" width="15.01" height="15.01" transform="translate(15.73 545.8) rotate(-72.06)"/><rect class="cls-21" x="413.05" y="306.38" width="72.65" height="16.94" transform="translate(-89.67 427.62) rotate(-55.49)"/><rect class="cls-37" x="430.36" y="324.07" width="15.01" height="15.01" transform="matrix(0.57, -0.82, 0.82, 0.57, -108.48, 425.29)"/><rect class="cls-38" x="439.44" y="310.87" width="15.01" height="15.01" transform="translate(-93.66 427.06) rotate(-55.48)"/><rect class="cls-39" x="448.53" y="297.68" width="15.01" height="15.01" transform="translate(-78.82 428.9) rotate(-55.49)"/><rect class="cls-40" x="457.6" y="284.48" width="15.01" height="15.01" transform="translate(-64.04 430.59) rotate(-55.48)"/><path class="cls-41" d="M430.92,339.21a1.48,1.48,0,1,1-1.42,1.54A1.48,1.48,0,0,1,430.92,339.21Z" transform="translate(-25 -79.13)"/><path class="cls-42" d="M431,340.05a.61.61,0,0,1,.64.59l.53,12.76a.62.62,0,0,1-.59.64.62.62,0,0,1-.64-.59l-.53-12.76A.62.62,0,0,1,431,340.05Z" transform="translate(-25 -79.13)"/><rect class="cls-43" x="39.14" y="298.04" width="97.67" height="18.41" transform="translate(-146.73 -13.05) rotate(-25.03)"/><rect class="cls-44" x="42.15" y="311.6" width="97.67" height="4.19" transform="translate(-149.16 -11.19) rotate(-25.03)"/><rect class="cls-45" x="37.2" y="298.47" width="97.67" height="9.21" transform="translate(-145.16 -14.26) rotate(-25.03)"/><rect class="cls-46" x="36.22" y="298.69" width="97.67" height="4.6" transform="translate(-144.38 -14.86) rotate(-25.04)"/><polygon class="cls-47" points="128.31 197.6 111.12 215.79 103.33 199.1 128.31 197.6"/><polygon class="cls-48" points="128.31 197.6 122.59 203.65 120 198.1 128.31 197.6"/><path class="cls-49" d="M25.86,336.16l.08.17a9.11,9.11,0,0,0,12.11,4.4l3.63-1.7-7.79-16.68-3.63,1.7A9.11,9.11,0,0,0,25.86,336.16Z" transform="translate(-25 -79.13)"/><rect class="cls-50" x="37.48" y="320.1" width="6.56" height="18.41" transform="translate(-160.52 -30.95) rotate(-25.03)"/><path class="cls-11" d="M257.37,125.5l-10.19-.18a.71.71,0,0,0-.78.62v.42a.71.71,0,0,0,.76.64l10.19.18a.7.7,0,0,0,.77-.62v-.42A.69.69,0,0,0,257.37,125.5Z" transform="translate(-25 -79.13)"/><path class="cls-11" d="M257.34,127.4l-10.2-.17a.7.7,0,0,0-.77.62v.42a.69.69,0,0,0,.75.64l10.2.18a.7.7,0,0,0,.77-.62v-.42A.71.71,0,0,0,257.34,127.4Z" transform="translate(-25 -79.13)"/><path class="cls-11" d="M257.3,129.31l-10.19-.18a.72.72,0,0,0-.78.63v.42a.7.7,0,0,0,.75.64l10.19.18a.72.72,0,0,0,.78-.62V130A.72.72,0,0,0,257.3,129.31Z" transform="translate(-25 -79.13)"/><path class="cls-11" d="M248.35,131.06l7.64.14c0,1.26-2.07,2.07-3.85,2S248.33,132.33,248.35,131.06Z" transform="translate(-25 -79.13)"/><path class="cls-11" d="M250.67,115.21c-.84-.15-1.44-1.16-1.08-2.5.1-.36.39-.54.63-.22a2.78,2.78,0,0,1,.41,1.54c0,.39,0,.78,0,1.17h0Zm1.55-.71h0a1.47,1.47,0,0,1-.4-.34,1.57,1.57,0,0,1,.68-2.08c.18-.07.62-.14.66.13a2.54,2.54,0,0,1-.39,1.45,4.36,4.36,0,0,1-.55.84h0Zm2.16.23h0a4.64,4.64,0,0,1,.51-1.78,1.67,1.67,0,0,1,1.21-.86c.14,0,.35,0,.35.15a1.41,1.41,0,0,1-.07.5,3.27,3.27,0,0,1-.52,1.08,2.28,2.28,0,0,1-1.47.92h0Zm-.32.57h0a20.06,20.06,0,0,0,.07,2.06,35,35,0,0,0,.51,3.7c.05.27.1.53.16.8.15.71.3,1.44.51,2.14h.22a26.24,26.24,0,0,1-.59-2.66c0-.11-.05-.23-.07-.35a28.89,28.89,0,0,1-.51-4.29c0-.44,0-.93,0-1.42h0a2.34,2.34,0,0,0,1.07-.35,3.11,3.11,0,0,0,1.22-1.74c.14-.48.18-1.22-.29-1.5s-1,.06-1.38.39a2.56,2.56,0,0,0-.63,1.22,7.4,7.4,0,0,0-.26,1.48H254a4.1,4.1,0,0,1-1.34-.11h0a3.77,3.77,0,0,0,.78-1.81c0-.49-.09-1.14-.59-1.3a1.16,1.16,0,0,0-1.27.74,2.12,2.12,0,0,0,.09,2.06,1.78,1.78,0,0,0,.32.35h0a1.77,1.77,0,0,1-1,.49h0a6.57,6.57,0,0,0-.35-2.48c-.12-.28-.54-1.15-1-.88s-.37,1.58-.27,2a2.31,2.31,0,0,0,1.08,1.7l.23.07h0a20.18,20.18,0,0,1-.16,2.06c-.21,1.57-.55,3.12-.85,4.68q-.15.73-.27,1.47h.34c.09-.53.19-1.06.3-1.58.24-1.22.5-2.44.67-3.66a22.47,22.47,0,0,0,.27-2.94h0a1.8,1.8,0,0,0,1.14-.43c.1-.09.21-.19.31-.3h0a2.76,2.76,0,0,0,1,.27,4.14,4.14,0,0,0,.62,0h0Z" transform="translate(-25 -79.13)"/><path class="cls-11" d="M253.32,88a13.74,13.74,0,0,0-14,13.5,14.09,14.09,0,0,0,1.72,6.89c3.26,6.13,4.09,9.56,4.59,12.87.41,2.77,1,3.43,3.13,3.47l3.89.06,3.9.07c2.09,0,2.74-.6,3.25-3.35.61-3.3,1.56-6.7,5-12.71a14.25,14.25,0,0,0,1.95-6.83,13.75,13.75,0,0,0-13.5-14Zm10.47,20.18h0c-3.38,5.85-4.49,9.35-5.18,13.1a5.33,5.33,0,0,1-.69,2.08c-.14.14-.4.28-1.32.26l-3.89-.06-3.9-.07c-.92,0-1.17-.16-1.3-.3a5.32,5.32,0,0,1-.63-2.11c-.56-3.77-1.54-7.31-4.72-13.27a12.76,12.76,0,0,1-1.57-6.29,12.5,12.5,0,0,1,25,.43A12.81,12.81,0,0,1,263.79,108.19Z" transform="translate(-25 -79.13)"/><path class="cls-11" d="M245.85,97.87c-.54.43-3.08,2.77-.47,7a.64.64,0,0,1-.21.88.61.61,0,0,1-.34.1.63.63,0,0,1-.54-.31c-3.18-5.17.08-8.14.76-8.69a.64.64,0,0,1,.9.11A.63.63,0,0,1,245.85,97.87Z" transform="translate(-25 -79.13)"/><path class="cls-11" d="M274.35,100.71a1.08,1.08,0,0,0-.75-.33l-4.5-.08a1.06,1.06,0,0,0-.75.31,1,1,0,0,0-.33.74,1.1,1.1,0,0,0,.3.76,1.12,1.12,0,0,0,.75.33l4.49.07a1.06,1.06,0,0,0,1.08-1A1,1,0,0,0,274.35,100.71Z" transform="translate(-25 -79.13)"/><path class="cls-11" d="M267.75,94.91a1,1,0,0,0,.54-.14l3.92-2.19a.89.89,0,0,0,.22-.16h0a1.06,1.06,0,0,0,.19-1.29,1,1,0,0,0-.64-.5,1,1,0,0,0-.81.09l-3.92,2.19a1.18,1.18,0,0,0-.22.17,1,1,0,0,0-.19,1.28A1.1,1.1,0,0,0,267.75,94.91Z" transform="translate(-25 -79.13)"/><path class="cls-11" d="M264.83,82.35a1,1,0,0,0-1.28.15,1,1,0,0,0-.18.22l-2.3,3.87a1.07,1.07,0,0,0,.37,1.46,1.2,1.2,0,0,0,.53.15,1.12,1.12,0,0,0,.76-.3.91.91,0,0,0,.17-.23l2.3-3.86A1.07,1.07,0,0,0,264.83,82.35Z" transform="translate(-25 -79.13)"/><path class="cls-11" d="M233.39,91.47l3.84,2.33a1.12,1.12,0,0,0,.54.15,1,1,0,0,0,.75-.3.68.68,0,0,0,.17-.21,1.07,1.07,0,0,0-.36-1.47l-3.84-2.32a1,1,0,0,0-1.29.15A.68.68,0,0,0,233,90,1.05,1.05,0,0,0,233.39,91.47Z" transform="translate(-25 -79.13)"/><path class="cls-11" d="M271.91,109.84l-3.84-2.32a1.05,1.05,0,0,0-1.29.14.87.87,0,0,0-.17.22,1.06,1.06,0,0,0,.35,1.46l3.85,2.33a1.07,1.07,0,0,0,1.29-.15.62.62,0,0,0,.17-.22A1.07,1.07,0,0,0,271.91,109.84Z" transform="translate(-25 -79.13)"/><path class="cls-11" d="M237.81,107.32a1,1,0,0,0-.81.1l-3.93,2.19a.87.87,0,0,0-.22.17,1.08,1.08,0,0,0-.19,1.28,1.05,1.05,0,0,0,1.45.41l3.92-2.19a.72.72,0,0,0,.22-.17,1,1,0,0,0,.19-1.28A1,1,0,0,0,237.81,107.32Z" transform="translate(-25 -79.13)"/><path class="cls-11" d="M242.56,81.92a1.05,1.05,0,0,0-1.44-.42,1.24,1.24,0,0,0-.23.17,1.06,1.06,0,0,0-.19,1.27l2.16,4a1.07,1.07,0,0,0,.91.55,1.13,1.13,0,0,0,.54-.13.72.72,0,0,0,.22-.17,1.06,1.06,0,0,0,.19-1.28Z" transform="translate(-25 -79.13)"/><path class="cls-11" d="M253.2,79.13a1,1,0,0,0-.76.3,1.09,1.09,0,0,0-.32.75L252,84.67a1.07,1.07,0,0,0,1.05,1.09,1.09,1.09,0,0,0,.76-.3,1.07,1.07,0,0,0,.32-.75l.08-4.5A1.07,1.07,0,0,0,253.2,79.13Z" transform="translate(-25 -79.13)"/><path class="cls-11" d="M237.84,101.58a1.05,1.05,0,0,0,0-1.5,1.1,1.1,0,0,0-.75-.33l-4.49-.08a1.14,1.14,0,0,0-.76.3,1.07,1.07,0,0,0-.32.75,1.05,1.05,0,0,0,1,1.08l4.5.08A1,1,0,0,0,237.84,101.58Z" transform="translate(-25 -79.13)"/><path class="cls-11" d="M325.9,116.37a10.81,10.81,0,0,0-6.51,4.94,11.09,11.09,0,0,0-1.62,6.71,29.06,29.06,0,0,1-2.43,12.92,1.51,1.51,0,0,0-1.41.73,1.52,1.52,0,0,0,.51,2.11,1.57,1.57,0,0,0,1.19.17l8.81-14.49a2.47,2.47,0,1,1,1.17.75l-8.78,14.44a1.54,1.54,0,0,0,.71,1,1.53,1.53,0,0,0,2.09-2.11c4.82-5.8,8.74-7.1,11-8.49a11.12,11.12,0,0,0,4.48-4.18,10.88,10.88,0,0,0,1.4-8l3.07-4s1.37-1.21-.09-2.09l-9.15-5.56a1.54,1.54,0,0,0-2.45.94Z" transform="translate(-25 -79.13)"/><path class="cls-11" d="M338.59,116.32a.91.91,0,0,1-1.25.3l-6.07-3.69a.9.9,0,0,1-.31-1.24l2.75-4.52a.9.9,0,0,1,1.24-.3l6.07,3.69a.9.9,0,0,1,.31,1.24Z" transform="translate(-25 -79.13)"/><path class="cls-11" d="M111.1,138.89,58.81,185.2l-9.16-10.34,52.29-46.31,9.16,10.34Zm-53,40.91h0l-.5.44,2.84,3.21.5-.44-2.84-3.21ZM106,137.34h0l-.49.44,2.84,3.21.49-.44L106,137.34Zm.17,2.61h0l-.49.44,1.47,1.66.49-.44L106.16,140ZM105,141h0l-.5.44,1.47,1.66.5-.44L105,141Zm-1.2,1.06h0l-.5.44,1.47,1.66.5-.44-1.47-1.66Zm-1.2,1.06h0l-.5.44,1.47,1.66.5-.44-1.47-1.66Zm-2.57-.48h0l-.5.44,2.84,3.21.5-.45-2.84-3.2Zm.17,2.6h0l-.5.45,1.48,1.66.49-.44-1.47-1.67ZM99,146.32h0l-.5.44,1.48,1.66.49-.44L99,146.32Zm-1.2,1.06h0l-.49.44,1.47,1.66.49-.44-1.47-1.66Zm-1.2,1.06h0l-.49.44,1.47,1.66.5-.44-1.48-1.66ZM94,148h0l-.5.44,2.84,3.21.5-.44L94,148Zm.17,2.61h0l-.5.44,1.47,1.67.5-.45-1.47-1.66ZM93,151.62h0l-.5.44L94,153.73l.5-.44L93,151.62Zm-1.2,1.07h0l-.5.44,1.48,1.66.49-.44-1.47-1.66Zm-1.2,1.06h0l-.5.44,1.48,1.66.49-.44-1.47-1.66ZM88,153.26h0l-.5.44,2.85,3.21.49-.44L88,153.26Zm.17,2.61h0l-.49.44L89.16,158l.49-.44-1.47-1.66ZM87,156.93h0l-.49.44L88,159l.49-.44L87,156.93ZM85.79,158h0l-.5.44,1.47,1.67.5-.44L85.79,158Zm-1.2,1.07h0l-.5.44,1.47,1.66.5-.44-1.47-1.66ZM82,158.57h0l-.5.44,2.84,3.21.5-.44L82,158.57Zm.17,2.61h0l-.5.44,1.48,1.66.49-.44-1.47-1.66ZM81,162.24h0l-.5.44L82,164.34l.49-.44L81,162.24Zm-1.2,1.06h0l-.49.44,1.47,1.66.49-.44-1.47-1.66Zm-1.2,1.06h0l-.49.44,1.47,1.67.5-.45-1.48-1.66ZM76,163.88h0l-.5.44,2.84,3.21.5-.44L76,163.88Zm.17,2.61h0l-.5.44,1.47,1.66.5-.44-1.47-1.66ZM75,167.55h0l-.5.44L76,169.65l.5-.44L75,167.55Zm-1.2,1.06h0l-.5.44,1.47,1.66.5-.44-1.47-1.66Zm-1.2,1.06h0l-.5.44,1.48,1.66.49-.44-1.47-1.66ZM70,169.19h0l-.49.44,2.84,3.2.49-.44L70,169.19Zm.17,2.6h0l-.49.44,1.47,1.66.49-.43-1.47-1.67ZM69,172.86h0l-.5.43L70,175l.5-.44L69,172.86Zm-1.2,1.06h0l-.5.44L68.78,176l.5-.44-1.47-1.66ZM66.61,175h0l-.5.44,1.47,1.66.5-.44L66.61,175ZM64,174.49h0l-.5.44,2.84,3.21.5-.44L64,174.49Zm.17,2.61h0l-.5.44,1.48,1.66.49-.44-1.47-1.66ZM63,178.16h0l-.5.44L64,180.26l.49-.43L63,178.16Zm-1.2,1.06h0l-.5.44,1.48,1.67.49-.44-1.47-1.67Zm-1.2,1.07h0l-.49.44,1.47,1.66.5-.44Z" transform="translate(-25 -79.13)"/><path class="cls-11" d="M157.28,116.5a13.28,13.28,0,1,1,15,11.42,13.33,13.33,0,0,1-15-11.42Zm-8.78-16.18h0a.51.51,0,0,0-.42.55l.23,1.63-1.95.27a1.4,1.4,0,0,0-1.17,1.55L149,131.6a1.33,1.33,0,0,0,1.53,1.08l44.12-6.09a1.25,1.25,0,0,0,1.1-1.44l-3.77-27.28a1.33,1.33,0,0,0-1.45-1.19l-2.8.39L187.53,96a.84.84,0,0,0-.93-.71l-5.43.75a.82.82,0,0,0-.7.93l.15,1.09-25.7,3.55-.23-1.63a.49.49,0,0,0-.55-.42l-5.64.78Zm39.09,2.12h0a.82.82,0,0,0,.7-.93l-.1-.73a.75.75,0,0,0-.92-.61l-5.42.75a.74.74,0,0,0-.71.84l.1.72a.81.81,0,0,0,.92.71Z" transform="translate(-25 -79.13)"/><path class="cls-11" d="M168.65,102.74a12.21,12.21,0,1,0,13.68,10.39,12.17,12.17,0,0,0-13.68-10.39ZM161.71,116h0a8.68,8.68,0,1,1,17.2-2.37,8.68,8.68,0,1,1-17.2,2.37Z" transform="translate(-25 -79.13)"/><path class="cls-11" d="M169.19,107.07a7.85,7.85,0,1,1-6.7,8.85,7.85,7.85,0,0,1,6.7-8.85Zm.42,3h0a4.81,4.81,0,1,0,5.42,4.11A4.82,4.82,0,0,0,169.61,110.08Z" transform="translate(-25 -79.13)"/><path class="cls-11" d="M379.65,147.08c2.09-.07,4,.84,4.42,2.14s-1,2.53-3.28,2.63-4.34-1-4.56-2.32,1.33-2.38,3.42-2.45Zm26.42-2.56h0a25.21,25.21,0,0,0-10.19-7.66,31.17,31.17,0,0,0-12.08-2.65c-5,0-10.62,1.64-6.29,4.38,2.26,1.43,3.75,2.18,3.18,3.78s-2.66,1.62-5.29.23c-5.34-2.83-7.92,1-6.14,6.29,2.18,6.53,11,15.81,26.73,14.49,6.7-.57,11-3.6,12.55-7.58,1.31-3.46.24-7.75-2.47-11.28Zm-17.51,7.81h0c2.34-.11,4.68.92,5.34,2.44s-.75,3-3.3,3.19-5.1-1.1-5.56-2.68,1.17-2.83,3.52-2.95Zm-.2-13.4h0c.45.92-.64,1.74-2.5,1.77s-3.67-.78-4-1.72.88-1.64,2.62-1.64,3.44.67,3.88,1.59Zm8.06,7.37h0c-.62-1.12.23-2,1.83-2a5.23,5.23,0,0,1,4.15,1.83c.73,1.09,0,2.1-1.68,2.17a5.18,5.18,0,0,1-4.3-2Zm1.33,4h0a5.42,5.42,0,0,1,4.62,2.1c.77,1.29-.1,2.52-2.06,2.64s-4.16-1-4.8-2.29S395.93,150.36,397.75,150.28Z" transform="translate(-25 -79.13)"/><path class="cls-11" d="M421.87,126c-.35,1-6.59,28.54-8.16,35.46l.33-.07a5.28,5.28,0,0,1,4.18.94c1.17-7,5.81-34.81,5.88-35.89C424.23,124.37,422.52,124,421.87,126Z" transform="translate(-25 -79.13)"/><path class="cls-11" d="M410.79,166.13c-.46,3.16,1.4,5.37-1.66,8.79,4.11-1.49,9.71-4.72,9.65-9.7C418.74,161.46,411.61,160.52,410.79,166.13Z" transform="translate(-25 -79.13)"/><path class="cls-11" d="M49.33,209.52a6,6,0,0,0-5.95,5.95v20.6A6,6,0,0,0,49.33,242H78.41a6,6,0,0,0,6-5.94v-20.6a6,6,0,0,0-6-5.95ZM78.41,244.3H49.33a8.25,8.25,0,0,1-8.24-8.23v-20.6a8.25,8.25,0,0,1,8.24-8.24H78.41a8.25,8.25,0,0,1,8.24,8.24v20.6A8.25,8.25,0,0,1,78.41,244.3Z" transform="translate(-25 -79.13)"/><polygon class="cls-11" points="30.56 154.45 30.56 138.82 51.12 146.64 30.56 154.45"/><path class="cls-11" d="M431.88,210a6.35,6.35,0,0,1,9.7,4.68,6.26,6.26,0,0,1-2.9,6,6.33,6.33,0,0,1-6.8-10.68Zm-15,8.72,1.89,5.41,5.62-2a12.88,12.88,0,0,0,2.84,3.17l-2.59,5.38,5.17,2.49,2.59-5.37a12.85,12.85,0,0,0,4.25.24l2,5.63,5.42-1.89-2-5.63a12.5,12.5,0,0,0,3.17-2.84l5.37,2.59,2.5-5.16-5.38-2.59a12.65,12.65,0,0,0,.25-4.26l5.63-2-1.89-5.42-5.63,2a12.73,12.73,0,0,0-2.84-3.18l2.59-5.37-5.16-2.49-2.6,5.37a12.58,12.58,0,0,0-4.25-.25l-2-5.63-5.42,1.9,2,5.63a12.52,12.52,0,0,0-3.18,2.83l-5.37-2.59-2.49,5.17,5.37,2.59a12.59,12.59,0,0,0-.25,4.25Z" transform="translate(-25 -79.13)"/><path class="cls-11" d="M463.7,206.14a5,5,0,1,1-2.31,4.77,5,5,0,0,1,2.31-4.77Zm-11.9,6.92,1.5,4.31,4.48-1.56a10.07,10.07,0,0,0,2.25,2.52L458,222.6l4.11,2,2.06-4.27a10.05,10.05,0,0,0,3.38.2l1.56,4.47,4.3-1.5L471.82,219a10.15,10.15,0,0,0,2.53-2.26l4.27,2.06,2-4.11-4.27-2.06a10.05,10.05,0,0,0,.19-3.38L481,207.7l-1.51-4.3L475,205a10,10,0,0,0-2.26-2.53l2.07-4.27-4.11-2-2.06,4.27a10.05,10.05,0,0,0-3.38-.19l-1.56-4.48-4.31,1.51,1.56,4.47a9.92,9.92,0,0,0-2.52,2.26L454.18,202l-2,4.1,4.27,2.06a10.35,10.35,0,0,0-.2,3.38Z" transform="translate(-25 -79.13)"/></g></g></svg>