<svg id="OBJECTS" xmlns="http://www.w3.org/2000/svg" viewBox="0 0 471.32 426.53"><defs><style>.cls-1{fill:#e7b3a2;}.cls-1,.cls-10,.cls-11,.cls-12,.cls-13,.cls-14,.cls-15,.cls-16,.cls-17,.cls-18,.cls-19,.cls-2,.cls-20,.cls-21,.cls-22,.cls-23,.cls-25,.cls-26,.cls-27,.cls-29,.cls-3,.cls-30,.cls-4,.cls-5,.cls-6,.cls-7,.cls-8,.cls-9{fill-rule:evenodd;}.cls-2{fill:#d5907a;}.cls-3{fill:#cf8577;}.cls-4{fill:#eac67e;}.cls-5{fill:#eec696;}.cls-6{fill:#54514f;}.cls-7{fill:none;stroke:#cf8577;stroke-linecap:round;stroke-linejoin:round;stroke-width:0.83px;}.cls-8{fill:#e2e8f5;}.cls-9{fill:#93b0db;}.cls-10{fill:#845743;}.cls-11{fill:#bd8453;}.cls-12{fill:#302b5c;}.cls-13{fill:#1b153f;}.cls-14{fill:#cf4a4c;}.cls-15{fill:#bc2b2c;}.cls-16{fill:#fff;}.cls-17{fill:#d7766d;}.cls-18{fill:#f3d9c7;}.cls-19{fill:#7488b4;}.cls-20{fill:#aaceac;}.cls-21{fill:#81a483;}.cls-22,.cls-24{fill:#df9f84;}.cls-23{fill:#cb6459;}.cls-25{fill:#cbdef3;}.cls-26{fill:#dfeffb;}.cls-27{fill:#c4e1f7;}.cls-28,.cls-29{fill:#141939;}.cls-30{fill:#313e7e;}</style></defs><path class="cls-1" d="M58.6,190.55c-3.36-13.63-.9-21,.22-25.26s7.94-5.25,9.95-5.47,5.92,8,6.59,11,.34,7.82-2,8.49-1.79-1.34-1.79-1.34a26.94,26.94,0,0,0-1.23,4.36c-.22,1.68-2.68,2.57-2.68,2.57s-.67,7.26-.78,7.94S58.6,190.55,58.6,190.55Z" transform="translate(-14.34 -36.74)"/><path class="cls-2" d="M75.05,169.71a10.34,10.34,0,0,1,.31,1.06c.68,2.9.34,7.82-2,8.49s-1.79-1.34-1.79-1.34a26.94,26.94,0,0,0-1.23,4.36c-.22,1.68-2.68,2.57-2.68,2.57s-.33,3.6-.57,6c-5,.29-2.33-3.59-2.33-4s.48-4,2-4.22,2.48-2.23,3.21-5.5,1.85-3.21,2.29-1.48.85,2,1.83.69C74.8,175.37,75.32,172.19,75.05,169.71Z" transform="translate(-14.34 -36.74)"/><path class="cls-3" d="M182.65,163.35l1.08.43-.54-6.41a2.34,2.34,0,0,0-1-2,20.2,20.2,0,0,0-3.47-1.51,3.38,3.38,0,0,0-1.88,0c-1.05.29-4,1.26-4,1.26a.9.9,0,0,0-.51,1c.14.79,1.33,1.69,4.77.73l2.18.65-.1,1.34Z" transform="translate(-14.34 -36.74)"/><path class="cls-4" d="M191,142.22h0l-22.75,21.89a.84.84,0,0,0,0,1.19l.79.83a.85.85,0,0,0,1.19,0l22.79-21.93h0l.55-.53a20.41,20.41,0,0,0,1.52-3.08s.08-.23,0-.33-.33,0-.33,0a20.51,20.51,0,0,0-3.14,1.39Z" transform="translate(-14.34 -36.74)"/><path class="cls-5" d="M193.34,143.88l.16-.16a20.41,20.41,0,0,0,1.52-3.08s.08-.23,0-.33-.33,0-.33,0a20.51,20.51,0,0,0-3.14,1.39l-.16.16a3.73,3.73,0,0,0,.79,1.2A3.82,3.82,0,0,0,193.34,143.88Z" transform="translate(-14.34 -36.74)"/><path class="cls-6" d="M194.7,141.38l.32-.74s.08-.23,0-.33-.33,0-.33,0l-.75.29a4.56,4.56,0,0,0,.36.43A4.72,4.72,0,0,0,194.7,141.38Z" transform="translate(-14.34 -36.74)"/><path class="cls-1" d="M171.83,162.5s-.16-1.91.8-2.5,4.86-2.19,4.86-2.19a2.49,2.49,0,0,1,2.51,1c1,1.34,4.52,6.08,4.52,6.08a2.9,2.9,0,0,1,0,2.65,5.78,5.78,0,0,1,.32,2.87c-1.4,5.22-.26,26.59-6.67,23.19l-6.47-3.44s3.06-8.78,2.68-10.26-3.89-5.08-3.77-7,.84-6.92.84-6.92a8.56,8.56,0,0,0-1.3.56,9.94,9.94,0,0,1-1.53.9c-.44.1-1.55-.4-1.58-.87s.61-1,1.85-2.07S170.76,162.57,171.83,162.5Z" transform="translate(-14.34 -36.74)"/><path class="cls-7" d="M171.83,162.5l5.67-1a1.4,1.4,0,0,1,1.26.43c.55.59,5.72,5.54,5.72,5.54M179.61,173a4,4,0,0,1-1.74-4.82l-1.45-.1c-.33,0-4.22,1.81-3.79-1.34.07-.57,1-1,2.19-1.5m-3.42.67,2.77-.55s2.81-.57,3.42-.26,4.69,3.16,4.69,3.16" transform="translate(-14.34 -36.74)"/><path class="cls-8" d="M147.31,175.9s4.9,3.17,7.76,11.37S168,225.81,168,225.81l-6.36,10.79H148.11Z" transform="translate(-14.34 -36.74)"/><path class="cls-9" d="M196.59,329l13.59,106.46c.32,1.64,5.06,27.73-23.36,27.78H146.69c-28.51,0-23.76-26.14-23.44-27.78L136.84,329h5.46L128.61,436.28l0,.2c0,.06-4.57,21.35,18.12,21.35h40.06c22.68,0,18.12-21.29,18.11-21.35l0-.2L191.13,329Z" transform="translate(-14.34 -36.74)"/><path class="cls-9" d="M127.82,329l13.59,106.46c.33,1.64,5.06,27.73-23.35,27.78H77.92c-28.51,0-23.76-26.14-23.44-27.78L68.07,329h5.46L59.84,436.28l0,.2c0,.06-4.57,21.35,18.12,21.35H118c22.69,0,18.13-21.29,18.12-21.35l0-.2L122.36,329Z" transform="translate(-14.34 -36.74)"/><path class="cls-10" d="M200.05,337.38a6.17,6.17,0,0,0,0-12.34c-12.08,0-37.89.8-43.25-2.76-4-2.64-6.82-8.42-6.82-20.46V215a6.17,6.17,0,0,0-6.17-6.17H64.87V311.57L80,329.2h18.1v-2.66a23.58,23.58,0,0,0,6.19,6c7.12,4.73,15.31,4.84,22.54,4.84Z" transform="translate(-14.34 -36.74)"/><path class="cls-11" d="M141.76,337.38a6.17,6.17,0,1,0,0-12.34H93.6c-5.49,0-11.68-.06-15.74-2.76S71,313.86,71,301.82V215a6.17,6.17,0,0,0-12.34,0v86.84c0,17,5.16,25.94,12.36,30.72s15.3,4.84,22.54,4.84Z" transform="translate(-14.34 -36.74)"/><path class="cls-12" d="M165,286.32c38.78,8.81,64.42,1.24,69.76,44.63,4.07,33,8.34,110.49,8.34,110.49s-1.16,6.62-1.82,6.75S226.69,447,226.69,447s-16.58-91.78-20.51-102.79-2.91-19.16-15-19.16H149.46l-15.73-31.65,3.78-3.68c-4.1.2-7.29.23-7.84-.1-1.7-1.05-22.22-11.08-22.22-11.08s12.91-5.57,14.62-6.22,26.35.12,26.35.12.07,7.6,1.44,9.24,4.32,2.32,4.32,2.32h0Z" transform="translate(-14.34 -36.74)"/><path class="cls-13" d="M165,286.32l.39.09c-2.11,2.85-1.37,3-1.6,5.15s10.57,22,13.23,33.5H149.46l-3.13-10.63c-.07-16.79-9.16-37-9.16-37L149,279.2c.21,1.1,0,1.44.88,2.49s4.32,2.32,4.32,2.32h0Z" transform="translate(-14.34 -36.74)"/><path class="cls-13" d="M155.51,307.44a.77.77,0,1,1,.11-1.54c.08,0,30.23,2.05,38.68,3.18a19.4,19.4,0,0,1,11.37,5.7A25.32,25.32,0,0,1,212.14,327C214.38,336.74,231,443.84,231,444.15a.77.77,0,0,1-.64.88.78.78,0,0,1-.88-.65c0-.31-16.61-107.3-18.85-117a23.76,23.76,0,0,0-6-11.51,17.89,17.89,0,0,0-10.48-5.26C185.77,309.5,155.59,307.45,155.51,307.44Z" transform="translate(-14.34 -36.74)"/><path class="cls-12" d="M83,286.85c.07,0,4,0,21.57-1.74,8.78-.63,21.79-2.73,33-2.08,23.92,1.39,33.52,11.55,31.69,33.47C166.07,354.36,159.27,409,152.13,447c-.07.4.18,1.22-.22,1.19l-19.85-1.41s3.13-98.52,3.39-105.47-3.41-16.21-10.88-16.21c-5.11,0-15.54,0-21.61-.05C84.16,325,77.17,304.47,83,286.85Z" transform="translate(-14.34 -36.74)"/><path class="cls-13" d="M83,286.85c.07,0,20.62-5.14,38.23-6.91,3.68-.27-3.48,2.49,1.24,2L81.09,301.87A39,39,0,0,1,83,286.85Z" transform="translate(-14.34 -36.74)"/><path class="cls-13" d="M134.9,382a.78.78,0,0,1-1.54-.19c0-.11,5-38.47,6.49-55.25.74-8.27.29-14.13-1.27-17.89-1.47-3.54-4-5.16-7.48-5.16H102.55c-.93.06-11,.36-9.21-19.72a.78.78,0,0,1,1.55.13c-1.63,18.42,6.85,18.1,7.52,18H131.1c4.17,0,7.16,1.93,8.91,6.13,1.65,4,2.14,10.08,1.38,18.61C139.9,343.54,134.91,381.91,134.9,382Z" transform="translate(-14.34 -36.74)"/><path class="cls-14" d="M133.68,444.66s.42-5.8,3.85-5.8h6.69c2.27,0,4.48,3.55,5.11,6.16a3.92,3.92,0,0,1,2.68,2.84c.48,2.25,1.54,10.66,1.69,11.49s.74,3.91-2.68,3.91H126.57c-2.17,0-1.9-1.6-1.9-2.51a14.73,14.73,0,0,1,1.63-6.11C127.46,452.87,133.68,444.66,133.68,444.66Z" transform="translate(-14.34 -36.74)"/><path class="cls-15" d="M133.68,444.66s.42-5.8,3.85-5.8h6.69c2.27,0,4.48,3.55,5.11,6.16l-2.75,5.85a5.1,5.1,0,0,1-3.62,1.31h-7.74a2.33,2.33,0,0,1-1.93-2.29C133.39,448,133.68,444.66,133.68,444.66Z" transform="translate(-14.34 -36.74)"/><path class="cls-16" d="M153.58,458.54c.06.4.1.69.12.81.16.83.74,3.91-2.68,3.91H126.57c-2.17,0-1.9-1.6-1.9-2.52a13.34,13.34,0,0,1,.27-2.2Z" transform="translate(-14.34 -36.74)"/><path class="cls-14" d="M244.54,441s11,9.23,15,10,12.72,1.46,14.58,2.49,3.57,5.35,3.78,6.15.69,3.66-2,3.66H226.66c-2.06,0-2.47-1.09-2.47-2.71a6.26,6.26,0,0,1,1.24-3.22v-9a3.47,3.47,0,0,1,3.5-3.74c4.16-.25,8.69,2,11.38-2.15C241.5,440.58,242,439.14,244.54,441Z" transform="translate(-14.34 -36.74)"/><path class="cls-15" d="M244.54,441s10.55,8.86,14.73,9.91a8.07,8.07,0,0,1-5.31,2.3c-1.51-.12-12.88-5.08-13.91-6.4s0-4.06,0-4.06h0l.21-.31C241.5,440.58,242,439.14,244.54,441Z" transform="translate(-14.34 -36.74)"/><path class="cls-16" d="M277,457.33a15.62,15.62,0,0,1,.91,2.27c.2.81.69,3.66-2,3.66H226.66c-2.06,0-2.47-1.09-2.47-2.71a6.26,6.26,0,0,1,1.24-3.22Z" transform="translate(-14.34 -36.74)"/><path class="cls-3" d="M141.41,132.93l.47.08h0a6.32,6.32,0,1,1-5.27,1.27c-.16,1.87.13,4.18,2.51,4.41l-.07-3.65A2.18,2.18,0,0,1,141.41,132.93Z" transform="translate(-14.34 -36.74)"/><path class="cls-3" d="M97.8,132.93l-.46.08h0a6.31,6.31,0,1,0,5.28,1.27c.16,1.87-.14,4.18-2.52,4.41l.07-3.65A2.17,2.17,0,0,0,97.8,132.93Z" transform="translate(-14.34 -36.74)"/><path class="cls-1" d="M117.69,142.89h0A11.39,11.39,0,0,1,129,154.24v17.4A11.38,11.38,0,0,1,117.69,183h0a11.38,11.38,0,0,1-11.35-11.35v-17.4A11.39,11.39,0,0,1,117.69,142.89Z" transform="translate(-14.34 -36.74)"/><path class="cls-3" d="M117.69,142.89h0A11.39,11.39,0,0,1,129,154.24v11.15a21.48,21.48,0,0,1-12.66,4.12h0a21.39,21.39,0,0,1-10-2.49V154.24A11.39,11.39,0,0,1,117.69,142.89Z" transform="translate(-14.34 -36.74)"/><path class="cls-1" d="M119.61,101.35h0A21.71,21.71,0,0,1,141.25,123v19.68a21.71,21.71,0,0,1-21.64,21.64h0A21.71,21.71,0,0,1,98,142.68V123A21.71,21.71,0,0,1,119.61,101.35Z" transform="translate(-14.34 -36.74)"/><path class="cls-17" d="M108.36,143a2.91,2.91,0,1,1-3,2.86A2.92,2.92,0,0,1,108.36,143Z" transform="translate(-14.34 -36.74)"/><path class="cls-17" d="M131,143.44a2.91,2.91,0,1,1-3,2.86A2.91,2.91,0,0,1,131,143.44Z" transform="translate(-14.34 -36.74)"/><path class="cls-12" d="M126.58,127.74a.88.88,0,0,0-.44,1.16.89.89,0,0,0,1.17.44,5.77,5.77,0,0,1,5.19.33.88.88,0,1,0,.94-1.49A7.56,7.56,0,0,0,126.58,127.74Z" transform="translate(-14.34 -36.74)"/><path class="cls-12" d="M105.82,128.13a.88.88,0,0,0,.85,1.54,5.74,5.74,0,0,1,5.2-.09.89.89,0,0,0,1.19-.38.88.88,0,0,0-.37-1.19A7.6,7.6,0,0,0,105.82,128.13Z" transform="translate(-14.34 -36.74)"/><path class="cls-18" d="M119,140.24a19.4,19.4,0,0,0-1,3.31c.09.46,2.41.87,3,.28.41-.4-.09-2.13-.53-3.3C119.9,138.94,119.57,138.82,119,140.24Z" transform="translate(-14.34 -36.74)"/><path class="cls-16" d="M115.19,148.19a4.42,4.42,0,0,0,8.83,0,.82.82,0,0,0-.81-.82H116A.82.82,0,0,0,115.19,148.19Z" transform="translate(-14.34 -36.74)"/><path class="cls-16" d="M122.76,147.37h-6.31v.75a.71.71,0,0,0,.71.71h4.89a.71.71,0,0,0,.71-.71Z" transform="translate(-14.34 -36.74)"/><path class="cls-16" d="M116.41,151.22a4.4,4.4,0,0,0,6.4,0,4.42,4.42,0,0,0-6.4,0Z" transform="translate(-14.34 -36.74)"/><path class="cls-12" d="M129.88,139.52a2.53,2.53,0,1,0-2.53-2.53A2.54,2.54,0,0,0,129.88,139.52Z" transform="translate(-14.34 -36.74)"/><path class="cls-12" d="M109.34,139.52a2.53,2.53,0,1,0-2.53-2.53A2.54,2.54,0,0,0,109.34,139.52Z" transform="translate(-14.34 -36.74)"/><path class="cls-12" d="M98,138.28s2.5-2.56,2-8.6a18.67,18.67,0,0,0,3-6.26c.6-3-1.54-10-1.54-10H97.24c-1.54,0-2.36,4.12-2.81,6s1.36,14.11,1.36,14.11C96.68,133.06,98,135.15,98,138.28Z" transform="translate(-14.34 -36.74)"/><path class="cls-12" d="M93.37,116.12a7.07,7.07,0,0,1-2.83-3.21c-1.14-2.86.8-4.79,3.24-4.19a6.05,6.05,0,0,1,1.29-1,17,17,0,0,1,10-12.61l.64-.26c.08-.22.18-.44.28-.65,1.92-4.31,7.69-1.7,7.69-1.7,2.47-9.08,12-8.62,19.4-4.15q.44.25.84.54a9.34,9.34,0,0,1,7.24-2c9.11,1.15,11,27.26-.12,31s-30.44.34-30.44.34a14.65,14.65,0,0,1-1.22,1.33,10.76,10.76,0,0,1-5.55,5,10.38,10.38,0,0,1-3.9,7.85,3.35,3.35,0,0,0-4.2-3.64S90.71,123,90.56,121s3.07-4.24,3.07-4.24A6.39,6.39,0,0,1,93.37,116.12Z" transform="translate(-14.34 -36.74)"/><path class="cls-12" d="M141.25,138.28s-2.5-2.56-2-8.6a18.67,18.67,0,0,1-2.95-6.26c-.59-3,1.54-10,1.54-10H142c1.55,0,2.36,4.12,2.82,6s-1.36,14.11-1.36,14.11C142.54,133.06,141.25,135.15,141.25,138.28Z" transform="translate(-14.34 -36.74)"/><path class="cls-9" d="M106.34,170.35l-22.26,3.78s3.17,25.81-3.14,47.14c0,0,1.92,15.17,2.74,23.37h65c0-9,4.51-25.87,4.51-30.1,0-11.67-2.19-37.61-5.88-38.79,0,0-7.9-3.81-14.58-4.61-1.26-.15-2.51-.27-3.69-.36C124.5,179.93,109.11,175.33,106.34,170.35Z" transform="translate(-14.34 -36.74)"/><path class="cls-1" d="M129,170.78c-3.34,6.74-12.7,4.9-18.44,2.07l-1.12,1.49s6.1,8.26,9.79,9.59,7.33,1.54,8.71-1.64,2.25-10.36,2.25-10.36Z" transform="translate(-14.34 -36.74)"/><path class="cls-9" d="M151.81,279.64s1.51-2.51,1.57-7.44-3.4-9.79-3.4-9.79,2.53-5.22-.55-7.79l3.9-14.35L86.7,242.08s-7.69,20.33-9.12,27.3A25.23,25.23,0,0,0,80.9,287.2S110.17,275.74,151.81,279.64Z" transform="translate(-14.34 -36.74)"/><path class="cls-19" d="M149.44,254.6l2.07-7.65-63.77-4.89-1,0s-6.18,16.33-8.49,24.74c5.64-6.95,12.27-7.6,20.17-8.22Z" transform="translate(-14.34 -36.74)"/><path class="cls-16" d="M151.81,279.64s.54,3.88-6.52,3.32-35.53-3.84-64,11.33a4.63,4.63,0,0,1-.94-2.17,27.55,27.55,0,0,1,.54-4.92S114.37,270.31,151.81,279.64Z" transform="translate(-14.34 -36.74)"/><path class="cls-8" d="M84.08,174.29a10.6,10.6,0,0,0-6.6,6.92c-1.65,4.73-9.6,28.18-12.57,38.68-1.63,5.78-4.56,16.71,5.73,16.71C95.38,236.6,95.74,192.29,84.08,174.29Z" transform="translate(-14.34 -36.74)"/><path class="cls-16" d="M106.34,165.58a14.8,14.8,0,0,0-8.45,6.36s3.23.1,6.4,3.94c4.5,5.44,18.77,15.78,24.5,7.59,1.8-2.56,5.64-11,5.13-13.68s-4.88-4.4-4.88-4.4V171c0,4.88-1.29,16.8-8.95,11.62C113.83,178.34,113.09,168.79,106.34,165.58Z" transform="translate(-14.34 -36.74)"/><path class="cls-16" d="M165.35,236.64h-4.67c-3.23,0-5.92-6.06-3.88-14.37s7.59-16.7,8.58-22.65,1.16-10.76,4.91-12.4c0,0,1.29-3,1.8-3.23s4.54,1.79,13,1.84c0,0,.87.57.6,2.77a7.67,7.67,0,0,1,1.64,6.77c-.79,4.4-4.36,10.6-5,17.47S179.82,238,165.35,236.64Z" transform="translate(-14.34 -36.74)"/><path class="cls-16" d="M71,236.64H66.34c-3.23,0-8.38-6.06-9.72-14.37s.78-16.7-.64-22.65-3.22-10.76-.14-12.4c0,0,.06-3,.49-3.23s5.27,1.79,13.74,1.84a4.36,4.36,0,0,1,1.72,2.77,12.13,12.13,0,0,1,4.4,6.77c1,4.4,0,10.6,2.07,17.47S86,238,71,236.64Z" transform="translate(-14.34 -36.74)"/><path class="cls-12" d="M128,212.75a1.43,1.43,0,0,1,.35-1.45c-.38-2-.18-4.79,1.31-8.52,3.91-9.78-4.52-17.87-4.54-17.9a.7.7,0,1,1,1-1s9.12,8.75,4.86,19.41c-1.35,3.41-1.56,5.88-1.26,7.65a1.4,1.4,0,0,1,.95.9,6.05,6.05,0,0,0,.38.85,5.13,5.13,0,0,0,.49.73,1.38,1.38,0,0,1,.27,1.24,3.35,3.35,0,0,0,.67.41.69.69,0,0,1,.36.92.7.7,0,0,1-.92.36,5.16,5.16,0,0,1-1.08-.69,1.4,1.4,0,0,1-1.45-.46,6.92,6.92,0,0,1-.79-1.16,8.3,8.3,0,0,1-.58-1.3Zm-7.18-29a.7.7,0,1,1,.66,1.23s-6.56,3.36-4.53,11.85a21.22,21.22,0,0,1,.66,5.79,1.41,1.41,0,0,1,.6,1.34,11,11,0,0,1-.38,1.8,9.16,9.16,0,0,1-.55,1.42,1.38,1.38,0,0,1-1.3.79,4.51,4.51,0,0,1-1,1,.7.7,0,0,1-.75-1.18,2.4,2.4,0,0,0,.56-.54,1.4,1.4,0,0,1,0-1.29,5.55,5.55,0,0,0,.38-1,8.53,8.53,0,0,0,.28-1.36,1.4,1.4,0,0,1,.81-1.1,20.79,20.79,0,0,0-.65-5.36C113.33,187.64,120.82,183.79,120.84,183.78Z" transform="translate(-14.34 -36.74)"/><path class="cls-3" d="M65.66,163.81a.29.29,0,0,1-.38-.14.29.29,0,0,1,.15-.38,14.8,14.8,0,0,1,6.24-.84.29.29,0,1,1-.06.57A14.12,14.12,0,0,0,65.66,163.81Z" transform="translate(-14.34 -36.74)"/><path class="cls-3" d="M67.24,166.64a.28.28,0,0,1-.38-.14.27.27,0,0,1,.14-.37,14.74,14.74,0,0,1,6.25-.85.29.29,0,0,1,.25.32.3.3,0,0,1-.32.25A14.07,14.07,0,0,0,67.24,166.64Z" transform="translate(-14.34 -36.74)"/><path class="cls-3" d="M68.75,169.79a.29.29,0,0,1-.38-.14.28.28,0,0,1,.14-.38,14.84,14.84,0,0,1,6.25-.84.28.28,0,1,1-.07.56A14.15,14.15,0,0,0,68.75,169.79Z" transform="translate(-14.34 -36.74)"/><path class="cls-20" d="M371.05,152.69c-12.86-5.64-14.9,9-9.18,20.48,3.86,7.8,17.79,27.75,27.17,44.73h10.7C396.08,192.22,384.34,158.53,371.05,152.69Z" transform="translate(-14.34 -36.74)"/><path class="cls-21" d="M395.92,217.9c-9.13-31.12-30.15-60.44-30.23-60.56a.57.57,0,0,0-.92.66c.08.12,20.88,29.14,30,59.9Z" transform="translate(-14.34 -36.74)"/><path class="cls-21" d="M398.22,106.55c13-12.91,21.81,3.46,20,19.92-1.71,15.59-16.68,69.13-14.89,91.64h-5.11C386.61,189.26,381.62,123.09,398.22,106.55Z" transform="translate(-14.34 -36.74)"/><path class="cls-20" d="M400.11,218.11c-10.78-45.49,6.53-108.41,6.59-108.62a.75.75,0,0,1,.89-.54.71.71,0,0,1,.5.88c-.06.22-17.39,63.21-6.5,108.28Z" transform="translate(-14.34 -36.74)"/><path class="cls-20" d="M430.13,135.12c13.59-6.6,16.19,8.92,10.42,21.49-4.79,10.41-25.19,41-33.3,60.8l-6.74-.23C401.26,189.42,414.08,142.9,430.13,135.12Z" transform="translate(-14.34 -36.74)"/><path class="cls-21" d="M403,217.26c6.17-37.36,32.93-77.26,33-77.41a.6.6,0,1,1,1,.67c-.09.14-26.68,39.79-32.83,76.78Z" transform="translate(-14.34 -36.74)"/><polygon class="cls-22" points="391.98 182.83 375.86 182.83 371.65 186.63 375.09 199.87 383.92 199.87 392.75 199.87 396.19 186.63 391.98 182.83"/><polygon class="cls-23" points="390.69 182.83 375.86 182.83 371.65 186.63 372.94 191.59 395.89 187.75 396.19 186.63 392.15 182.98 390.69 182.83"/><rect class="cls-24" x="370.32" y="177.9" width="27.2" height="8.72" rx="1.33"/><path class="cls-16" d="M430,463.26H359.55c-1.89,0-3.44-2-3.44-4.39V335.49c0-2.42,1.55-4.4,3.44-4.4H430c1.9,0,3.45,2,3.45,4.4V458.87C433.41,461.28,431.86,463.26,430,463.26Z" transform="translate(-14.34 -36.74)"/><path class="cls-9" d="M389.64,463.26H319.23c-1.9,0-3.45-2-3.45-4.39V335.49c0-2.42,1.55-4.4,3.45-4.4h70.41c1.89,0,3.44,2,3.44,4.4V458.87C393.08,461.28,391.53,463.26,389.64,463.26Z" transform="translate(-14.34 -36.74)"/><path class="cls-9" d="M359.58,344.52H336.71c-6.76,0-12.29,7.07-12.29,15.72v29.55c0,8.65,5.53,15.72,12.29,15.72h22.87c6.76,0,12.3-7.07,12.3-15.72V360.24C371.88,351.59,366.34,344.52,359.58,344.52Z" transform="translate(-14.34 -36.74)"/><path class="cls-25" d="M358.81,346.57H337.48c-6.31,0-11.47,6.6-11.47,14.66V388.8c0,8.06,5.16,14.66,11.47,14.66h21.33c6.31,0,11.48-6.6,11.48-14.66V361.23C370.29,353.17,365.12,346.57,358.81,346.57Z" transform="translate(-14.34 -36.74)"/><path class="cls-26" d="M329.68,399.52a10.24,10.24,0,0,0,7.8,3.94h21.33c6.31,0,11.48-6.6,11.48-14.66V367h-9.88V351.55H336.9v32.76h-7.22Z" transform="translate(-14.34 -36.74)"/><path class="cls-16" d="M381.51,416.44H380.1a1.31,1.31,0,0,0,1.16.92,1.26,1.26,0,0,0,1.12-.86,6.36,6.36,0,0,0-.87-.06Zm-2.44,0h-2.31a1.19,1.19,0,0,0,2.31,0Zm-3.34,0h-2.31a1.31,1.31,0,0,0,1.16.92,1.29,1.29,0,0,0,1.15-.92Zm-3.34,0h-2.3a1.18,1.18,0,0,0,2.3,0Zm-3.34,0h-1.4a6.4,6.4,0,0,0-.88.06,1.28,1.28,0,0,0,1.13.86,1.3,1.3,0,0,0,1.15-.92Zm-3.56.4a6.22,6.22,0,0,0-1,.52h.1a1.15,1.15,0,0,0,.93-.52Zm-3.13,2.42a9.78,9.78,0,0,0-1.34,2.35l.2,0A1.5,1.5,0,0,0,362.5,420a1.94,1.94,0,0,0-.14-.73Zm-1.76,3.57a11.21,11.21,0,0,0-.39,2.43,1.21,1.21,0,0,0,1,.63,1.68,1.68,0,0,0,0-3.26,1.09,1.09,0,0,0-.62.2Zm-.41,4.73v1.93a1.21,1.21,0,0,0,1,.67,1.68,1.68,0,0,0,0-3.27,1.23,1.23,0,0,0-1,.67Zm0,4.27v1.93a1.23,1.23,0,0,0,1,.67,1.68,1.68,0,0,0,0-3.27,1.21,1.21,0,0,0-1,.67Zm0,4.27V438a1.21,1.21,0,0,0,1,.67,1.68,1.68,0,0,0,0-3.27,1.22,1.22,0,0,0-1,.68Zm0,4.26v1.93a1.23,1.23,0,0,0,1,.67,1.68,1.68,0,0,0,0-3.27,1.23,1.23,0,0,0-1,.67Zm0,4.23a11.21,11.21,0,0,0,.39,2.43,1.09,1.09,0,0,0,.62.2,1.68,1.68,0,0,0,0-3.26,1.21,1.21,0,0,0-1,.63Zm.81,3.65a10,10,0,0,0,1.34,2.36,2,2,0,0,0,.14-.74,1.5,1.5,0,0,0-1.28-1.64l-.2,0Zm3.44,4.26a7,7,0,0,0,1,.51,1.15,1.15,0,0,0-.93-.52Zm2.31.85a6.4,6.4,0,0,0,.88.07h1.4a1.17,1.17,0,0,0-2.28-.07Zm3.32.07h2.3a1.18,1.18,0,0,0-2.3,0Zm3.33,0h2.31a1.29,1.29,0,0,0-1.15-.93,1.31,1.31,0,0,0-1.16.93Zm3.34,0h2.31a1.18,1.18,0,0,0-2.31,0Zm3.34,0h1.41a5.1,5.1,0,0,0,.87-.07,1.26,1.26,0,0,0-1.12-.86,1.31,1.31,0,0,0-1.16.93Zm3.56-.41a6.68,6.68,0,0,0,1-.51h-.1a1.17,1.17,0,0,0-.94.52Zm3.14-2.41a10.2,10.2,0,0,0,1.34-2.36l-.2,0a1.5,1.5,0,0,0-1.28,1.64,2,2,0,0,0,.14.74Zm1.75-3.58a11.88,11.88,0,0,0,.4-2.42,1.21,1.21,0,0,0-1-.64,1.68,1.68,0,0,0,0,3.26,1,1,0,0,0,.61-.2Zm.42-4.73v-1.93a1.23,1.23,0,0,0-1-.67,1.68,1.68,0,0,0,0,3.27,1.21,1.21,0,0,0,1-.67Zm0-4.27V436.1a1.22,1.22,0,0,0-1-.68,1.68,1.68,0,0,0,0,3.27,1.21,1.21,0,0,0,1-.67Zm0-4.26v-1.93a1.21,1.21,0,0,0-1-.67,1.68,1.68,0,0,0,0,3.27,1.23,1.23,0,0,0,1-.67Zm0-4.27v-1.93a1.23,1.23,0,0,0-1-.67,1.68,1.68,0,0,0,0,3.27,1.21,1.21,0,0,0,1-.67Zm0-4.23a11.86,11.86,0,0,0-.4-2.43,1,1,0,0,0-.61-.2,1.68,1.68,0,0,0,0,3.26,1.22,1.22,0,0,0,1-.63Zm-.81-3.65a10.13,10.13,0,0,0-1.34-2.35,1.94,1.94,0,0,0-.14.73,1.5,1.5,0,0,0,1.28,1.64l.2,0Zm-3.44-4.25a5.94,5.94,0,0,0-1-.52,1.17,1.17,0,0,0,.94.52Zm-20.14,34.13a1.68,1.68,0,1,1,1.28-1.63,1.49,1.49,0,0,1-1.28,1.63Zm3.34,0a1.68,1.68,0,0,1,0-3.27,1.68,1.68,0,0,1,0,3.27Zm3.34,0a1.68,1.68,0,0,1,0-3.27,1.68,1.68,0,0,1,0,3.27Zm3.34,0a1.68,1.68,0,0,1,0-3.27,1.68,1.68,0,0,1,0,3.27Zm3.34,0a1.68,1.68,0,0,1,0-3.27,1.68,1.68,0,0,1,0,3.27Zm3.34,0a1.68,1.68,0,0,1,0-3.27,1.68,1.68,0,0,1,0,3.27Zm3.34,0a1.68,1.68,0,0,1,0-3.27,1.68,1.68,0,0,1,0,3.27Zm-20-7.53a1.68,1.68,0,1,0,1.28,1.63,1.49,1.49,0,0,0-1.28-1.63Zm3.34,0a1.68,1.68,0,1,0,1.28,1.63A1.49,1.49,0,0,0,367.9,444Zm3.34,0a1.68,1.68,0,1,0,1.28,1.63,1.49,1.49,0,0,0-1.28-1.63Zm3.34,0a1.68,1.68,0,1,0,1.28,1.63,1.49,1.49,0,0,0-1.28-1.63Zm3.34,0a1.68,1.68,0,1,0,1.28,1.63,1.49,1.49,0,0,0-1.28-1.63Zm3.34,0a1.68,1.68,0,1,0,1.28,1.63,1.49,1.49,0,0,0-1.28-1.63Zm3.34,0a1.68,1.68,0,1,0,1.28,1.63A1.49,1.49,0,0,0,384.6,444Zm-20-1a1.68,1.68,0,1,1,1.28-1.64,1.49,1.49,0,0,1-1.28,1.64Zm3.34,0a1.68,1.68,0,1,1,1.28-1.64A1.49,1.49,0,0,1,367.9,443Zm3.34,0a1.68,1.68,0,1,1,1.28-1.64,1.49,1.49,0,0,1-1.28,1.64Zm3.34,0a1.68,1.68,0,1,1,1.28-1.64,1.49,1.49,0,0,1-1.28,1.64Zm3.34,0a1.68,1.68,0,1,1,1.28-1.64,1.49,1.49,0,0,1-1.28,1.64Zm3.34,0a1.68,1.68,0,1,1,1.28-1.64,1.49,1.49,0,0,1-1.28,1.64Zm3.34,0a1.68,1.68,0,1,1,1.28-1.64A1.49,1.49,0,0,1,384.6,443Zm-20-7.54a1.68,1.68,0,1,0,1.28,1.64,1.49,1.49,0,0,0-1.28-1.64Zm3.34,0a1.68,1.68,0,1,0,1.28,1.64,1.49,1.49,0,0,0-1.28-1.64Zm3.34,0a1.68,1.68,0,1,0,1.28,1.64,1.49,1.49,0,0,0-1.28-1.64Zm3.34,0a1.68,1.68,0,1,0,1.28,1.64,1.49,1.49,0,0,0-1.28-1.64Zm3.34,0a1.68,1.68,0,1,0,1.28,1.64,1.49,1.49,0,0,0-1.28-1.64Zm3.34,0a1.68,1.68,0,1,0,1.28,1.64,1.49,1.49,0,0,0-1.28-1.64Zm3.34,0a1.68,1.68,0,1,0,1.28,1.64,1.49,1.49,0,0,0-1.28-1.64Zm-20-1a1.68,1.68,0,1,1,1.28-1.64,1.49,1.49,0,0,1-1.28,1.64Zm3.34,0a1.68,1.68,0,1,1,1.28-1.64,1.49,1.49,0,0,1-1.28,1.64Zm3.34,0a1.68,1.68,0,1,1,1.28-1.64,1.49,1.49,0,0,1-1.28,1.64Zm3.34,0a1.68,1.68,0,1,1,1.28-1.64,1.49,1.49,0,0,1-1.28,1.64Zm3.34,0a1.68,1.68,0,1,1,1.28-1.64,1.49,1.49,0,0,1-1.28,1.64Zm3.34,0a1.68,1.68,0,1,1,1.28-1.64,1.49,1.49,0,0,1-1.28,1.64Zm3.34,0a1.68,1.68,0,1,1,1.28-1.64,1.49,1.49,0,0,1-1.28,1.64Zm-20-7.54a1.68,1.68,0,1,0,1.28,1.64,1.49,1.49,0,0,0-1.28-1.64Zm3.34,0a1.68,1.68,0,1,0,1.28,1.64,1.49,1.49,0,0,0-1.28-1.64Zm3.34,0a1.68,1.68,0,1,0,1.28,1.64,1.49,1.49,0,0,0-1.28-1.64Zm3.34,0a1.68,1.68,0,1,0,1.28,1.64,1.49,1.49,0,0,0-1.28-1.64Zm3.34,0a1.68,1.68,0,1,0,1.28,1.64,1.49,1.49,0,0,0-1.28-1.64Zm3.34,0a1.68,1.68,0,1,0,1.28,1.64,1.49,1.49,0,0,0-1.28-1.64Zm3.34,0a1.68,1.68,0,1,0,1.28,1.64,1.49,1.49,0,0,0-1.28-1.64Zm-20-1a1.68,1.68,0,1,1,1.28-1.63,1.49,1.49,0,0,1-1.28,1.63Zm3.34,0a1.68,1.68,0,1,1,1.28-1.63,1.49,1.49,0,0,1-1.28,1.63Zm3.34,0a1.68,1.68,0,1,1,1.28-1.63,1.49,1.49,0,0,1-1.28,1.63Zm3.34,0a1.68,1.68,0,1,1,1.28-1.63,1.49,1.49,0,0,1-1.28,1.63Zm3.34,0a1.68,1.68,0,1,1,1.28-1.63,1.49,1.49,0,0,1-1.28,1.63Zm3.34,0a1.68,1.68,0,1,1,1.28-1.63,1.49,1.49,0,0,1-1.28,1.63Zm3.34,0a1.68,1.68,0,1,1,1.28-1.63,1.49,1.49,0,0,1-1.28,1.63Zm-20-7.53a1.68,1.68,0,1,0,1.28,1.63,1.49,1.49,0,0,0-1.28-1.63Zm3.34,0a1.68,1.68,0,0,0,0,3.27,1.68,1.68,0,0,0,0-3.27Zm3.34,0a1.68,1.68,0,0,0,0,3.27,1.68,1.68,0,0,0,0-3.27Zm3.34,0a1.68,1.68,0,0,0,0,3.27,1.68,1.68,0,0,0,0-3.27Zm3.34,0a1.68,1.68,0,0,0,0,3.27,1.68,1.68,0,0,0,0-3.27Zm3.34,0a1.68,1.68,0,0,0,0,3.27,1.68,1.68,0,0,0,0-3.27Zm3.34,0a1.68,1.68,0,0,0,0,3.27,1.68,1.68,0,0,0,0-3.27Z" transform="translate(-14.34 -36.74)"/><path class="cls-16" d="M352.63,451.06H321.88a1.08,1.08,0,0,0-.92,1.18h0a1.08,1.08,0,0,0,.92,1.18h30.75a1.07,1.07,0,0,0,.92-1.18h0A1.07,1.07,0,0,0,352.63,451.06Z" transform="translate(-14.34 -36.74)"/><path class="cls-16" d="M352.63,446.12H321.88a1.07,1.07,0,0,0-.92,1.17h0a1.08,1.08,0,0,0,.92,1.18h30.75a1.07,1.07,0,0,0,.92-1.18h0A1.06,1.06,0,0,0,352.63,446.12Z" transform="translate(-14.34 -36.74)"/><path class="cls-16" d="M352.63,441.17H321.88a1.08,1.08,0,0,0-.92,1.17h0a1.08,1.08,0,0,0,.92,1.17h30.75a1.07,1.07,0,0,0,.92-1.17h0A1.07,1.07,0,0,0,352.63,441.17Z" transform="translate(-14.34 -36.74)"/><path class="cls-16" d="M352.63,436.22H327.09a1.08,1.08,0,0,0-.92,1.18h0a1.08,1.08,0,0,0,.92,1.18h25.54a1.07,1.07,0,0,0,.92-1.18h0A1.07,1.07,0,0,0,352.63,436.22Z" transform="translate(-14.34 -36.74)"/><path class="cls-16" d="M352.63,431.28H321.88a1.07,1.07,0,0,0-.92,1.17h0a1.08,1.08,0,0,0,.92,1.18h30.75a1.07,1.07,0,0,0,.92-1.18h0A1.06,1.06,0,0,0,352.63,431.28Z" transform="translate(-14.34 -36.74)"/><path class="cls-16" d="M352.63,426.33H321.88a1.08,1.08,0,0,0-.92,1.18h0a1.08,1.08,0,0,0,.92,1.17h30.75a1.07,1.07,0,0,0,.92-1.17h0A1.07,1.07,0,0,0,352.63,426.33Z" transform="translate(-14.34 -36.74)"/><path class="cls-16" d="M346.92,421.38h-25a1.08,1.08,0,0,0-.92,1.18h0a1.08,1.08,0,0,0,.92,1.18h25a1.08,1.08,0,0,0,.92-1.18h0A1.08,1.08,0,0,0,346.92,421.38Z" transform="translate(-14.34 -36.74)"/><path class="cls-16" d="M352.63,416.43H321.88a1.08,1.08,0,0,0-.92,1.18h0a1.08,1.08,0,0,0,.92,1.18h30.75a1.07,1.07,0,0,0,.92-1.18h0A1.07,1.07,0,0,0,352.63,416.43Z" transform="translate(-14.34 -36.74)"/><path class="cls-16" d="M323.23,436.22h-1.35a1.08,1.08,0,0,0-.92,1.18h0a1.08,1.08,0,0,0,.92,1.18h1.35a1.08,1.08,0,0,0,.93-1.18h0A1.08,1.08,0,0,0,323.23,436.22Z" transform="translate(-14.34 -36.74)"/><path class="cls-16" d="M352.63,421.38h-2.19a1.07,1.07,0,0,0-.92,1.18h0a1.07,1.07,0,0,0,.92,1.18h2.19a1.07,1.07,0,0,0,.92-1.18h0A1.07,1.07,0,0,0,352.63,421.38Z" transform="translate(-14.34 -36.74)"/><path class="cls-16" d="M341.52,346.57h-4a10.58,10.58,0,0,0-8.57,4.95l37.63,48.09a16.71,16.71,0,0,0,3.75-10.81v-5.48l-28.77-36.75Zm-14.67,9.18,36.43,46.55a9.42,9.42,0,0,1-4.47,1.16h-1.22L326,363.11v-1.88A18.12,18.12,0,0,1,326.85,355.75Z" transform="translate(-14.34 -36.74)"/><path class="cls-16" d="M247.09,190.73s-.86-3.09-3.46-3.22-3.58,3.09-2.82,3.48S247.09,190.73,247.09,190.73Z" transform="translate(-14.34 -36.74)"/><path class="cls-16" d="M244.83,196.23l.71-.15h0l2.41-.5c-2.88,7.9-10.92,6.77-7.75.69l4-.82v.4a.41.41,0,0,0,.53.4Z" transform="translate(-14.34 -36.74)"/><path class="cls-9" d="M368.56,120.83H255.82a7.32,7.32,0,0,0-6.8,5.63l-15.9,76.34a4.45,4.45,0,0,0,4.46,5.63H350.33a7.33,7.33,0,0,0,6.8-5.63L373,126.46A4.45,4.45,0,0,0,368.56,120.83Z" transform="translate(-14.34 -36.74)"/><path class="cls-16" d="M368.56,120.83h-109a7.33,7.33,0,0,0-6.8,5.63L236.82,202.8a4.45,4.45,0,0,0,4.46,5.63h109a7.33,7.33,0,0,0,6.8-5.63L373,126.46A4.45,4.45,0,0,0,368.56,120.83Z" transform="translate(-14.34 -36.74)"/><path class="cls-27" d="M358.14,174H248.64A2.85,2.85,0,0,0,246,176.2h0a1.73,1.73,0,0,0,1.73,2.18h109.5a2.82,2.82,0,0,0,2.63-2.18h0A1.72,1.72,0,0,0,358.14,174Z" transform="translate(-14.34 -36.74)"/><path class="cls-27" d="M355.52,180.66h-107a4.42,4.42,0,0,0-4.12,3.41l-3.71,17.82a2.69,2.69,0,0,0,2.7,3.41h107a4.43,4.43,0,0,0,4.13-3.41l3.71-17.82A2.69,2.69,0,0,0,355.52,180.66Z" transform="translate(-14.34 -36.74)"/><path class="cls-16" d="M291.34,186.65c-.85,0-2.19.21-2.19-.63a1.54,1.54,0,0,1,1.53-1.53H321c.91,0,5.88.17,6.29,6.06.13,1.95,1,8.09,1.89,14.71.91,6.44,2,13.7,2.57,17.73a23,23,0,0,1,.27,3.4,12.37,12.37,0,0,1-1.5,6.36,7.74,7.74,0,0,1-5.8,3.73,12.52,12.52,0,0,1-1.77.12H290.53a1.53,1.53,0,0,1-1.53-1.52c0-.85,1.4-.5,2.25-.5l5.47-1a8.89,8.89,0,0,0,1.31-.09,4.78,4.78,0,0,0,3.64-2.28,9.5,9.5,0,0,0,1.05-4.79,20.81,20.81,0,0,0-.22-2.95c-.57-3.85-1.95-10.89-2.92-17.76-.95-6.7-1.78-12.91-1.92-14.93-.22-3.13-2.71-3.22-3.13-3.21h-.16Z" transform="translate(-14.34 -36.74)"/><path class="cls-9" d="M289,187.55a1.53,1.53,0,0,1,0-3.06h3.11c.9,0,5.88.17,6.28,6.06.14,1.95,1,8.09,1.9,14.71.91,6.44,2,13.7,2.57,17.73a23,23,0,0,1,.27,3.4,12.47,12.47,0,0,1-1.5,6.36,7.74,7.74,0,0,1-5.81,3.73,12.37,12.37,0,0,1-1.76.12h-8.29a1.53,1.53,0,1,1,0-3h8.29a8.93,8.93,0,0,0,1.32-.09,4.75,4.75,0,0,0,3.63-2.28,9.4,9.4,0,0,0,1.06-4.79,20.82,20.82,0,0,0-.23-2.95c-.57-3.85-1.61-10.89-2.57-17.76-.95-6.7-1.78-12.91-1.92-14.93-.22-3.13-2.7-3.22-3.13-3.21H289Z" transform="translate(-14.34 -36.74)"/><path class="cls-16" d="M213.2,213.58h7.74a5.5,5.5,0,0,1,5.47,5.48v6.51a5.48,5.48,0,0,1-5.47,5.47H213.2a5.46,5.46,0,0,1-5.47-5.47v-6.51a5.48,5.48,0,0,1,5.47-5.48Zm7.74,2.13H213.2a3.38,3.38,0,0,0-2.37,1,3.34,3.34,0,0,0-1,2.37v6.51a3.3,3.3,0,0,0,1,2.36,3.35,3.35,0,0,0,2.37,1h7.74a3.38,3.38,0,0,0,3.35-3.35v-6.51a3.36,3.36,0,0,0-3.35-3.35Z" transform="translate(-14.34 -36.74)"/><path class="cls-16" d="M219.64,223.2v8.31a5.1,5.1,0,0,1-5.09,5.09H207a5.1,5.1,0,0,1-5.09-5.09V211.69a1.72,1.72,0,0,1,1.72-1.72h14.27a1.73,1.73,0,0,1,1.72,1.72Z" transform="translate(-14.34 -36.74)"/><path class="cls-8" d="M215.22,218.1v8.32a5,5,0,0,1-.66,2.5,5.1,5.1,0,0,1-2.18,2.06,5,5,0,0,1-2.25.53h-8.2A5.1,5.1,0,0,0,207,236.6h7.53a5.1,5.1,0,0,0,5.09-5.09V211.69a1.73,1.73,0,0,0-1.72-1.72h-2.7v8.13Z" transform="translate(-14.34 -36.74)"/><rect class="cls-28" x="184.99" width="1.75" height="3.87" rx="0.87"/><rect class="cls-28" x="184.99" y="71.29" width="1.75" height="3.88" rx="0.87"/><path class="cls-29" d="M219,41.77h0a.88.88,0,0,1,.31,1.19l-1.06,1.84a.87.87,0,0,1-1.19.32h0a.87.87,0,0,1-.32-1.19l1.06-1.84A.88.88,0,0,1,219,41.77Z" transform="translate(-14.34 -36.74)"/><path class="cls-29" d="M183.35,103.51h0a.87.87,0,0,1,.32,1.19l-1.06,1.84a.88.88,0,0,1-1.2.32h0a.87.87,0,0,1-.32-1.19l1.07-1.84A.87.87,0,0,1,183.35,103.51Z" transform="translate(-14.34 -36.74)"/><path class="cls-29" d="M232.75,55.52h0a.88.88,0,0,1-.32,1.2l-1.84,1.06a.87.87,0,0,1-1.19-.32h0a.87.87,0,0,1,.32-1.19l1.84-1.07A.88.88,0,0,1,232.75,55.52Z" transform="translate(-14.34 -36.74)"/><path class="cls-29" d="M171,91.17h0a.87.87,0,0,1-.32,1.19l-1.84,1.07a.88.88,0,0,1-1.19-.32h0a.89.89,0,0,1,.31-1.2l1.85-1.06A.87.87,0,0,1,171,91.17Z" transform="translate(-14.34 -36.74)"/><rect class="cls-28" x="219.57" y="36.71" width="3.87" height="1.75" rx="0.87"/><rect class="cls-28" x="148.28" y="36.71" width="3.87" height="1.75" rx="0.87"/><path class="cls-29" d="M232.75,93.11h0a.89.89,0,0,1-1.19.32l-1.84-1.07a.87.87,0,0,1-.32-1.19h0a.87.87,0,0,1,1.19-.32l1.84,1.06A.88.88,0,0,1,232.75,93.11Z" transform="translate(-14.34 -36.74)"/><path class="cls-29" d="M171,57.46h0a.87.87,0,0,1-1.19.32L168,56.72a.89.89,0,0,1-.31-1.2h0a.88.88,0,0,1,1.19-.32l1.84,1.07A.87.87,0,0,1,171,57.46Z" transform="translate(-14.34 -36.74)"/><path class="cls-29" d="M219,106.86h0a.87.87,0,0,1-1.19-.32l-1.06-1.84a.87.87,0,0,1,.32-1.19h0a.87.87,0,0,1,1.19.32l1.06,1.84A.88.88,0,0,1,219,106.86Z" transform="translate(-14.34 -36.74)"/><path class="cls-29" d="M183.35,45.12h0a.86.86,0,0,1-1.18-.32L181.09,43a.87.87,0,0,1,.32-1.19h0a.88.88,0,0,1,1.2.32l1.06,1.84A.87.87,0,0,1,183.35,45.12Z" transform="translate(-14.34 -36.74)"/><path class="cls-29" d="M201.44,74.31a1.24,1.24,0,1,1-2.47,0V50.67a1.24,1.24,0,1,1,2.47,0Z" transform="translate(-14.34 -36.74)"/><path class="cls-16" d="M199.55,75.37a1.24,1.24,0,0,1,1.31-2.1l17.79,11.12a1.23,1.23,0,0,1-1.3,2.1Z" transform="translate(-14.34 -36.74)"/><path class="cls-29" d="M480,463.26c-3.26-19.35-9.3-55.29-15.31-90.83-7.69-45.54-15.3-90.37-16.87-98.85-1.49-8.11-3.73-13.35-6.79-16.48-2.86-2.92-6.65-4.05-11.42-4.05H333c-4.79,0-8.56,1-11.4,3.83-3,3.06-5.26,8.3-6.81,16.7-1.51,8.17-9.12,53-16.83,98.62-6,35.61-12.08,71.67-15.35,91.06h-5.62c3.23-19.16,9.4-55.8,15.51-92,7.67-45.41,15.27-90.16,16.85-98.71,1.77-9.58,4.49-15.74,8.34-19.6,4-4.06,9.07-5.48,15.31-5.48h96.7c6.25,0,11.34,1.6,15.38,5.74,3.84,3.93,6.56,10.09,8.27,19.34,1.64,8.87,9.24,53.61,16.89,98.94,6.1,36.1,12.25,72.62,15.47,91.74Z" transform="translate(-14.34 -36.74)"/><path class="cls-29" d="M183.43,242.08H447.8a5.5,5.5,0,0,1,5.48,5.49h0a5.49,5.49,0,0,1-5.48,5.48H183.43a5.49,5.49,0,0,1-5.48-5.48h0A5.5,5.5,0,0,1,183.43,242.08Z" transform="translate(-14.34 -36.74)"/><path class="cls-10" d="M159.46,236.6H459.85a5.5,5.5,0,0,1,5.48,5.48h0a5.5,5.5,0,0,1-5.48,5.49H159.46a5.49,5.49,0,0,1-5.47-5.49h0A5.49,5.49,0,0,1,159.46,236.6Z" transform="translate(-14.34 -36.74)"/><path class="cls-30" d="M45.58,242.08H191.82a5.5,5.5,0,0,1,5.48,5.49h0a5.5,5.5,0,0,1-5.48,5.48H45.58a5.49,5.49,0,0,1-5.48-5.48h0A5.5,5.5,0,0,1,45.58,242.08Z" transform="translate(-14.34 -36.74)"/><path class="cls-11" d="M32.32,236.6H205.07a5.49,5.49,0,0,1,5.48,5.48h0a5.5,5.5,0,0,1-5.48,5.49H32.32a5.5,5.5,0,0,1-5.48-5.49h0A5.5,5.5,0,0,1,32.32,236.6Z" transform="translate(-14.34 -36.74)"/><path class="cls-16" d="M217.44,463.26c-3.26-19.35-9.31-55.29-15.31-90.83-7.7-45.54-15.31-90.37-16.87-98.85-1.5-8.11-3.73-13.35-6.8-16.48-2.85-2.92-6.64-4.05-11.41-4.05H70.35c-4.79,0-8.57,1-11.4,3.83-3,3.06-5.27,8.3-6.82,16.7-1.5,8.17-9.12,53-16.82,98.62-6,35.61-12.09,71.67-15.35,91.06H14.34c3.23-19.16,9.39-55.8,15.51-92,7.67-45.41,15.26-90.16,16.85-98.71C48.46,263,51.19,256.84,55,253c4-4.06,9.08-5.48,15.32-5.48h96.7c6.25,0,11.33,1.6,15.38,5.74,3.84,3.93,6.56,10.09,8.27,19.34,1.63,8.87,9.23,53.61,16.89,98.94,6.1,36.1,12.25,72.62,15.46,91.74Z" transform="translate(-14.34 -36.74)"/></svg>